<svg width="200" height="312" viewBox="0 0 200 312" fill="none" xmlns="http://www.w3.org/2000/svg">
<path d="M12.8552 52.1043L10.5146 64.4341L22.1835 67.735L20.7337 54.5716L12.8552 52.1043Z" fill="#FFC9B8"/>
<path d="M152.328 139.919H31.9854C18.3384 139.919 7.27539 151.019 7.27539 164.713V281.807C7.27539 295.5 18.3384 306.601 31.9853 306.601H152.328C165.975 306.601 177.038 295.5 177.038 281.806V164.713C177.038 151.019 165.975 139.919 152.328 139.919V139.919Z" fill="white"/>
<path d="M152.329 307.188H31.9856C18.0379 307.188 6.69043 295.802 6.69043 281.806V164.713C6.69043 150.718 18.0379 139.332 31.9856 139.332H152.329C166.276 139.332 177.624 150.718 177.624 164.713V281.806C177.624 295.802 166.276 307.188 152.329 307.188H152.329ZM31.9856 140.506C18.683 140.506 7.86069 151.365 7.86069 164.713V281.806C7.86069 295.155 18.683 306.014 31.9856 306.014H152.329C165.631 306.014 176.453 295.155 176.453 281.806V164.713C176.453 151.365 165.631 140.506 152.329 140.506H31.9856V140.506Z" fill="#3F3D56"/>
<path d="M161.045 190.683H112.674C110.622 190.683 108.953 189.008 108.953 186.949C108.953 184.891 110.622 183.216 112.674 183.216H161.045C163.097 183.216 164.766 184.891 164.766 186.949C164.766 189.008 163.097 190.683 161.045 190.683H161.045Z" fill="#BFDAA2"/>
<path d="M115.667 220.044H68.648C67.4626 220.044 66.498 219.076 66.498 217.886C66.498 216.697 67.4626 215.73 68.648 215.73H115.667C116.853 215.73 117.817 216.697 117.817 217.886C117.817 219.076 116.853 220.044 115.667 220.044V220.044Z" fill="#BFDAA2"/>
<path d="M49.2095 147.938H22.3651C22.2649 147.938 22.1836 148.019 22.1836 148.12V151.256C22.1836 151.356 22.2649 151.438 22.3651 151.438H49.2095C49.3097 151.438 49.391 151.356 49.391 151.256V148.12C49.391 148.019 49.3097 147.938 49.2095 147.938Z" fill="#BFDAA2"/>
<path d="M139.63 151.438C141.172 151.438 142.421 150.184 142.421 148.638C142.421 147.091 141.172 145.838 139.63 145.838C138.089 145.838 136.84 147.091 136.84 148.638C136.84 150.184 138.089 151.438 139.63 151.438Z" fill="#3F3D56"/>
<path d="M147.304 151.438C148.845 151.438 150.095 150.184 150.095 148.638C150.095 147.091 148.845 145.838 147.304 145.838C145.763 145.838 144.514 147.091 144.514 148.638C144.514 150.184 145.763 151.438 147.304 151.438Z" fill="#3F3D56"/>
<path d="M154.978 151.438C156.519 151.438 157.769 150.184 157.769 148.638C157.769 147.091 156.519 145.838 154.978 145.838C153.437 145.838 152.188 147.091 152.188 148.638C152.188 150.184 153.437 151.438 154.978 151.438Z" fill="#3F3D56"/>
<path d="M31.6924 231.591C31.6924 231.978 32.0025 232.29 32.3887 232.29H151.925C152.311 232.29 152.621 231.978 152.621 231.591C152.621 231.203 152.311 230.892 151.925 230.892H32.3887C32.0025 230.892 31.6924 231.203 31.6924 231.591Z" fill="#3F3D56"/>
<path d="M68.1489 59.2516C70.6937 57.1416 73.8415 56.7489 75.1794 58.3742C76.5174 59.9995 75.5388 63.0269 72.9928 65.1373C71.9873 65.9943 70.7919 66.5972 69.5066 66.8956L58.6116 75.6989L54.6035 70.4807L65.7696 62.3561C66.3042 61.1455 67.1201 60.0809 68.1489 59.2516H68.1489Z" fill="#FFC9B8"/>
<path d="M5.17624 79.1143C5.17072 78.725 5.17436 75.329 7.67993 73.1825C10.5581 70.7169 14.6194 71.7149 16.0439 72.0649C19.3345 72.8735 19.6043 74.2899 22.6945 75.7452C28.4759 78.468 21.232 77.0743 24.6721 76.2013C25.8629 75.899 42.9938 74.7069 47.258 72.0734C55.5514 66.9515 61.2022 63.8456 61.2022 63.8456L64.8962 71.259C64.8962 71.259 59.5546 78.7118 52.0368 84.233C44.3252 89.8964 40.4694 92.7281 34.6096 93.8222C34.105 93.9164 21.6945 96.0427 11.6988 88.5493C9.41879 86.8401 5.24135 83.7084 5.17624 79.1143V79.1143V79.1143Z" fill="#E6E6E6"/>
<path d="M16.6361 60.2604C23.7432 60.2604 29.5047 54.4792 29.5047 47.3478C29.5047 40.2164 23.7432 34.4352 16.6361 34.4352C9.52902 34.4352 3.76758 40.2164 3.76758 47.3478C3.76758 54.4792 9.52902 60.2604 16.6361 60.2604Z" fill="#FFC9B8"/>
<path d="M117.417 134.1L104.164 120.487L97.3232 127.648L107.197 140.7L116.991 141.824L117.417 134.1Z" fill="#FFC9B8"/>
<path d="M41.7428 108.574C42.5179 108.638 44.9812 109.133 47.3357 107.834C48.9426 106.946 49.7667 105.627 50.045 105.208C53.4981 100.004 66.7518 91.8892 78.6466 91.3898C81.3403 91.2767 83.1133 91.5899 84.7249 92.4328C87.01 93.6281 87.9223 95.3402 90.8221 99.351C92.4083 101.545 94.1635 103.612 95.7688 105.792C105.167 118.554 108.73 119.555 108.366 123.647C107.962 128.186 103.083 132.493 99.8399 131.996C98.5118 131.792 97.9975 130.866 96.2232 128.99C91.0207 123.49 88.8683 124.506 85.1644 120.293C80.8399 115.375 81.406 111.297 79.1499 111.139C77.0576 110.993 76.1685 114.472 71.7017 119.094C69.6578 121.209 68.2023 122.179 63.7682 125.265C46.5007 137.286 46.2251 138.13 42.7403 139.089C41.2156 139.508 30.3943 142.485 26.5395 137.748C20.5071 130.334 34.7581 107.991 41.7427 108.574L41.7428 108.574Z" fill="#2F2E41"/>
<path d="M113.365 137.176C114.34 136.736 115.479 136.223 115.846 135.042C116.094 134.243 115.951 133.258 115.438 132.577C114.847 131.792 113.971 131.688 114.006 131.549C114.06 131.337 116.131 131.42 118.405 132.227C118.834 132.379 120.777 133.091 123.25 135.028C125.231 136.58 124.964 136.891 126.206 137.786C130.019 140.532 133.595 138.368 135.659 140.943C136.455 141.937 136.794 143.349 136.459 144.49C135.786 146.782 132.514 147.57 130.725 147.977C126.418 148.958 123.158 148.157 119.753 147.582C108.175 145.624 101.67 147.407 100.8 144.716C100.635 144.206 100.903 144.25 101.795 140.512C102.676 136.822 102.648 135.809 103.398 135.514C104.527 135.069 105.286 137.092 108.131 137.784C110.653 138.398 112.733 137.46 113.365 137.176L113.365 137.176Z" fill="#2F2E41"/>
<path d="M93.8562 178.63L90.5079 159.9L80.8398 161.97L81.7059 178.333L89.1809 184.782L93.8562 178.63Z" fill="#FFC9B8"/>
<path d="M45.5247 114.87C46.13 115.36 47.8911 117.158 50.5668 117.409C52.3928 117.58 53.8128 116.953 54.2779 116.763C60.0473 114.402 75.5554 115.156 85.6773 121.445C87.9695 122.869 89.2613 124.127 90.1231 125.733C91.345 128.009 91.1418 129.94 91.2967 134.893C91.3815 137.602 91.6771 140.301 91.7855 143.009C92.4202 158.865 94.8077 161.701 92.2167 164.881C89.342 168.41 82.8946 169.224 80.4895 166.986C79.5046 166.069 79.5976 165.013 79.1792 162.461C77.9523 154.978 75.6027 154.606 74.8954 149.033C74.0696 142.527 76.8202 139.471 75.0415 138.07C73.392 136.77 70.7094 139.148 64.427 140.455C61.5523 141.053 59.805 141.036 54.4086 141.092C33.3937 141.308 32.693 141.852 29.273 140.682C27.7767 140.17 17.1566 136.536 16.6181 130.444C15.7753 120.91 40.0712 110.452 45.5247 114.87L45.5247 114.87V114.87Z" fill="#2F2E41"/>
<path d="M88.7828 178.893C89.8351 179.079 91.0655 179.296 92.0297 178.525C92.6822 178.004 93.1153 177.108 93.0719 176.256C93.0219 175.273 92.3551 174.693 92.4622 174.598C92.6253 174.454 94.2927 175.689 95.7226 177.637C95.9925 178.005 97.2019 179.69 98.1638 182.685C98.9345 185.086 98.5398 185.193 99.0669 186.633C100.685 191.054 104.855 191.278 105.121 194.572C105.224 195.843 104.715 197.202 103.799 197.958C101.96 199.475 98.8105 198.283 97.1028 197.612C92.9898 195.997 90.74 193.497 88.2452 191.103C79.7607 182.959 73.3803 180.769 74.1661 178.052C74.3148 177.537 74.512 177.724 77.3426 175.134C80.1363 172.578 80.6794 171.723 81.4656 171.901C82.6492 172.17 82.1446 174.271 84.1116 176.447C85.8547 178.376 88.101 178.772 88.7828 178.893H88.7828Z" fill="#2F2E41"/>
<path d="M18.3904 49.8163C18.8914 48.0181 18.2621 47.3628 18.9035 46.5557C18.9035 46.5556 19.1616 46.2308 21.4689 45.3544C20.7881 41.391 21.2979 40.7208 21.2979 40.7208C21.8853 39.9484 23.0621 39.7617 23.8633 39.8627C25.5577 40.0764 25.8576 41.6133 26.9418 41.5788C28.4395 41.5312 30.2358 38.5229 29.6783 35.9156C29.2235 33.7887 27.2624 32.2092 26.7708 32.4833C26.2834 32.755 24.5288 31.5567 23.8633 31.7968C23.4089 31.9608 21.2698 31.7427 20.7848 31.9684C20.2551 32.215 18.7382 33.7503 18.5932 33.5568C17.5854 32.2126 17.6069 31.7433 17.0222 31.4536C15.9861 30.9402 14.8597 31.8891 12.9175 32.8265C8.92126 34.7553 7.75111 33.6047 5.90526 35.2291C4.97283 36.0497 4.47282 37.6179 3.51085 40.7208C2.16555 45.0601 1.49291 47.2298 2.14262 49.3015C2.80521 51.4142 3.78096 50.9544 5.22115 53.9351C6.8243 57.2531 6.27176 59.1817 7.78658 59.9416C8.95735 60.5288 10.8388 60.1551 11.5492 59.0835C12.7655 57.2488 9.62185 54.767 10.6941 51.8757C11.3523 50.1009 13.3826 48.7551 14.6277 49.1299C16.0356 49.5536 16.1393 52.0865 17.0222 52.0473C17.7782 52.0137 18.3031 50.1297 18.3904 49.8163L18.3904 49.8163L18.3904 49.8163Z" fill="#2F2E41"/>
<path d="M8.64132 62.1726C11.2747 59.2098 22.001 62.2763 23.0078 66.9777C23.4219 68.9115 21.8931 69.728 22.3236 71.9546C22.9533 75.2112 26.5185 74.9892 29.1648 78.3043C32.9218 83.0107 29.0513 87.6114 33.2695 95.4657C34.1709 97.1441 34.9306 98.5586 36.519 99.9277C40.1642 103.069 43.5565 101.992 45.4126 104.905C46.8005 107.083 46.2303 109.767 46.0967 110.396C45.5489 112.975 44.0643 113.603 43.0182 115.716C41.2776 119.232 43.2483 121.813 43.3602 126.013C43.5002 131.268 40.717 138.553 35.1508 140.943C28.8975 143.629 21.3555 139.181 17.7058 134.765C15.5281 132.13 14.8959 129.7 13.9432 126.7C9.68525 113.291 7.27971 114.504 4.02352 103.875C0.3011 91.7241 -0.43068 77.4888 4.02352 72.9842C4.6139 72.3872 6.23865 71.0072 7.27307 68.5223C8.66502 65.1785 7.4625 63.4988 8.6413 62.1725H8.64132V62.1726Z" fill="#E6E6E6"/>
<path d="M47.5525 131.141C49.5941 133.744 49.9106 136.911 48.2595 138.214C46.6084 139.518 43.6155 138.464 41.5734 135.86C40.7435 134.831 40.1712 133.618 39.9044 132.321L31.3926 121.183L35.7908 117.817L44.5159 128.68C45.7094 129.245 46.7507 130.089 47.5525 131.141H47.5525H47.5525Z" fill="#FFC9B8"/>
<path d="M16.3789 73.4638C16.7576 73.3789 20.0715 72.6895 22.6769 74.7128C25.6697 77.037 25.5248 81.2301 25.4739 82.7008C25.3565 86.0981 24.0297 86.6522 23.2404 89.9847C21.7636 96.2194 24.5759 102.013 26.1297 105.215C26.6675 106.323 28.3953 109.713 31.8348 113.364C38.524 120.466 44.4925 124.203 44.4925 124.203L38.0807 129.922C38.0807 129.922 27.8673 126.798 20.9467 120.54C13.8478 114.12 2.93095 91.4069 0.667858 85.874C0.472963 85.3976 3.23364 93.144 8.50478 81.7961C9.70711 79.2077 11.9101 74.4651 16.3789 73.4638H16.3789Z" fill="#E6E6E6"/>
<path d="M104.293 247.585C100.217 248.212 97.2363 250.83 97.6343 253.433C98.0322 256.035 101.658 257.636 105.735 257.009C107.367 256.78 108.921 256.163 110.266 255.209L127.501 252.334L126.351 245.498L109.155 247.94C107.586 247.434 105.919 247.312 104.293 247.585H104.293Z" fill="#FFC9B8"/>
<path d="M178.56 226.278L171.877 240.507L138.282 251.855L110.405 253.347L109.707 246.628L139.919 240.29L170.921 225.589L178.56 226.278Z" fill="#E6E6E6"/>
<path d="M116.599 280.306L110.599 295.534L102.835 290.222L107.423 274.286L116.599 280.306Z" fill="#FFC9B8"/>
<path d="M91.5408 274.64L75.6592 289.867L82.0118 296.596L98.2464 283.847L91.5408 274.64Z" fill="#FFC9B8"/>
<path d="M181.537 225.061L181.36 223.822L177.302 215.854L163.891 219.395L166.361 230.373L181.537 225.061Z" fill="#FFC9B8"/>
<path d="M175.891 278.181L176.303 283.5C176.303 283.5 178.008 305.803 164.244 307.574C150.48 309.345 144.48 311.115 136.363 297.304L123.658 274.64L116.236 283.5L106.364 275.702C106.364 275.702 113.423 248.08 119.07 247.017C119.775 246.885 120.481 246.818 121.176 246.804C125.851 246.706 130.258 249 133.055 252.76L149.068 274.286L154.891 271.63L175.891 278.181V278.181Z" fill="#2F2E41"/>
<path d="M99.6585 294.825L102.835 288.805L112.011 295.179C112.011 295.179 114.128 302.97 110.952 304.033C107.776 305.095 98.9527 303.679 98.9527 303.679C98.9527 303.679 82.7181 307.22 82.3652 304.033C82.0123 300.846 89.7766 300.137 89.7766 300.137L99.6585 294.825L99.6586 294.825H99.6585Z" fill="#2F2E41"/>
<path d="M134.245 290.576L109.717 275.068L97.188 286.326L88.7178 276.41C88.7178 276.41 104.246 253.392 108.834 252.329C113.423 251.267 120.834 250.559 120.834 250.559L143.421 271.453L134.245 290.576V290.576Z" fill="#2F2E41"/>
<path d="M75.3065 288.451L83.4237 297.304L82.3533 298.223C82.3533 298.223 80.2474 307.426 75.3065 304.313C70.3655 301.2 70.0126 300.491 70.0126 300.491C70.0126 300.491 55.8956 303.679 54.4839 298.012C53.0722 292.346 56.9544 293.409 56.9544 293.409L60.4794 295.534L75.3065 288.451L75.3065 288.451Z" fill="#2F2E41"/>
<path d="M168.126 223.291C174.363 223.291 179.419 218.217 179.419 211.958C179.419 205.7 174.363 200.626 168.126 200.626C161.888 200.626 156.832 205.7 156.832 211.958C156.832 218.217 161.888 223.291 168.126 223.291Z" fill="#FFC9B8"/>
<path d="M165.479 228.071L181.714 223.113C181.714 223.113 188.066 237.987 187.007 244.716C185.949 251.444 176.303 283.5 176.303 283.5L154.891 271.63C154.891 271.63 154.538 264.547 153.48 261.36C152.421 258.173 149.068 248.434 156.479 240.289C163.891 232.144 165.479 228.071 165.479 228.071L165.479 228.071Z" fill="#E6E6E6"/>
<path d="M129.747 302.433C127.105 305.609 126.597 309.551 128.611 311.238C130.626 312.925 134.4 311.717 137.043 308.54C138.116 307.285 138.874 305.791 139.253 304.182L150.279 290.582L144.908 286.221L133.626 299.47C132.116 300.133 130.786 301.148 129.747 302.433L129.747 302.433Z" fill="#FFC9B8"/>
<path d="M177.931 235.216L181.768 250.467L162.987 280.634L143.815 299.968L137.601 294.795L156.936 270.654L171.593 239.55L177.931 235.216Z" fill="#E6E6E6"/>
<path d="M157.714 210.011C160.611 210.004 160.775 210.023 161.243 210.011C164.836 209.915 165.775 208.497 167.596 208.594C170.846 208.767 166.557 225.116 164.773 232.675C163.023 240.088 168.936 246.731 169.361 247.194C175.362 253.744 185.904 254.941 187.713 252.152C189.177 249.895 183.988 246.462 185.242 241.528C186.468 236.705 192.13 237.219 193.713 232.675C195.37 227.917 189.8 225.517 186.301 213.906C184.292 207.238 184.647 205.996 182.772 201.866C177.76 190.826 153.192 195.526 155.95 205.761C156.483 207.741 155.063 210.017 157.714 210.011V210.011Z" fill="#2F2E41"/>
<path d="M193.778 75.4822H75.0845C71.7278 75.4822 68.9971 72.7418 68.9971 69.3739V6.10822C68.9971 2.74034 71.7278 0 75.0845 0H193.778C197.135 0 199.866 2.74033 199.866 6.10822V69.3739C199.866 72.7418 197.135 75.4822 193.778 75.4822Z" fill="white"/>
<path d="M193.778 75.4822H75.0845C71.7278 75.4822 68.9971 72.7418 68.9971 69.3739V6.10822C68.9971 2.74034 71.7278 0 75.0845 0H193.778C197.135 0 199.866 2.74033 199.866 6.10822V69.3739C199.866 72.7418 197.135 75.4822 193.778 75.4822ZM75.0845 1.02003C72.2885 1.02003 70.0136 3.30264 70.0136 6.10822V69.3739C70.0136 72.1795 72.2885 74.4621 75.0845 74.4621H193.778C196.574 74.4621 198.849 72.1795 198.849 69.3739V6.10822C198.849 3.30264 196.574 1.02003 193.778 1.02003H75.0845Z" fill="#3F3D56"/>
<path d="M184.618 7.65022C185.46 7.65022 186.142 6.96519 186.142 6.12018C186.142 5.27516 185.46 4.59013 184.618 4.59013C183.775 4.59013 183.093 5.27516 183.093 6.12018C183.093 6.96519 183.775 7.65022 184.618 7.65022Z" fill="#3F3D56"/>
<path d="M188.684 7.65022C189.526 7.65022 190.209 6.96519 190.209 6.12018C190.209 5.27516 189.526 4.59013 188.684 4.59013C187.842 4.59013 187.159 5.27516 187.159 6.12018C187.159 6.96519 187.842 7.65022 188.684 7.65022Z" fill="#3F3D56"/>
<path d="M192.749 7.65022C193.592 7.65022 194.274 6.96519 194.274 6.12018C194.274 5.27516 193.592 4.59013 192.749 4.59013C191.907 4.59013 191.225 5.27516 191.225 6.12018C191.225 6.96519 191.907 7.65022 192.749 7.65022Z" fill="#3F3D56"/>
<path d="M77.6374 30.8559C77.217 30.8559 76.875 31.1991 76.875 31.6209C76.875 31.8266 76.9542 32.0169 77.0979 32.1573C77.2428 32.3062 77.4326 32.3859 77.6374 32.3859H191.733C192.153 32.3859 192.495 32.0428 192.495 31.6209C192.495 31.4152 192.416 31.225 192.273 31.0845C192.128 30.9356 191.938 30.8559 191.733 30.8559H77.6374Z" fill="#E6E6E6"/>
<path d="M177.501 30.6009V32.6409H77.6376C77.3581 32.6409 77.104 32.5287 76.921 32.34C76.7329 32.1564 76.6211 31.9014 76.6211 31.6209C76.6211 31.0599 77.0785 30.6009 77.6376 30.6009H177.501Z" fill="#BFDAA2"/>
<path d="M190.462 26.7758H180.297C179.176 26.7758 178.264 25.8608 178.264 24.7357C178.264 23.6106 179.176 22.6956 180.297 22.6956H190.462C191.583 22.6956 192.495 23.6106 192.495 24.7357C192.495 25.8608 191.583 26.7758 190.462 26.7758Z" fill="#E6E6E6"/>
<path d="M123.879 16.0655H78.4003C77.2792 16.0655 76.3672 15.1505 76.3672 14.0254C76.3672 12.9003 77.2793 11.9854 78.4003 11.9854H123.879C125 11.9854 125.912 12.9003 125.912 14.0254C125.912 15.1505 125 16.0655 123.879 16.0655Z" fill="#E6E6E6"/>
<path d="M77.6374 53.8065C77.217 53.8065 76.875 54.1497 76.875 54.5716C76.875 54.7773 76.9542 54.9675 77.0979 55.108C77.2428 55.2569 77.4326 55.3366 77.6374 55.3366H191.733C192.153 55.3366 192.495 54.9934 192.495 54.5716C192.495 54.3659 192.416 54.1756 192.273 54.0352C192.128 53.8862 191.938 53.8065 191.733 53.8065H77.6374Z" fill="#E6E6E6"/>
<path d="M138.364 53.5515V55.5916H77.6376C77.3581 55.5916 77.104 55.4794 76.921 55.2907C76.7329 55.1071 76.6211 54.8521 76.6211 54.5716C76.6211 54.0105 77.0785 53.5515 77.6376 53.5515H138.364Z" fill="#BFDAA2"/>
<path d="M190.462 49.7264H180.297C179.176 49.7264 178.264 48.8115 178.264 47.6864C178.264 46.5613 179.176 45.6463 180.297 45.6463H190.462C191.583 45.6463 192.495 46.5613 192.495 47.6864C192.495 48.8115 191.583 49.7264 190.462 49.7264Z" fill="#E6E6E6"/>
</svg>
