<svg width="314" height="198" viewBox="0 0 314 198" fill="none" xmlns="http://www.w3.org/2000/svg">
<g clip-path="url(#clip0_115_5630)">
<g opacity="0.2">
<path d="M264.696 171.117C262.534 172.415 260.328 173.672 258.079 174.888C257.73 175.076 257.381 175.265 257.032 175.458C255.342 176.361 253.626 177.239 251.883 178.092C251.896 177.955 251.913 177.819 251.934 177.682C252.134 176.266 252.577 174.894 253.245 173.628C253.558 173.023 253.932 172.45 254.36 171.918C256.062 169.8 258.425 168.617 260.84 168.962C262.345 169.192 263.715 169.958 264.696 171.117Z" fill="#3F3D56"/>
<path d="M268.662 167.876C268.619 168.181 268.564 168.48 268.498 168.777C267.249 169.577 265.982 170.357 264.696 171.117C262.534 172.415 260.328 173.672 258.079 174.888C257.73 175.076 257.381 175.265 257.032 175.458C256.613 175.151 256.229 174.799 255.888 174.407C255.248 173.67 254.735 172.833 254.369 171.93C253.604 169.958 253.361 167.823 253.661 165.73C253.962 163.637 254.796 161.657 256.085 159.977C257.802 157.86 260.151 156.677 262.565 157.021C264.98 157.366 266.914 159.165 267.949 161.673C268.736 163.641 268.982 165.782 268.662 167.876Z" fill="#3F3D56"/>
<path d="M270.396 155.933C271.175 150.533 268.45 145.673 264.308 145.08C260.167 144.487 256.178 148.385 255.399 153.786C254.62 159.186 257.345 164.046 261.487 164.639C265.628 165.232 269.617 161.334 270.396 155.933Z" fill="#3F3D56"/>
<path d="M313.625 56.0547C312.888 61.2207 311.034 66.1654 308.189 70.5465L286.905 67.3369L306.141 73.3827C305.099 74.6934 303.968 75.9314 302.757 77.0884C306.825 84.1083 308.408 92.2869 307.251 100.311C306.094 108.335 302.265 115.739 296.377 121.333C299.819 127.25 301.497 134.021 301.215 140.854C292.166 151.346 281.126 160.758 268.507 168.788C267.252 169.581 265.982 170.357 264.696 171.117C262.534 172.415 260.328 173.672 258.079 174.888C257.338 174.746 256.609 174.583 255.888 174.395C254.993 174.17 254.114 173.908 253.253 173.617C247.353 171.611 242.071 168.124 237.917 163.492C233.763 158.861 230.876 153.241 229.536 147.174C228.196 141.108 228.447 134.8 230.265 128.858C232.083 122.916 235.407 117.542 239.916 113.252C239.55 112.623 239.204 111.984 238.878 111.334C238.78 111.146 238.689 110.958 238.592 110.764C235.948 105.272 234.747 99.2005 235.101 93.1195L235.144 92.4895C235.17 92.1503 235.201 91.8082 235.236 91.469C235.287 90.9901 235.347 90.5084 235.416 90.0267V89.9811C235.976 86.0932 237.172 82.3232 238.958 78.8214L264.908 91.8424L241.246 74.9448C242.706 72.7903 244.394 70.7987 246.281 69.0044C243.814 64.7074 242.259 59.9514 241.712 55.031C241.166 50.1107 241.639 45.1308 243.103 40.4002C244.567 35.6695 246.99 31.2888 250.223 27.5296C253.456 23.7704 257.429 20.7127 261.896 18.5462C266.363 16.3796 271.229 15.1502 276.193 14.9343C281.157 14.7183 286.112 15.5204 290.752 17.2908C295.392 19.0612 299.617 21.7622 303.166 25.2264C306.715 28.6906 309.513 32.8441 311.385 37.4296L282.242 52.9619L312.956 42.2812C314.066 46.7866 314.293 51.4633 313.625 56.0547Z" fill="#BFDAA2"/>
<path opacity="0.1" d="M301.206 140.842C292.157 151.335 281.118 160.747 268.498 168.777C267.249 169.577 265.982 170.357 264.696 171.117C262.534 172.415 260.328 173.672 258.079 174.888C257.338 174.746 256.609 174.583 255.888 174.395C254.993 174.17 254.114 173.908 253.253 173.617C247.353 171.611 242.071 168.124 237.917 163.492C233.763 158.861 230.876 153.241 229.536 147.174C228.196 141.108 228.447 134.8 230.265 128.858C232.083 122.916 235.407 117.542 239.916 113.252C239.55 112.623 239.204 111.984 238.878 111.334C238.78 111.146 238.689 110.958 238.592 110.764C235.948 105.272 234.747 99.2005 235.101 93.1195L235.144 92.4895C235.17 92.1503 235.201 91.8082 235.236 91.469C235.287 90.9902 235.347 90.5084 235.416 90.0267V89.9811C235.639 89.2115 238.592 89.8585 243.089 91.4063L244.039 91.7427C245.034 92.099 246.095 92.4924 247.211 92.9228C249.646 93.8577 252.335 94.9609 255.173 96.1809L255.359 96.2607L255.754 96.4317C274.835 104.675 299.936 117.902 296.337 121.316C299.791 127.231 301.48 134.005 301.206 140.842Z" fill="black"/>
</g>
<g opacity="0.2">
<path d="M91.2343 187.114C90.0328 186.7 88.8398 186.274 87.6555 185.837C84.8976 184.826 82.1827 183.757 79.5107 182.63C80.0525 182.192 80.6674 181.853 81.3274 181.627C83.7104 180.812 86.3281 181.59 88.4594 183.465C89.6097 184.494 90.5517 185.732 91.2343 187.114Z" fill="#3F3D56"/>
<path d="M88.4595 183.465C88.2974 184.288 88.0271 185.085 87.6556 185.837C84.8978 184.826 82.1829 183.757 79.5109 182.63C77.186 181.655 74.8973 180.638 72.6449 179.577C72.5465 178.897 72.5025 178.21 72.5133 177.522C72.5229 176.806 72.5996 176.092 72.7422 175.39C73.3144 172.588 74.9336 170.356 77.3195 169.541C79.7054 168.726 82.3202 169.504 84.4515 171.382C84.9676 171.838 85.4407 172.34 85.8648 172.882C86.8042 174.087 87.5281 175.445 88.0046 176.895C88.7269 179.009 88.8837 181.273 88.4595 183.465Z" fill="#3F3D56"/>
<path d="M79.7265 177.278C83.8423 175.982 85.768 170.483 84.0276 164.997C82.2873 159.51 77.5399 156.114 73.424 157.41C69.3082 158.706 67.3825 164.204 69.1229 169.691C70.8633 175.177 75.6107 178.574 79.7265 177.278Z" fill="#3F3D56"/>
<path d="M75.1274 164.624C79.2281 163.334 81.148 157.857 79.4155 152.39C77.6831 146.924 72.9544 143.539 68.8537 144.829C64.753 146.119 62.8331 151.597 64.5656 157.063C66.298 162.529 71.0267 165.915 75.1274 164.624Z" fill="#3F3D56"/>
<path d="M85.8502 172.882C85.0548 173.345 84.2386 173.779 83.4013 174.184C82.0517 174.838 80.6636 175.409 79.2445 175.895C77.9497 176.34 76.6307 176.712 75.2938 177.009C74.3649 177.218 73.4352 177.388 72.5045 177.519C71.3487 177.685 70.1958 177.793 69.0457 177.844C55.2223 171.003 42.8121 162.634 32.2213 153.076C32.0697 152.672 31.9353 152.264 31.7894 151.851C29.0744 143.74 29.1207 134.963 31.921 126.881C24.8391 122.143 19.5504 115.181 16.896 107.104C15.5755 103.151 14.8994 99.0129 14.8934 94.8469H44.8547L15.1852 90.1208C15.5148 87.403 16.1323 84.7276 17.0276 82.1394C9.94525 77.4032 4.65634 70.4427 2.00257 62.3657C-4.65168 42.381 5.81032 20.7487 25.3697 14.0386C38.4636 9.55198 52.3128 12.8984 62.0367 21.5924L42.5403 50.0288L65.7529 25.4234C68.8937 29.1598 71.2936 33.4565 72.8249 38.0853C74.5709 43.3135 75.1832 48.8514 74.6215 54.333L53.5573 61.3737L74.0693 57.9731C73.7276 59.6974 73.2678 61.3965 72.6933 63.0583C79.775 67.7952 85.0637 74.7555 87.7183 82.8321C89.0041 86.6796 89.6798 90.7035 89.7208 94.7585V94.7899C89.7208 95.1034 89.7208 95.417 89.7208 95.7305C89.7208 95.8645 89.7208 95.9956 89.7208 96.1296C89.6208 100.111 88.9058 104.053 87.601 107.817C90.4791 109.738 93.0782 112.045 95.3252 114.672C95.3824 114.735 95.4367 114.797 95.4882 114.863C98.6566 118.614 101.076 122.934 102.615 127.59C108.471 145.178 101.058 164.048 85.8502 172.882Z" fill="#BFDAA2"/>
<path opacity="0.1" d="M85.8503 172.882C85.055 173.345 84.2387 173.779 83.4014 174.184C82.0518 174.838 80.6637 175.409 79.2446 175.895C77.9498 176.34 76.6308 176.712 75.2939 177.009C74.3651 177.218 73.4353 177.388 72.5046 177.519C71.3488 177.685 70.1959 177.793 69.0458 177.844C55.2224 171.003 42.8122 162.634 32.2215 153.076C32.0698 152.672 31.9354 152.264 31.7895 151.851C29.0746 143.74 29.1208 134.963 31.9211 126.881C24.8392 122.143 19.5505 115.181 16.8961 107.104C15.869 104.02 58.6983 101.531 78.2062 103.917L78.661 103.974C84.5829 104.735 88.219 105.969 87.5868 107.797C90.4649 109.718 93.064 112.025 95.311 114.652C95.3682 114.715 95.4225 114.777 95.474 114.843C98.6424 118.594 101.061 122.914 102.6 127.57C108.471 145.178 101.058 164.048 85.8503 172.882Z" fill="black"/>
</g>
<path opacity="0.1" d="M109.343 66.0342C109.499 65.8135 109.584 65.5514 109.589 65.2817C109.589 63.6427 106.239 62.3172 102.108 62.3172C97.9769 62.3172 94.6326 63.6541 94.6326 65.2817C94.6384 65.5924 94.7459 65.8927 94.9387 66.1368C90.3414 66.6471 87.2432 67.6077 87.2432 68.7023C87.2432 70.3384 94.1091 71.6639 102.563 71.6639C111.017 71.6639 117.882 70.3384 117.882 68.7023C117.88 67.5279 114.401 66.5188 109.343 66.0342Z" fill="#BFDAA2"/>
<path opacity="0.1" d="M228.044 5.90334C228.291 5.55087 228.428 5.13317 228.436 4.70329C228.436 2.1065 223.121 0 216.564 0C210.007 0 204.691 2.1065 204.691 4.70329C204.703 5.19024 204.875 5.65986 205.18 6.04016C197.88 6.85255 192.962 8.37471 192.962 10.1192C192.962 12.716 203.833 14.8225 217.279 14.8225C230.725 14.8225 241.596 12.716 241.596 10.1192C241.596 8.26924 236.072 6.67012 228.044 5.90334Z" fill="#BFDAA2"/>
<path opacity="0.1" d="M132.779 5.90334C133.027 5.55087 133.163 5.13317 133.171 4.70329C133.171 2.1065 127.856 0 121.299 0C114.742 0 109.427 2.1065 109.427 4.70329C109.438 5.19024 109.61 5.65986 109.916 6.04016C102.615 6.85255 97.6973 8.37471 97.6973 10.1192C97.6973 12.716 108.583 14.8225 122.014 14.8225C135.446 14.8225 146.331 12.716 146.331 10.1192C146.331 8.26924 140.807 6.67012 132.779 5.90334Z" fill="#BFDAA2"/>
<path opacity="0.1" d="M102.681 30.4574C103.35 30.0725 104.248 30.4403 104.706 31.0588C105.164 31.6774 105.295 32.4841 105.41 33.2337C105.664 34.9184 105.848 36.8538 104.709 38.1252C106.571 32.4898 111.935 28.1713 117.869 27.5413" stroke="#6C63FF" stroke-width="3" stroke-miterlimit="10"/>
<path opacity="0.1" d="M177.482 2.51698C177.912 2.26899 178.492 2.51698 178.787 2.90179C179.049 3.32488 179.203 3.80535 179.236 4.30138C179.399 5.38456 179.522 6.62737 178.787 7.43691C179.415 5.62781 180.541 4.03086 182.035 2.82793C183.53 1.62499 185.333 0.864415 187.241 0.632812" stroke="#6C63FF" stroke-width="3" stroke-miterlimit="10"/>
<path opacity="0.1" d="M226.688 55.2509C227.117 55.0029 227.697 55.2509 227.992 55.6357C228.254 56.0588 228.408 56.5392 228.441 57.0353C228.604 58.1184 228.727 59.3613 227.992 60.1708C228.62 58.3617 229.746 56.7648 231.24 55.5618C232.735 54.3589 234.539 53.5983 236.446 53.3667" stroke="#6C63FF" stroke-width="3" stroke-miterlimit="10"/>
<path d="M156.538 18.5252C155.313 19.5457 154.449 20.8541 153.105 21.7748C151.485 22.8865 149.36 23.3084 147.383 23.9041C145.406 24.4999 143.378 25.4348 142.582 27.0567C141.907 28.4449 142.296 30.0554 141.724 31.475C141.109 32.9829 139.513 34.0404 138.291 35.2576C135.877 37.6577 134.804 40.9585 135.43 44.037C135.862 46.1663 137.044 48.1332 137.745 50.2112C138.603 52.7538 138.723 55.419 138.843 58.0557C139.067 63.007 139.287 68.0067 138.168 72.8782C137.882 74.101 137.11 92.6947 135.614 92.6577C139.584 92.3185 143.578 92.2814 147.569 92.2415L207.36 91.6714C204.605 88.0798 202.845 66.8551 202.262 62.6222C201.255 55.3249 203.692 48.0192 203.978 40.6735C204.018 39.7271 204.018 38.7551 203.626 37.8657C203.215 36.9336 202.391 36.1384 202.116 35.172C201.721 33.7896 202.514 32.3729 202.539 30.9533C202.591 28.1029 199.679 25.9165 197.37 23.8043C195.144 21.7719 193.293 19.4631 190.996 17.482C188.699 15.5009 185.812 13.822 182.528 13.517C179.83 13.269 177.15 13.9673 174.566 14.6571C171.485 15.4781 168.559 16.5157 165.289 16.4643C161.681 16.4016 159.458 16.7009 156.538 18.5252Z" fill="#2F2E41"/>
<g opacity="0.1">
<path d="M197.722 29.7533C197.805 30.0651 197.926 30.3657 198.082 30.6483C198.044 30.0069 197.888 29.378 197.622 28.7927C197.609 29.116 197.643 29.4394 197.722 29.7533Z" fill="black"/>
<path d="M139.736 75.5234L139.404 75.5519C139.516 75.5543 139.627 75.5447 139.736 75.5234Z" fill="black"/>
</g>
<path d="M201.825 178.243C201.46 178.525 201.025 178.701 200.566 178.754C193.251 180.25 185.87 181.527 178.412 181.932C171.832 182.291 165.232 181.969 158.65 181.647C152.067 181.325 145.49 181 139.064 179.674C141.727 174.333 143.403 168.558 144.014 162.626C144.284 160.022 144.35 157.401 144.211 154.787C144.19 154.472 144.152 154.159 144.097 153.849C143.791 151.973 143.035 149.257 143.722 147.9C144.603 146.155 147.987 146.098 149.641 145.774C152.45 145.223 155.274 144.764 158.109 144.38C169.36 142.855 180.726 142.507 192.064 142.168C193.586 142.122 195.4 142.225 196.192 143.522C196.635 144.248 196.613 145.155 196.59 146.007C196.538 147.852 196.556 149.698 196.644 151.543C197.042 159.725 198.799 167.784 201.845 175.393C202.223 176.325 202.569 177.545 201.825 178.243Z" fill="#FFC9B8"/>
<path d="M157.311 76.7349C156.115 78.2029 154.43 79.1892 152.733 80.0557C150.707 81.0989 148.619 82.0203 146.482 82.815C146.05 83.4677 146.394 84.3343 146.768 85.0298C150.124 91.5232 154.616 97.9767 161.39 100.767C164.866 102.193 168.679 102.549 172.427 102.882C173.594 102.985 174.784 103.088 175.923 102.808C177.062 102.529 178.12 101.853 179.07 101.138C185.277 96.458 189.364 89.5135 190.433 81.8316C190.525 81.1503 190.525 80.3151 189.938 79.9502C189.581 79.7308 189.126 79.7735 188.705 79.7764C185.962 79.8049 183.53 77.781 182.263 75.361C180.995 72.9409 180.658 70.1503 180.346 67.4338C180.346 67.3739 164.217 67.0347 162.76 67.0233C160.489 67.0034 159.739 67.2685 159.519 69.5888C159.287 72.1485 159.001 74.6484 157.311 76.7349Z" fill="#FFC9B8"/>
<path opacity="0.1" d="M157.311 76.7349C156.115 78.2029 154.43 79.1892 152.733 80.0557C150.707 81.0989 148.619 82.0203 146.482 82.815C146.05 83.4677 146.394 84.3343 146.768 85.0298C150.124 91.5232 154.616 97.9767 161.39 100.767C164.866 102.193 168.679 102.549 172.427 102.882C173.594 102.985 174.784 103.088 175.923 102.808C177.062 102.529 178.12 101.853 179.07 101.138C185.277 96.458 189.364 89.5135 190.433 81.8316C190.525 81.1503 190.525 80.3151 189.938 79.9502C189.581 79.7308 189.126 79.7735 188.705 79.7764C185.962 79.8049 183.53 77.781 182.263 75.361C180.995 72.9409 180.658 70.1503 180.346 67.4338C180.346 67.3739 164.217 67.0347 162.76 67.0233C160.489 67.0034 159.739 67.2685 159.519 69.5888C159.287 72.1485 159.001 74.6484 157.311 76.7349Z" fill="black"/>
<path d="M170.13 73.6991C182.296 73.6991 192.158 63.8724 192.158 51.7505C192.158 39.6285 182.296 29.8018 170.13 29.8018C157.964 29.8018 148.102 39.6285 148.102 51.7505C148.102 63.8724 157.964 73.6991 170.13 73.6991Z" fill="#FFC9B8"/>
<path d="M186.285 77.7725C186.528 80.851 153.323 83.7328 152.07 79.936C151.326 80.8111 149.961 80.8824 148.874 80.5061C147.787 80.1298 146.871 79.4058 145.842 78.8728C144.125 77.9806 142.191 77.6499 140.289 77.3278C137.19 76.8062 133.592 76.4242 131.297 78.5649C130.505 79.3032 129.964 80.2752 129.169 81.0163C127.778 82.3047 125.813 82.7067 124.019 83.2967C121.43 84.1519 119.044 85.5201 116.598 86.7173C110.887 89.5192 104.798 91.4799 98.5208 92.538C97.1848 92.7631 95.8402 92.9456 94.5157 93.262C92.6562 93.7067 90.7966 94.4677 89.5293 95.8958C91.0112 97.7828 93.1396 98.8119 95.4254 99.5558L117.482 106.739C120.801 107.819 124.171 108.923 127.075 110.858C131.912 114.073 135.059 119.358 136.781 124.891C138.504 130.424 138.947 136.261 139.376 142.039C139.562 144.551 139.731 147.17 138.741 149.496C143.879 150.099 149.074 150.014 154.189 149.243C159.113 148.496 163.982 147.11 168.963 147.156C174.398 147.21 179.665 148.966 185.023 149.915C190.382 150.864 196.295 150.893 200.809 147.863C199.848 146.572 199.702 144.727 199.665 143.125L199.55 135.535C199.499 134.618 199.561 133.699 199.734 132.798C200.117 131.173 201.195 129.811 201.885 128.292C203.215 125.358 203.029 122.006 203.104 118.788C203.178 115.57 203.63 112.112 205.813 109.758C207.243 108.221 209.246 107.349 211.277 106.81C214.75 105.887 218.383 105.827 221.971 105.573C233.667 104.738 245.109 101.769 255.728 96.8137C255.093 95.4768 253.617 94.7186 252.27 94.0972C249.083 92.6292 245.707 91.1241 242.211 91.4519C240.52 91.6116 238.847 92.1988 237.162 91.985C235.565 91.7797 234.152 90.879 232.601 90.4486C231.426 90.1236 230.195 90.0751 228.988 89.8927C226.202 89.468 223.587 88.325 221.009 87.1933L214.498 84.3428C212.782 83.5875 210.994 82.7808 209.815 81.3213C209.432 80.8453 209.123 80.3094 208.705 79.8619C207.987 79.0951 206.989 78.6419 205.99 78.3255C204.736 77.8905 203.399 77.7443 202.079 77.8979C201.175 78.077 200.281 78.3102 199.405 78.5963C195.102 79.7536 190.662 78.5507 186.285 77.7725Z" fill="#BFDAA2"/>
<path d="M211.479 192.576C199.754 195.384 187.81 197.196 175.777 197.991H175.756H145.543H145.526C140.119 197.625 134.791 197.064 129.54 196.31C131.089 191.714 133.225 187.336 135.894 183.283C136.321 182.709 136.655 182.073 136.884 181.396C137.01 180.766 137.074 180.126 137.075 179.483C137.215 177.516 137.98 175.645 139.261 174.141C139.856 174.465 140.457 174.775 141.063 175.074C147.935 178.474 155.418 180.475 163.074 180.96C167.102 181.166 171.14 181.085 175.156 180.718C184.213 179.991 193.631 178.315 200.926 172.993C201.232 172.77 201.535 172.54 201.836 172.303C205.38 175.438 207.431 180.244 208.899 184.737C209.772 187.365 210.578 189.987 211.479 192.576Z" fill="#2F2E41"/>
<path opacity="0.1" d="M170.009 174.441C169.866 174.901 169.832 175.388 169.907 175.864C169.982 176.339 170.166 176.792 170.444 177.186C170.63 176.774 170.685 176.315 170.602 175.871C170.519 175.427 170.302 175.018 169.98 174.7L170.009 174.441Z" fill="black"/>
<path d="M157.493 82.2962C158.603 81.6919 159.802 81.156 161.066 81.1389C162.966 81.1218 164.665 82.2791 166.073 83.5561C167.374 84.7271 168.551 86.028 169.586 87.4384C170.101 88.1368 170.593 88.9036 170.67 89.7673C170.747 90.631 170.273 91.603 169.426 91.8082C168.891 91.8981 168.342 91.7874 167.884 91.4975C165.927 90.4257 164.477 87.9715 162.257 88.2109C160.735 88.3734 159.705 89.7844 158.872 91.0614C158.131 92.2016 157.382 93.3731 157.05 94.69C156.718 96.007 156.878 97.5405 157.799 98.5325C158.515 99.3107 159.559 99.6727 160.534 100.077C162.692 100.967 164.667 102.245 166.362 103.846C167.183 104.627 167.964 105.556 168.078 106.696C168.193 107.836 167.326 109.091 166.193 109.011C165.682 108.931 165.201 108.722 164.794 108.404C162.746 107.055 160.655 105.642 158.251 105.146C155.805 104.641 153.279 105.146 150.813 105.522C148.109 105.925 145.391 106.212 142.66 106.383C141.849 106.475 141.029 106.422 140.237 106.226C137.536 105.394 136.75 101.97 137.064 99.4959C137.399 96.8507 139.353 96.2492 141.396 94.9352C147.14 91.1896 151.403 85.6027 157.493 82.2962Z" fill="#FFC9B8"/>
<path d="M178.655 82.2962C177.542 81.6919 176.346 81.156 175.079 81.1389C173.179 81.1218 171.48 82.2791 170.072 83.5561C168.772 84.7272 167.596 86.0282 166.562 87.4384C166.05 88.1368 165.558 88.9036 165.481 89.7673C165.404 90.631 165.876 91.603 166.722 91.8082C167.258 91.898 167.808 91.7873 168.267 91.4975C170.224 90.4257 171.675 87.9715 173.892 88.2109C175.416 88.3734 176.446 89.7844 177.276 91.0614C178.017 92.2016 178.769 93.3731 179.098 94.69C179.427 96.007 179.27 97.5405 178.349 98.5325C177.636 99.3107 176.589 99.6727 175.614 100.077C173.455 100.968 171.479 102.245 169.784 103.846C168.962 104.627 168.184 105.556 168.067 106.696C167.95 107.836 168.819 109.091 169.952 109.011C170.463 108.932 170.945 108.723 171.351 108.404C173.4 107.055 175.491 105.642 177.894 105.146C180.34 104.641 182.866 105.146 185.332 105.522C188.03 105.944 190.75 106.237 193.477 106.4C194.288 106.492 195.11 106.439 195.903 106.243C198.6 105.411 199.387 101.987 199.075 99.513C198.738 96.8678 196.787 96.2664 194.741 94.9523C189.008 91.1896 184.748 85.6027 178.655 82.2962Z" fill="#FFC9B8"/>
<path d="M154.899 43.8204C156.181 41.8023 157.703 39.6131 159.783 39.3794C162.686 39.0516 164.955 42.6688 167.844 43.1363C171.563 43.7406 175.219 38.9974 178.715 40.7305C180.432 41.5857 181.714 43.9573 183.579 43.9116C184.869 43.8831 185.919 42.6774 186.774 41.4944C188.218 39.5 189.495 37.3912 190.593 35.1892C187.043 31.1329 181.879 30.2065 177.059 29.4683L168.954 28.2283C167.003 27.929 165.018 27.6326 163.078 28.0459C161.325 28.4193 159.688 29.3599 158.1 30.3491C156.207 31.5349 151.752 33.439 150.591 35.6453C149.781 37.176 150.894 37.8886 151.938 39.4307C152.92 40.8939 153.907 42.3572 154.899 43.8204Z" fill="#2F2E41"/>
<path opacity="0.1" d="M142.623 93.3618C139.107 94.0612 135.517 94.3159 131.938 94.12C130.533 94.0459 129.123 93.9005 127.724 94.0316C126.036 94.1912 124.414 94.7471 122.769 95.1519C114.247 97.2413 105.341 95.2003 96.6412 94.0544C95.1049 93.852 93.5343 93.6782 92.0124 93.9746C90.6192 94.2454 89.3318 94.8953 88.0988 95.5937C86.101 96.7257 84.1887 98.0013 82.3772 99.4105C80.4804 100.887 78.5666 102.768 78.435 105.16C78.3205 107.218 79.5793 109.114 81.1041 110.513C85.2237 114.313 91.3401 115.456 96.8557 114.427C98.9527 114.036 100.998 113.364 103.118 113.13C105.289 112.89 107.484 113.13 109.666 113.027C114.101 112.831 118.346 111.294 122.652 110.225C129.375 108.557 136.33 108.014 143.232 108.618C143.172 108.643 143.107 108.656 143.042 108.654C142.977 108.652 142.912 108.635 142.854 108.605C142.796 108.576 142.745 108.534 142.705 108.482C142.665 108.43 142.637 108.37 142.623 108.307C142.117 106.916 142.091 105.402 142.1 103.923C142.122 100.334 142.291 96.9363 142.623 93.3618Z" fill="black"/>
<path d="M142.051 93.6468C138.535 94.3462 134.945 94.601 131.366 94.405C129.961 94.3309 128.551 94.1855 127.152 94.3167C125.464 94.4763 123.842 95.0321 122.197 95.4369C113.674 97.5263 104.769 95.4853 96.0689 94.3395C94.5327 94.1371 92.9621 93.9632 91.4401 94.2596C90.0469 94.5304 88.7595 95.1803 87.5265 95.8787C85.5287 97.0107 83.6165 98.2864 81.8049 99.6955C79.9082 101.172 77.9943 103.053 77.8627 105.445C77.7483 107.503 79.007 109.399 80.5318 110.798C84.6514 114.598 90.7678 115.741 96.2835 114.712C98.3805 114.321 100.426 113.649 102.546 113.415C104.717 113.175 106.911 113.415 109.094 113.312C113.528 113.116 117.774 111.579 122.079 110.51C128.803 108.842 135.758 108.299 142.66 108.903C142.6 108.928 142.535 108.941 142.47 108.939C142.404 108.937 142.34 108.92 142.282 108.89C142.224 108.861 142.173 108.819 142.133 108.767C142.093 108.715 142.065 108.656 142.051 108.592C141.544 107.201 141.519 105.687 141.527 104.208C141.55 100.619 141.719 97.2213 142.051 93.6468Z" fill="#BFDAA2"/>
<path opacity="0.1" d="M194.189 91.8367C198.549 92.8258 209.043 93.262 213.511 93.1137C215.551 93.051 217.585 92.8686 219.625 92.8743C223.121 92.8743 226.611 93.4444 230.098 93.2135C234.604 92.9057 239.03 91.2552 243.524 91.68C245.733 91.8909 247.858 92.5921 249.964 93.2933C252.069 93.9945 254.364 94.787 255.846 96.4916C257.219 98.0707 257.72 100.197 258.174 102.238C258.429 103.378 258.684 104.556 258.46 105.699C258.034 107.868 256.029 109.336 254.103 110.43C251.815 111.73 249.303 112.848 246.665 112.788C245.1 112.754 243.579 112.303 242.088 111.836C237.817 110.499 233.451 108.985 228.988 109.319C225.867 109.558 222.749 110.704 219.679 110.086C217.874 109.721 216.246 108.769 214.53 108.136C210.347 106.611 199.731 107.016 195.297 107.437C195.554 104.955 195.523 102.452 195.78 99.9663C195.98 98.065 196.172 96.0953 195.56 94.2824C195.176 93.1964 195.048 92.6064 194.189 91.8367Z" fill="black"/>
<path d="M194.476 92.4069C198.835 93.396 209.329 93.8321 213.798 93.6839C215.837 93.6212 217.871 93.4387 219.911 93.4444C223.407 93.4444 226.897 94.0145 230.385 93.7836C234.89 93.4758 239.316 91.8254 243.81 92.2501C246.019 92.461 248.144 93.1622 250.25 93.8635C252.356 94.5647 254.65 95.3571 256.132 97.0617C257.505 98.6409 258.006 100.767 258.461 102.808C258.715 103.948 258.97 105.126 258.747 106.269C258.32 108.438 256.315 109.906 254.39 111.001C252.101 112.3 249.589 113.418 246.951 113.358C245.387 113.324 243.865 112.873 242.374 112.406C238.103 111.069 233.737 109.555 229.275 109.889C226.153 110.128 223.035 111.274 219.965 110.656C218.16 110.291 216.532 109.339 214.816 108.706C210.633 107.181 200.017 107.586 195.583 108.008C195.84 105.525 195.809 103.022 196.066 100.536C196.266 98.6352 196.458 96.6655 195.846 94.8526C195.463 93.7665 195.334 93.1765 194.476 92.4069Z" fill="#BFDAA2"/>
<path d="M149.02 48.9997C148.351 48.8259 148.093 47.9821 147.49 47.6429C146.886 47.3037 146.131 47.5717 145.696 48.0762C145.292 48.6101 145.073 49.2604 145.072 49.929C145.019 51.3709 145.413 52.7941 146.201 54.0042C146.99 55.2144 148.134 56.1525 149.478 56.6903C148.88 54.0956 148.649 51.4302 148.791 48.7717L149.02 48.9997Z" fill="#FFC9B8"/>
<path d="M191.237 48.9997C191.906 48.8259 192.161 47.9821 192.765 47.6429C193.368 47.3037 194.124 47.5717 194.558 48.0762C194.964 48.6094 195.183 49.2601 195.182 49.929C195.236 51.3709 194.841 52.7941 194.053 54.0042C193.264 55.2144 192.12 56.1525 190.776 56.6903C191.375 54.0956 191.606 51.4302 191.463 48.7717L191.237 48.9997Z" fill="#FFC9B8"/>
<g opacity="0.1">
<path d="M163.815 112.209C164.361 114.196 164.626 116.249 164.602 118.309C164.602 121.892 163.896 125.019 162.843 126.698C162.754 127.496 162.654 128.289 162.557 129.067C164.041 127.927 165.131 124.181 165.131 119.734C165.12 116.696 164.611 113.985 163.815 112.209Z" fill="black"/>
</g>
<g opacity="0.1">
<path d="M171.875 112.209C171.328 114.196 171.062 116.249 171.085 118.309C171.085 121.892 171.794 125.019 172.847 126.698C172.936 127.496 173.033 128.289 173.133 129.067C171.649 127.927 170.559 124.181 170.559 119.734C170.556 116.696 171.065 113.985 171.875 112.209Z" fill="black"/>
</g>
<path opacity="0.1" d="M186.751 40.0692C185.893 41.2521 184.846 42.4579 183.556 42.4864C181.688 42.532 180.409 40.1661 178.692 39.3053C175.211 37.5722 171.563 42.3154 167.821 41.7111C164.932 41.2436 162.672 37.6263 159.759 37.9541C157.68 38.1879 156.158 40.377 154.876 42.3952C153.884 40.9338 152.893 39.4706 151.904 38.0054C151.331 37.1503 150.711 36.5374 150.433 35.9046C149.878 37.2615 150.92 37.9798 151.904 39.4307C152.888 40.8816 153.883 42.3581 154.876 43.8204C156.158 41.8023 157.68 39.6131 159.759 39.3794C162.663 39.0516 164.932 42.6688 167.821 43.1363C171.54 43.7406 175.196 38.9974 178.692 40.7305C180.409 41.5856 181.69 43.9572 183.556 43.9116C184.846 43.8831 185.896 42.6774 186.751 41.4944C188.195 39.4999 189.472 37.3912 190.57 35.1892C190.416 35.0124 190.256 34.8414 190.093 34.6761C189.106 36.549 187.989 38.3511 186.751 40.0692Z" fill="black"/>
</g>
<defs>
<clipPath id="clip0_115_5630">
<rect width="314" height="198" fill="white"/>
</clipPath>
</defs>
</svg>
