<svg width="21" height="21" viewBox="0 0 21 21" fill="none" xmlns="http://www.w3.org/2000/svg">
<path d="M10.8991 5.116C11.8231 5.116 12.5698 5.37733 13.1391 5.9C13.7084 6.42267 13.9931 7.12267 13.9931 8C13.9931 8.98 13.6898 9.708 13.0831 10.184C12.4764 10.6507 11.6551 10.884 10.6191 10.884L10.5771 12.214H9.4711L9.4151 10.002H9.8211C10.7451 10.002 11.4684 9.862 11.9911 9.582C12.5138 9.302 12.7751 8.77467 12.7751 8C12.7751 7.44 12.6071 6.99667 12.2711 6.67C11.9351 6.34333 11.4824 6.18 10.9131 6.18C10.3344 6.18 9.8771 6.33867 9.5411 6.656C9.21443 6.964 9.0511 7.38867 9.0511 7.93H7.8471C7.8471 7.37 7.9731 6.88 8.2251 6.46C8.4771 6.03067 8.83177 5.69933 9.2891 5.466C9.75577 5.23267 10.2924 5.116 10.8991 5.116ZM10.0171 15.084C9.77443 15.084 9.5691 15 9.4011 14.832C9.2331 14.664 9.1491 14.4587 9.1491 14.216C9.1491 13.9733 9.2331 13.768 9.4011 13.6C9.5691 13.432 9.77443 13.348 10.0171 13.348C10.2504 13.348 10.4464 13.432 10.6051 13.6C10.7731 13.768 10.8571 13.9733 10.8571 14.216C10.8571 14.4587 10.7731 14.664 10.6051 14.832C10.4464 15 10.2504 15.084 10.0171 15.084Z" fill="#AB29E4"/>
<circle cx="10.5" cy="10.5" r="10" stroke="#AB29E4"/>
</svg>
