<svg width="67" height="46" viewBox="0 0 67 46" fill="none" xmlns="http://www.w3.org/2000/svg">
<path d="M0.521911 45.3629L7.37904 44.4131C14.7926 43.3863 21.961 41.0342 28.5418 37.4693L33.7236 34.6623C35.6122 33.6392 37.3419 32.3466 38.8582 30.8252L42.3509 27.3208C44.5441 25.1202 45.7035 22.0942 45.5421 18.9915L45.485 17.8923C45.367 15.6249 44.3353 13.5021 42.6253 12.0086L41.9373 11.4078C39.5852 9.35349 36.1717 9.06432 33.5076 10.6936V10.6936C31.3584 12.008 30.0601 14.3569 30.0902 16.876L30.1032 17.9564V17.9564C30.1554 22.3133 32.8961 26.1842 36.9884 27.6806L40.6667 29.0256C44.623 30.4723 48.9879 30.3172 52.8315 28.5932L54.4245 27.8787C58.8039 25.9144 62.2775 22.3654 64.1472 17.9448V17.9448C66.4493 12.5022 66.0988 6.29989 63.1981 1.15129L63.1436 1.05457" stroke="black"/>
</svg>
