<svg width="67" height="46" viewBox="0 0 67 46" fill="none" xmlns="http://www.w3.org/2000/svg">
<path d="M0.883727 44.8337L7.74086 43.884C15.1544 42.8571 22.3229 40.5051 28.9037 36.9402L34.0854 34.1332C35.974 33.11 37.7037 31.8175 39.22 30.2961L42.7127 26.7916C44.9059 24.5911 46.0653 21.5651 45.904 18.4624L45.8468 17.3631C45.7289 15.0958 44.6971 12.973 42.9871 11.4795L42.2991 10.8786C39.9471 8.82435 36.5335 8.53517 33.8694 10.1645V10.1645C31.7202 11.4789 30.4219 13.8278 30.4521 16.3468L30.465 17.4272V17.4272C30.5172 21.7842 33.258 25.655 37.3502 27.1515L41.0285 28.4965C44.9849 29.9432 49.3497 29.788 53.1933 28.0641L54.7863 27.3496C59.1657 25.3853 62.6393 21.8362 64.509 17.4157V17.4157C66.8111 11.973 66.4606 5.77075 63.5599 0.62215L63.5054 0.525425" stroke="white"/>
</svg>
