<svg width="117" height="81" viewBox="0 0 117 81" fill="none" xmlns="http://www.w3.org/2000/svg">
<path d="M115.532 80.2119L109.075 70.2872C102.093 59.5571 93.239 50.1703 82.9342 42.5753L74.8203 36.595C71.8629 34.4152 68.6039 32.6776 65.146 31.4367L57.1806 28.5783C52.1789 26.7834 46.6512 27.1893 41.9653 29.6955L40.3052 30.5835C36.8809 32.415 34.345 35.556 33.2765 39.2894L32.8467 40.7914C31.377 45.9266 33.4119 51.4214 37.8718 54.3607V54.3607C41.4696 56.7319 46.0501 57.0337 49.9278 55.1549L51.591 54.3492V54.3492C58.298 51.0997 62.2972 44.0417 61.6376 36.6182L61.0447 29.9457C60.4071 22.7688 56.9925 16.1245 51.5283 11.428L49.2637 9.48158C43.0379 4.13045 35.0174 1.33406 26.8142 1.65442V1.65442C16.7143 2.04884 7.36759 7.10219 1.50666 15.3371L1.39654 15.4918" stroke="black" stroke-width="2"/>
</svg>
