<svg width="153" height="65" viewBox="0 0 153 65" fill="none" xmlns="http://www.w3.org/2000/svg">
<path d="M152.724 2.56124L142.091 2.18994C127.646 1.68555 113.205 3.30315 99.23 6.99106V6.99106L79.2208 14.8264C71.6274 17.7999 65.6473 23.8483 62.7603 31.4749L61.7374 34.177C59.6276 39.7503 59.8666 45.9407 62.3997 51.3348L63.4188 53.5049C66.903 60.9243 74.8011 65.2222 82.9233 64.1185V64.1185C89.4754 63.2282 95.0749 58.9538 97.6611 52.8682L98.7704 50.2581V50.2581C103.244 39.7324 100.743 27.5372 92.4877 19.6217L85.0677 12.507C77.0869 4.85446 66.4336 0.620318 55.377 0.706443L50.7946 0.742138C38.1969 0.840269 26.1032 5.70293 16.944 14.3529V14.3529C5.66707 25.0028 -0.0369376 40.278 1.49965 55.7127L1.52851 56.0026" stroke="#414648"/>
</svg>
