<svg width="134" height="96" viewBox="0 0 134 96" fill="none" xmlns="http://www.w3.org/2000/svg">
<path d="M133.868 95.2625L123.579 92.5523C109.602 88.8707 96.2409 83.1584 83.9224 75.5979V75.5979L67.0219 62.3264C60.6082 57.2899 56.6259 49.7742 56.0603 41.6391L55.8599 38.7568C55.4465 32.8119 57.4601 26.9533 61.4408 22.5185L63.0423 20.7344C68.5176 14.6346 77.3195 12.7963 84.7786 16.1948V16.1948C90.7958 18.9364 94.9251 24.6436 95.6471 31.2165L95.9567 34.0355V34.0355C97.2053 45.404 91.2946 56.3603 81.1079 61.5596L71.9518 66.233C62.1035 71.2596 50.6819 72.2425 40.1196 68.9723L35.7421 67.617C23.7077 63.891 13.5294 55.748 7.25302 44.8247V44.8247C-0.474581 31.3758 -1.53235 15.1046 4.38898 0.768375L4.50021 0.499054" stroke="#414648"/>
</svg>
