<svg width="100" height="100" viewBox="0 0 100 100" fill="none" xmlns="http://www.w3.org/2000/svg">
<rect width="100" height="100" rx="21" fill="#DFEDD0"/>
<path d="M61.6667 31.6667H38.3333C36.124 31.6694 34.0059 32.5482 32.4437 34.1104C30.8815 35.6727 30.0026 37.7908 30 40.0001V60.0001C30.0026 62.2094 30.8815 64.3275 32.4437 65.8897C34.0059 67.4519 36.124 68.3308 38.3333 68.3334H61.6667C63.876 68.3308 65.9941 67.4519 67.5563 65.8897C69.1185 64.3275 69.9974 62.2094 70 60.0001V40.0001C69.9974 37.7908 69.1185 35.6727 67.5563 34.1104C65.9941 32.5482 63.876 31.6694 61.6667 31.6667V31.6667ZM38.3333 35.0001H61.6667C62.9927 35.0001 64.2645 35.5269 65.2022 36.4645C66.1399 37.4022 66.6667 38.674 66.6667 40.0001V41.6667H33.3333V40.0001C33.3333 38.674 33.8601 37.4022 34.7978 36.4645C35.7355 35.5269 37.0073 35.0001 38.3333 35.0001V35.0001ZM61.6667 65.0001H38.3333C37.0073 65.0001 35.7355 64.4733 34.7978 63.5356C33.8601 62.5979 33.3333 61.3262 33.3333 60.0001V45.0001H66.6667V60.0001C66.6667 61.3262 66.1399 62.5979 65.2022 63.5356C64.2645 64.4733 62.9927 65.0001 61.6667 65.0001ZM61.6667 51.6667C61.6667 52.1088 61.4911 52.5327 61.1785 52.8453C60.866 53.1578 60.442 53.3334 60 53.3334H40C39.558 53.3334 39.134 53.1578 38.8215 52.8453C38.5089 52.5327 38.3333 52.1088 38.3333 51.6667C38.3333 51.2247 38.5089 50.8008 38.8215 50.4882C39.134 50.1757 39.558 50.0001 40 50.0001H60C60.442 50.0001 60.866 50.1757 61.1785 50.4882C61.4911 50.8008 61.6667 51.2247 61.6667 51.6667ZM55 58.3334C55 58.7754 54.8244 59.1994 54.5118 59.5119C54.1993 59.8245 53.7754 60.0001 53.3333 60.0001H40C39.558 60.0001 39.134 59.8245 38.8215 59.5119C38.5089 59.1994 38.3333 58.7754 38.3333 58.3334C38.3333 57.8914 38.5089 57.4675 38.8215 57.1549C39.134 56.8423 39.558 56.6667 40 56.6667H53.3333C53.7754 56.6667 54.1993 56.8423 54.5118 57.1549C54.8244 57.4675 55 57.8914 55 58.3334ZM35 38.3334C35 38.0038 35.0977 37.6815 35.2809 37.4075C35.464 37.1334 35.7243 36.9198 36.0289 36.7936C36.3334 36.6675 36.6685 36.6345 36.9918 36.6988C37.3151 36.7631 37.6121 36.9218 37.8452 37.1549C38.0783 37.388 38.237 37.685 38.3013 38.0083C38.3656 38.3316 38.3326 38.6667 38.2065 38.9712C38.0803 39.2758 37.8667 39.5361 37.5926 39.7192C37.3185 39.9023 36.9963 40.0001 36.6667 40.0001C36.2246 40.0001 35.8007 39.8245 35.4882 39.5119C35.1756 39.1994 35 38.7754 35 38.3334ZM40 38.3334C40 38.0038 40.0977 37.6815 40.2809 37.4075C40.464 37.1334 40.7243 36.9198 41.0289 36.7936C41.3334 36.6675 41.6685 36.6345 41.9918 36.6988C42.3151 36.7631 42.6121 36.9218 42.8452 37.1549C43.0783 37.388 43.237 37.685 43.3013 38.0083C43.3656 38.3316 43.3326 38.6667 43.2065 38.9712C43.0803 39.2758 42.8667 39.5361 42.5926 39.7192C42.3185 39.9023 41.9963 40.0001 41.6667 40.0001C41.2246 40.0001 40.8007 39.8245 40.4882 39.5119C40.1756 39.1994 40 38.7754 40 38.3334ZM45 38.3334C45 38.0038 45.0977 37.6815 45.2809 37.4075C45.464 37.1334 45.7243 36.9198 46.0289 36.7936C46.3334 36.6675 46.6685 36.6345 46.9918 36.6988C47.3151 36.7631 47.6121 36.9218 47.8452 37.1549C48.0783 37.388 48.237 37.685 48.3013 38.0083C48.3656 38.3316 48.3326 38.6667 48.2065 38.9712C48.0803 39.2758 47.8667 39.5361 47.5926 39.7192C47.3185 39.9023 46.9963 40.0001 46.6667 40.0001C46.2246 40.0001 45.8007 39.8245 45.4882 39.5119C45.1756 39.1994 45 38.7754 45 38.3334Z" fill="#414648"/>
</svg>
