<svg width="100" height="100" viewBox="0 0 100 100" fill="none" xmlns="http://www.w3.org/2000/svg">
<rect width="100" height="100" rx="21" fill="#DFEDD0"/>
<path d="M66.6667 30H51.6667V33.3333H64.31L30 67.6433L32.3567 70L66.6667 35.69V48.3333H70V33.3333C70 32.4493 69.6488 31.6014 69.0237 30.9763C68.3986 30.3512 67.5507 30 66.6667 30V30Z" fill="black"/>
<path d="M39.9997 46.6666C41.3182 46.6666 42.6071 46.2756 43.7035 45.5431C44.7998 44.8105 45.6543 43.7693 46.1589 42.5511C46.6635 41.333 46.7955 39.9925 46.5382 38.6993C46.281 37.4061 45.6461 36.2182 44.7137 35.2859C43.7814 34.3535 42.5935 33.7186 41.3003 33.4614C40.0071 33.2041 38.6666 33.3361 37.4485 33.8407C36.2303 34.3453 35.1891 35.1998 34.4565 36.2961C33.724 37.3924 33.333 38.6814 33.333 39.9999C33.333 41.768 34.0354 43.4637 35.2856 44.714C36.5359 45.9642 38.2316 46.6666 39.9997 46.6666ZM39.9997 36.6666C40.6589 36.6666 41.3034 36.8621 41.8516 37.2284C42.3997 37.5946 42.827 38.1152 43.0793 38.7243C43.3316 39.3334 43.3976 40.0036 43.269 40.6502C43.1403 41.2968 42.8229 41.8908 42.3567 42.3569C41.8905 42.8231 41.2966 43.1406 40.65 43.2692C40.0034 43.3978 39.3332 43.3318 38.7241 43.0795C38.115 42.8272 37.5944 42.4 37.2281 41.8518C36.8618 41.3037 36.6663 40.6592 36.6663 39.9999C36.6663 39.1159 37.0175 38.268 37.6427 37.6429C38.2678 37.0178 39.1156 36.6666 39.9997 36.6666Z" fill="black"/>
<path d="M59.9997 53.3333C58.6811 53.3333 57.3922 53.7242 56.2959 54.4568C55.1995 55.1893 54.3451 56.2305 53.8405 57.4487C53.3359 58.6669 53.2039 60.0073 53.4611 61.3005C53.7183 62.5937 54.3533 63.7816 55.2856 64.714C56.218 65.6463 57.4059 66.2813 58.6991 66.5385C59.9923 66.7957 61.3327 66.6637 62.5509 66.1591C63.7691 65.6545 64.8103 64.8 65.5428 63.7037C66.2754 62.6074 66.6663 61.3185 66.6663 59.9999C66.6663 58.2318 65.964 56.5361 64.7137 55.2859C63.4635 54.0356 61.7678 53.3333 59.9997 53.3333V53.3333ZM59.9997 63.3333C59.3404 63.3333 58.6959 63.1378 58.1478 62.7715C57.5996 62.4052 57.1724 61.8846 56.9201 61.2755C56.6678 60.6664 56.6018 59.9962 56.7304 59.3496C56.859 58.703 57.1765 58.1091 57.6427 57.6429C58.1088 57.1767 58.7028 56.8593 59.3494 56.7306C59.996 56.602 60.6662 56.668 61.2753 56.9203C61.8844 57.1726 62.405 57.5999 62.7712 58.148C63.1375 58.6962 63.333 59.3406 63.333 59.9999C63.333 60.884 62.9818 61.7318 62.3567 62.3569C61.7316 62.9821 60.8837 63.3333 59.9997 63.3333Z" fill="black"/>
</svg>
