<svg width="100" height="100" viewBox="0 0 100 100" fill="none" xmlns="http://www.w3.org/2000/svg">
<rect width="100" height="100" rx="21" fill="#DFEDD0"/>
<path d="M43.3337 38.3333C43.3337 35.5767 45.577 33.3333 48.3337 33.3333V31.6667C48.3337 30.745 49.0787 30 50.0003 30C50.922 30 51.667 30.745 51.667 31.6667V33.3333H52.1137C53.892 33.3333 55.552 34.29 56.4437 35.8317C56.9053 36.63 56.632 37.6483 55.837 38.1083C55.037 38.57 54.0187 38.2967 53.5603 37.5017C53.262 36.985 52.7087 36.6667 52.1153 36.6667H48.3353C47.4153 36.6667 46.6687 37.4133 46.6687 38.3333C46.6687 38.965 47.1203 39.4967 47.7437 39.6017L52.8103 40.445C55.047 40.8183 56.6687 42.735 56.6687 45C56.6687 47.7567 54.4253 50 51.6687 50V51.6667C51.6687 52.5883 50.9237 53.3333 50.002 53.3333C49.0803 53.3333 48.3353 52.5883 48.3353 51.6667V50H47.8887C46.1103 50 44.4503 49.0433 43.5587 47.5017C43.097 46.7033 43.3703 45.685 44.1653 45.225C44.9637 44.76 45.9837 45.035 46.442 45.8317C46.7403 46.3483 47.2937 46.6667 47.887 46.6667H51.667C52.587 46.6667 53.3337 45.92 53.3337 45C53.3337 44.3683 52.882 43.8367 52.2587 43.7317L47.192 42.8883C44.9553 42.515 43.3337 40.5983 43.3337 38.3333ZM61.837 35H61.667C60.7453 35 60.0003 35.745 60.0003 36.6667C60.0003 37.5883 60.7453 38.3333 61.667 38.3333H61.837C63.582 38.3333 65.0003 39.7533 65.0003 41.4967C65.0003 42.2717 64.717 43.0167 64.202 43.5983L52.0887 57.2267C51.817 57.5317 51.667 57.925 51.667 58.3333V65L48.3337 62.5V58.3333C48.3337 57.925 48.1837 57.5317 47.912 57.2267L35.7987 43.5967C35.282 43.0167 35.0003 42.2717 35.0003 41.4967C35.0003 39.7517 36.4203 38.3333 38.1637 38.3333H38.3337C39.2553 38.3333 40.0003 37.5883 40.0003 36.6667C40.0003 35.745 39.2553 35 38.3337 35H38.1637C34.582 35 31.667 37.915 31.667 41.4967C31.667 43.0883 32.2503 44.6217 33.3087 45.8117L45.0003 58.9667V63.3333C45.0003 63.8567 45.247 64.3517 45.667 64.6667L52.3337 69.6667C52.627 69.8883 52.9803 70 53.3337 70C53.587 70 53.8437 69.9417 54.0787 69.825C54.6437 69.5417 55.0003 68.965 55.0003 68.3333V58.9667L66.692 45.8133C67.752 44.6217 68.3337 43.0883 68.3337 41.4967C68.3337 37.915 65.4187 35 61.837 35Z" fill="black"/>
</svg>
