<svg width="100" height="100" viewBox="0 0 100 100" fill="none" xmlns="http://www.w3.org/2000/svg">
<rect width="100" height="100" rx="21" fill="#DFEDD0"/>
<path d="M61.6667 36.6667H59.8333C59.4465 34.7857 58.423 33.0956 56.9354 31.8812C55.4478 30.6668 53.587 30.0024 51.6667 30L48.3333 30C46.413 30.0024 44.5522 30.6668 43.0646 31.8812C41.577 33.0956 40.5535 34.7857 40.1667 36.6667H38.3333C36.124 36.6693 34.0059 37.5481 32.4437 39.1104C30.8815 40.6726 30.0026 42.7907 30 45V61.6667C30.0026 63.876 30.8815 65.9941 32.4437 67.5563C34.0059 69.1185 36.124 69.9974 38.3333 70H61.6667C63.876 69.9974 65.9941 69.1185 67.5563 67.5563C69.1185 65.9941 69.9974 63.876 70 61.6667V45C69.9974 42.7907 69.1185 40.6726 67.5563 39.1104C65.9941 37.5481 63.876 36.6693 61.6667 36.6667ZM48.3333 33.3333H51.6667C52.6971 33.3376 53.701 33.6601 54.5412 34.2568C55.3813 34.8535 56.0165 35.6952 56.36 36.6667H43.64C43.9835 35.6952 44.6187 34.8535 45.4588 34.2568C46.299 33.6601 47.3029 33.3376 48.3333 33.3333ZM38.3333 40H61.6667C62.9927 40 64.2645 40.5268 65.2022 41.4645C66.1399 42.4021 66.6667 43.6739 66.6667 45V50H33.3333V45C33.3333 43.6739 33.8601 42.4021 34.7978 41.4645C35.7355 40.5268 37.0073 40 38.3333 40ZM61.6667 66.6667H38.3333C37.0073 66.6667 35.7355 66.1399 34.7978 65.2022C33.8601 64.2645 33.3333 62.9927 33.3333 61.6667V53.3333H48.3333V55C48.3333 55.442 48.5089 55.8659 48.8215 56.1785C49.134 56.4911 49.558 56.6667 50 56.6667C50.442 56.6667 50.8659 56.4911 51.1785 56.1785C51.4911 55.8659 51.6667 55.442 51.6667 55V53.3333H66.6667V61.6667C66.6667 62.9927 66.1399 64.2645 65.2022 65.2022C64.2645 66.1399 62.9927 66.6667 61.6667 66.6667Z" fill="black"/>
</svg>
