<svg width="13" height="12" viewBox="0 0 13 12" fill="none" xmlns="http://www.w3.org/2000/svg">
<g clip-path="url(#clip0_21_1092)">
<path d="M11.5063 1.16407C11.5869 1.08051 11.6832 1.01412 11.7894 0.968806C11.8956 0.923489 12.0097 0.900146 12.1249 0.900146C12.2402 0.900146 12.3542 0.923489 12.4605 0.968806C12.5667 1.01412 12.6629 1.08051 12.7436 1.16407C13.0816 1.51087 13.0863 2.07127 12.7554 2.42407L5.7675 10.8121C5.68816 10.9005 5.59188 10.9716 5.48455 11.021C5.37723 11.0704 5.2611 11.097 5.14329 11.0993C5.02547 11.1015 4.90845 11.0793 4.79937 11.0341C4.69029 10.9888 4.59145 10.9214 4.5089 10.8361L0.256824 6.46087C0.0928358 6.29105 0.000976562 6.0627 0.000976562 5.82487C0.000976562 5.58703 0.0928358 5.35868 0.256824 5.18887C0.337476 5.10531 0.433736 5.03892 0.539967 4.99361C0.646198 4.94829 0.760265 4.92495 0.87549 4.92495C0.990715 4.92495 1.10478 4.94829 1.21101 4.99361C1.31724 5.03892 1.4135 5.10531 1.49416 5.18887L5.10097 8.90047L11.4826 1.19047C11.49 1.18119 11.4979 1.17238 11.5063 1.16407Z" fill="#81BD52"/>
</g>
<defs>
<clipPath id="clip0_21_1092">
<rect width="13" height="12" fill="white"/>
</clipPath>
</defs>
</svg>
