<svg width="50" height="50" viewBox="0 0 50 50" fill="none" xmlns="http://www.w3.org/2000/svg">
<path d="M20.8333 47.9168C20.8333 48.4694 20.6138 48.9993 20.2231 49.39C19.8324 49.7807 19.3025 50.0002 18.75 50.0002H2.08333C1.5308 50.0002 1.0009 49.7807 0.610194 49.39C0.219493 48.9993 0 48.4694 0 47.9168C0 47.3643 0.219493 46.8344 0.610194 46.4437C1.0009 46.053 1.5308 45.8335 2.08333 45.8335H18.75C19.3025 45.8335 19.8324 46.053 20.2231 46.4437C20.6138 46.8344 20.8333 47.3643 20.8333 47.9168Z" fill="#81BD52"/>
<path d="M2.08333 41.6667H14.5833C15.1359 41.6667 15.6658 41.4472 16.0565 41.0565C16.4472 40.6658 16.6667 40.1359 16.6667 39.5833C16.6667 39.0308 16.4472 38.5009 16.0565 38.1102C15.6658 37.7195 15.1359 37.5 14.5833 37.5H2.08333C1.5308 37.5 1.0009 37.7195 0.610194 38.1102C0.219493 38.5009 0 39.0308 0 39.5833C0 40.1359 0.219493 40.6658 0.610194 41.0565C1.0009 41.4472 1.5308 41.6667 2.08333 41.6667Z" fill="#81BD52"/>
<path d="M2.08333 33.3332H10.4167C10.9692 33.3332 11.4991 33.1137 11.8898 32.723C12.2805 32.3323 12.5 31.8024 12.5 31.2498C12.5 30.6973 12.2805 30.1674 11.8898 29.7767C11.4991 29.386 10.9692 29.1665 10.4167 29.1665H2.08333C1.5308 29.1665 1.0009 29.386 0.610194 29.7767C0.219493 30.1674 0 30.6973 0 31.2498C0 31.8024 0.219493 32.3323 0.610194 32.723C1.0009 33.1137 1.5308 33.3332 2.08333 33.3332Z" fill="#81BD52"/>
<path d="M25 0C18.3696 0 12.0107 2.63392 7.32233 7.32233C2.63392 12.0107 0 18.3696 0 25C0 25.1271 0.0166667 25.25 0.01875 25.3771C0.680408 25.1346 1.37867 25.007 2.08333 25H10.4167C11.4394 24.9965 12.4472 25.2449 13.3512 25.7233C14.2551 26.2016 15.0274 26.8951 15.5998 27.7426C16.1722 28.5901 16.5272 29.5655 16.6333 30.5827C16.7394 31.5999 16.5935 32.6276 16.2083 33.575C17.0613 33.7988 17.8568 34.2022 18.5415 34.758C19.2261 35.3138 19.7843 36.0093 20.1787 36.7981C20.5731 37.5869 20.7946 38.4508 20.8285 39.332C20.8623 40.2133 20.7077 41.0916 20.375 41.9083C21.2082 42.1209 21.9874 42.5059 22.6624 43.0386C23.3374 43.5712 23.893 44.2396 24.2934 45.0005C24.6938 45.7615 24.93 46.598 24.9868 47.4559C25.0436 48.3139 24.9196 49.1742 24.6229 49.9812C24.75 49.9812 24.8729 50 25 50C31.6304 50 37.9893 47.3661 42.6777 42.6777C47.3661 37.9893 50 31.6304 50 25C50 18.3696 47.3661 12.0107 42.6777 7.32233C37.9893 2.63392 31.6304 0 25 0ZM32.7229 32.7229C32.3322 33.1135 31.8024 33.3329 31.25 33.3329C30.6976 33.3329 30.1678 33.1135 29.7771 32.7229L23.5271 26.4729C23.1364 26.0823 22.9168 25.5525 22.9167 25V14.5833C22.9167 14.0308 23.1362 13.5009 23.5269 13.1102C23.9176 12.7195 24.4475 12.5 25 12.5C25.5525 12.5 26.0824 12.7195 26.4731 13.1102C26.8638 13.5009 27.0833 14.0308 27.0833 14.5833V24.1375L32.7229 29.7771C33.1135 30.1678 33.3329 30.6976 33.3329 31.25C33.3329 31.8024 33.1135 32.3322 32.7229 32.7229Z" fill="#81BD52"/>
</svg>
