<svg width="50" height="50" viewBox="0 0 50 50" fill="none" xmlns="http://www.w3.org/2000/svg">
<path d="M45.798 37.8668V37.4838C45.7947 34.7242 44.697 32.0787 42.7458 30.1274C40.7945 28.1761 38.1489 27.0784 35.3894 27.0751H27.0625V24.806C30.1505 24.2841 32.9298 22.6211 34.8495 20.1466C36.7692 17.6721 37.6893 14.5667 37.4274 11.4458C37.1655 8.32498 35.7407 5.41639 33.4354 3.29646C31.1301 1.17654 28.1126 0 24.9808 0C21.8489 0 18.8314 1.17654 16.5261 3.29646C14.2208 5.41639 12.796 8.32498 12.5341 11.4458C12.2722 14.5667 13.1923 17.6721 15.112 20.1466C17.0317 22.6211 19.811 24.2841 22.899 24.806V27.0751H14.5721C11.8126 27.0784 9.16702 28.1761 7.21574 30.1274C5.26446 32.0787 4.16677 34.7242 4.16347 37.4838V37.8668C2.77451 38.3579 1.60387 39.3242 0.858452 40.5949C0.113033 41.8656 -0.159171 43.3589 0.0899526 44.8109C0.339076 46.2629 1.09348 47.5801 2.21984 48.5296C3.3462 49.4792 4.77199 50 6.2452 50C7.71841 50 9.14419 49.4792 10.2706 48.5296C11.3969 47.5801 12.1513 46.2629 12.4004 44.8109C12.6496 43.3589 12.3774 41.8656 11.6319 40.5949C10.8865 39.3242 9.71588 38.3579 8.32693 37.8668V37.4838C8.32693 35.8274 8.9849 34.2389 10.1561 33.0677C11.3273 31.8965 12.9158 31.2386 14.5721 31.2386H22.899V37.8668C21.5101 38.3579 20.3394 39.3242 19.594 40.5949C18.8486 41.8656 18.5764 43.3589 18.8255 44.8109C19.0746 46.2629 19.829 47.5801 20.9554 48.5296C22.0818 49.4792 23.5075 50 24.9808 50C26.454 50 27.8797 49.4792 29.0061 48.5296C30.1325 47.5801 30.8869 46.2629 31.136 44.8109C31.3851 43.3589 31.1129 41.8656 30.3675 40.5949C29.6221 39.3242 28.4514 38.3579 27.0625 37.8668V31.2386H35.3894C37.0457 31.2386 38.6342 31.8965 39.8054 33.0677C40.9766 34.2389 41.6346 35.8274 41.6346 37.4838V37.8668C40.2456 38.3579 39.075 39.3242 38.3296 40.5949C37.5841 41.8656 37.3119 43.3589 37.5611 44.8109C37.8102 46.2629 38.5646 47.5801 39.6909 48.5296C40.8173 49.4792 42.2431 50 43.7163 50C45.1895 50 46.6153 49.4792 47.7417 48.5296C48.868 47.5801 49.6224 46.2629 49.8715 44.8109C50.1207 43.3589 49.8485 41.8656 49.1031 40.5949C48.3576 39.3242 47.187 38.3579 45.798 37.8668Z" fill="#81BD52"/>
</svg>
