<svg width="50" height="50" viewBox="0 0 50 50" fill="none" xmlns="http://www.w3.org/2000/svg">
<path d="M49.3776 49.3897C48.9715 49.7959 48.4383 50 47.9051 50C47.3719 50 46.8386 49.7959 46.4325 49.3897L34.0001 36.9573C30.4072 39.8983 25.8208 41.6687 20.8283 41.6687C9.34357 41.6687 0 32.3251 0 20.8404C0 9.35568 9.34357 0.0121136 20.8283 0.0121136C27.0955 0.0121136 32.7108 2.80727 36.5328 7.20204L23.7901 21.8985L19.7744 17.8828C18.9371 17.0455 17.7686 16.5998 16.6001 16.6518C15.4213 16.706 14.309 17.2579 13.555 18.164L6.7317 26.3516C5.99438 27.2347 6.11518 28.5489 6.9983 29.2842C7.38988 29.6091 7.86059 29.7674 8.33131 29.7674C8.92909 29.7674 9.52061 29.5112 9.93509 29.0176L16.8334 20.8258L20.8491 24.8415C21.6739 25.6663 22.8236 26.1037 23.9838 26.0745C25.1522 26.0308 26.2582 25.4997 27.0205 24.6166L39.0239 10.7199C40.6985 13.7192 41.6628 17.1663 41.6628 20.8383C41.6628 25.8329 39.8924 30.4193 36.9515 34.0101L49.3839 46.4425C50.1982 47.2569 50.1982 48.5733 49.3839 49.3876L49.3776 49.3897ZM45.3036 3.44461C46.0555 2.57399 45.9576 1.25765 45.087 0.505744C44.2205 -0.241991 42.9042 -0.15243 42.1502 0.720275L36.5307 7.19995C37.4743 8.28303 38.3116 9.45774 39.0155 10.7199L45.3015 3.44253L45.3036 3.44461Z" fill="#81BD52"/>
</svg>
