<svg width="50" height="50" viewBox="0 0 50 50" fill="none" xmlns="http://www.w3.org/2000/svg">
<g clip-path="url(#clip0_1_6915)">
<path d="M39.5833 0H10.4167C4.67292 0 0 4.67292 0 10.4167V14.5833H50V10.4167C50 4.67292 45.3271 0 39.5833 0ZM9.375 10.4167C7.65 10.4167 6.25 9.01667 6.25 7.29167C6.25 5.56667 7.65 4.16667 9.375 4.16667C11.1 4.16667 12.5 5.56667 12.5 7.29167C12.5 9.01667 11.1 10.4167 9.375 10.4167ZM17.7083 10.4167C15.9833 10.4167 14.5833 9.01667 14.5833 7.29167C14.5833 5.56667 15.9833 4.16667 17.7083 4.16667C19.4333 4.16667 20.8333 5.56667 20.8333 7.29167C20.8333 9.01667 19.4333 10.4167 17.7083 10.4167ZM9.5375 26.4687L10.8667 33.3333H8.23958L9.5375 26.4687ZM22.9167 27.7083V34.7917C22.9167 35.5958 22.2625 36.25 21.4583 36.25C20.6542 36.25 20 36.25 20 36.25V26.2458C20 26.2458 20.6542 26.2458 21.4583 26.2458C22.2625 26.2458 22.9167 26.9 22.9167 27.7042V27.7083ZM50 39.5833C50 43.0292 47.1958 45.8333 43.75 45.8333V47.9167C43.75 49.0667 42.8167 50 41.6667 50C40.5167 50 39.5833 49.0667 39.5833 47.9167V45.8333H39.025C36.8 45.8333 34.7271 44.6375 33.6125 42.7104C33.0375 41.7146 33.3771 40.4417 34.3729 39.8646C35.3667 39.2875 36.6437 39.6292 37.2188 40.625C37.5896 41.2667 38.2833 41.6667 39.025 41.6667H43.75C44.8979 41.6667 45.8333 40.7333 45.8333 39.5833C45.8333 38.7958 45.2687 38.1292 44.4917 38L38.1542 36.9437C35.3604 36.4792 33.3312 34.0833 33.3312 31.25C33.3312 27.8042 36.1354 25 39.5812 25V22.9167C39.5812 21.7667 40.5146 20.8333 41.6646 20.8333C42.8146 20.8333 43.7479 21.7667 43.7479 22.9167V25H44.3062C46.5312 25 48.6042 26.1958 49.7187 28.1229C50.2937 29.1187 49.9542 30.3917 48.9583 30.9687C47.9646 31.5458 46.6896 31.2042 46.1125 30.2083C45.7417 29.5667 45.0479 29.1667 44.3062 29.1667H39.5812C38.4333 29.1667 37.4979 30.1 37.4979 31.25C37.4979 32.0375 38.0625 32.7042 38.8396 32.8333L45.1771 33.8896C47.9708 34.3542 50 36.75 50 39.5833ZM35.5458 21.6479C35.7729 20.5458 36.2979 19.5562 37.0229 18.75H0V35.4167C0 41.1604 4.67292 45.8333 10.4167 45.8333H30.7417C30.4854 45.4958 30.2208 45.1667 30.0062 44.7937C28.5375 42.2521 29.0625 39.0958 31.0958 37.15C29.8771 35.4938 29.1667 33.4479 29.1667 31.2479C29.1667 26.9354 31.8021 23.2292 35.5458 21.6479ZM13.4667 39.5812H13.4458C12.7229 39.5812 12.1042 39.0625 11.9771 38.35L11.65 36.5104H7.47083L7.125 38.3625C6.99375 39.0687 6.37708 39.5812 5.65833 39.5812C4.71667 39.5812 4.01042 38.7188 4.19583 37.7958L6.69583 25.3458C6.91042 24.1375 8.00417 22.9146 9.58125 22.9146C11.1583 22.9146 12.1354 24.0062 12.3854 25.3979L14.9292 37.7875C15.1187 38.7125 14.4125 39.5792 13.4688 39.5792L13.4667 39.5812ZM26.2479 34.7917C26.2479 37.4375 24.1021 39.5833 21.4562 39.5833H18.3312C17.4104 39.5833 16.6646 38.8375 16.6646 37.9167V24.5833C16.6646 23.6625 17.4104 22.9167 18.3312 22.9167H21.4562C24.1021 22.9167 26.2479 25.0625 26.2479 27.7083V34.7917Z" fill="#81BD52"/>
</g>
<defs>
<clipPath id="clip0_1_6915">
<rect width="50" height="50" fill="white"/>
</clipPath>
</defs>
</svg>
