<svg width="32" height="32" viewBox="0 0 32 32" fill="none" xmlns="http://www.w3.org/2000/svg">
<g clip-path="url(#clip0_1_267)">
<path d="M3.66819 20H0.000186205V18.6667C-0.0199982 16.7972 0.475112 14.9582 1.4312 13.3516C2.38729 11.7449 3.76742 10.4326 5.42019 9.55867C7.04837 8.75587 8.81171 8.26304 10.6202 8.10533C9.82997 9.08311 9.03752 10.1222 8.24285 11.2227C6.45301 14.0025 4.92171 16.9406 3.66819 20ZM20.7775 23.7507C17.9979 25.5428 15.0598 27.0763 12.0002 28.332V32H13.3335C15.203 32.0202 17.042 31.5251 18.6486 30.569C20.2553 29.6129 21.5676 28.2328 22.4415 26.58C23.2443 24.9518 23.7371 23.1885 23.8949 21.38C22.9215 22.1667 21.8824 22.9569 20.7775 23.7507ZM32.0002 3.988C31.8229 9.792 27.6442 15.548 19.2242 21.588C16.9329 23.0734 14.5156 24.3547 12.0002 25.4173V24.6667C11.9942 23.4308 11.5006 22.2473 10.6268 21.3734C9.75289 20.4995 8.56936 20.006 7.33352 20H6.58285C7.64672 17.4846 8.92989 15.0677 10.4175 12.7773C16.4429 4.37067 22.1895 0.192 27.9842 0C30.8722 0 32.0002 1.18 32.0002 3.988ZM24.0002 11.3333C24.0002 10.4493 23.649 9.60143 23.0239 8.97631C22.3988 8.35119 21.5509 8 20.6669 8C19.7828 8 18.935 8.35119 18.3098 8.97631C17.6847 9.60143 17.3335 10.4493 17.3335 11.3333C17.3335 12.2174 17.6847 13.0652 18.3098 13.6904C18.935 14.3155 19.7828 14.6667 20.6669 14.6667C21.5509 14.6667 22.3988 14.3155 23.0239 13.6904C23.649 13.0652 24.0002 12.2174 24.0002 11.3333ZM1.83219 31.7133C3.33352 31.4467 6.95352 30.7027 8.16285 29.4947C8.53432 29.1232 8.82898 28.6822 9.03002 28.1969C9.23105 27.7115 9.33453 27.1913 9.33453 26.666C9.33453 26.1407 9.23105 25.6205 9.03002 25.1351C8.82898 24.6498 8.53432 24.2088 8.16285 23.8373C7.79139 23.4659 7.35039 23.1712 6.86505 22.9702C6.37971 22.7691 5.85952 22.6657 5.33419 22.6657C4.27323 22.6657 3.25573 23.0871 2.50552 23.8373C1.29752 25.0467 0.552186 28.6667 0.286853 30.168L-0.0424805 32.0427L1.83219 31.7133Z" fill="#81BD52"/>
</g>
<defs>
<clipPath id="clip0_1_267">
<rect width="32" height="32" fill="white"/>
</clipPath>
</defs>
</svg>
