<svg width="32" height="32" viewBox="0 0 32 32" fill="none" xmlns="http://www.w3.org/2000/svg">
<g clip-path="url(#clip0_1_269)">
<path d="M16.0747 14.948L26.7933 23.9053L19.2013 29.6C17.3053 31.0226 14.6973 31.0226 12.8013 29.6L4.624 23.4666C3.932 22.948 3.08933 22.6666 2.224 22.6666H1.33467C0.597333 22.6666 0 22.0693 0 21.3333V6.58262C0 5.90529 0.505333 5.34129 1.17867 5.26529C2.988 5.06396 4.61733 4.33729 6.284 3.36662C8.68133 2.13329 11.8267 2.57329 13.772 4.39596L14.5947 5.18662L9.252 10.4013C7.82133 11.8306 7.59333 14.0906 8.72133 15.652C9.41467 16.616 10.6693 17.3306 11.98 17.3306C13.0373 17.3306 14.052 16.9146 14.7853 16.18L16.0747 14.9466V14.948ZM26.6053 3.36662C24.352 2.23996 21.5413 2.53329 19.528 4.09729L11.124 12.3C10.6293 12.796 10.5173 13.5893 10.8827 14.096C11.1227 14.4293 11.4707 14.6293 11.868 14.6626C12.2613 14.696 12.6427 14.5533 12.9187 14.276L17.7427 9.70396C19.008 8.50262 20.8413 10.42 19.5867 11.6306L18.012 13.0933L29.4693 22.668H30.6653C31.4013 22.668 31.9987 22.0706 31.9987 21.3346V6.53729C31.9987 5.88396 31.5213 5.34396 30.8773 5.22796C28.6187 4.81996 26.604 3.36796 26.604 3.36796L26.6053 3.36662Z" fill="#81BD52"/>
</g>
<defs>
<clipPath id="clip0_1_269">
<rect width="32" height="32" fill="white"/>
</clipPath>
</defs>
</svg>
