<svg width="32" height="32" viewBox="0 0 32 32" fill="none" xmlns="http://www.w3.org/2000/svg">
<g clip-path="url(#clip0_1_273)">
<path d="M26 11.9996C25.3867 11.9996 24.8347 11.6263 24.6067 11.0556L23.4693 8.50762L20.9173 7.31162C20.352 7.07296 19.988 6.51562 20 5.90229C20.012 5.28896 20.396 4.74496 20.9693 4.52762L23.5667 3.54362L24.6067 0.942291C24.8347 0.372958 25.3853 -0.00170898 26 -0.00170898C26.6147 -0.00170898 27.1653 0.371624 27.3933 0.942291L28.44 3.55962L31.0573 4.60629C31.6267 4.83429 32.0013 5.38496 32.0013 5.99962C32.0013 6.61429 31.628 7.16496 31.0573 7.39296L28.44 8.43962L27.3933 11.057C27.1653 11.6263 26.6147 12.001 26 12.001V11.9996ZM30.216 13.9636C28.5867 14.637 26.7253 14.8636 24.7813 14.481C21.1547 13.7663 18.2333 10.845 17.5187 7.21829C17.136 5.27429 17.3613 3.41296 18.036 1.78362C18.388 0.931624 17.764 -0.000375651 16.8427 -0.000375651H6.66667C2.98533 -0.000375651 0 2.98496 0 6.66629V25.333C0 29.0143 2.98533 31.9996 6.66667 31.9996H25.3333C29.0147 31.9996 32 29.0143 32 25.333V15.157C32 14.2356 31.068 13.6116 30.216 13.9636ZM18.264 25.333C17.6733 25.333 17.156 24.941 16.9947 24.373L16.1373 21.333H9.196L8.33867 24.373C8.17867 24.941 7.66 25.333 7.06933 25.333C6.19733 25.333 5.56533 24.501 5.79867 23.661L9.92 8.85029C10.108 8.03962 10.6413 7.35696 11.384 6.97696C12.1413 6.58762 13.0107 6.56362 13.836 6.91029C14.6187 7.23829 15.2187 7.99962 15.4413 8.95696L19.536 23.6623C19.7693 24.5023 19.1387 25.3343 18.2653 25.3343L18.264 25.333ZM25.3333 23.9996C25.3333 24.7356 24.736 25.333 24 25.333C23.264 25.333 22.6667 24.7356 22.6667 23.9996V17.4503C22.6667 16.7143 23.264 16.117 24 16.117C24.736 16.117 25.3333 16.7143 25.3333 17.4503V23.9996ZM12.52 9.55296L9.948 18.6663H15.384L12.812 9.55296C12.7733 9.40096 12.5573 9.40096 12.52 9.55296Z" fill="#81BD52"/>
</g>
<defs>
<clipPath id="clip0_1_273">
<rect width="32" height="32" fill="white"/>
</clipPath>
</defs>
</svg>
