<svg width="32" height="32" viewBox="0 0 32 32" fill="none" xmlns="http://www.w3.org/2000/svg">
<g clip-path="url(#clip0_1_271)">
<path d="M22.5896 7.45333V4L26.576 0V5.33333H31.8912L27.9048 9.33333H24.4632L18.4969 15.32C18.55 15.5333 18.5899 15.76 18.5899 16C18.5899 17.4667 17.394 18.6667 15.9323 18.6667C14.4706 18.6667 13.2747 17.4667 13.2747 16C13.2747 14.5333 14.4706 13.3333 15.9323 13.3333C16.1715 13.3333 16.3974 13.3733 16.61 13.4267L22.5763 7.44L22.5896 7.45333ZM29.0077 12H27.2271C27.6523 13.24 27.9048 14.56 27.9048 15.9467C27.3068 31.8933 4.58435 31.8933 3.98639 15.9467C3.98639 9.30667 9.35474 3.90667 15.9456 3.90667C17.3408 3.90667 18.6829 4.16 19.932 4.61333V2.89333L21.779 1.04C12.6236 -2.36 0.504943 2.6 0 15.9467C0 24.8 7.14893 32 15.9456 32C24.7422 32 31.8912 24.8 31.8912 15.9467C31.8114 13.8133 31.4261 11.8933 30.8015 10.1867L29.0077 11.9867V12ZM15.6665 10.6267L19.1347 7.14667C18.1912 6.81333 17.1282 6.61333 15.9456 6.58667C3.6542 6.97333 3.6542 24.92 15.9456 25.32C23.4799 25.08 26.3899 18.24 24.6891 12.8933L21.1678 16.4267C20.9684 18.8933 19.241 21.2133 15.9456 21.3067C8.80993 21.1467 8.1854 11.1467 15.6532 10.64L15.6665 10.6267Z" fill="#81BD52"/>
</g>
<defs>
<clipPath id="clip0_1_271">
<rect width="31.8912" height="32" fill="white"/>
</clipPath>
</defs>
</svg>
