<svg width="166" height="21" viewBox="0 0 166 21" fill="none" xmlns="http://www.w3.org/2000/svg">
<path d="M11.0396 19.0787L8.41676 14.2326H8.06817H4.61537V19.0787H0.880371V2.14267H8.06817C12.3842 2.14267 14.841 4.26818 14.841 8.02607C14.841 10.6447 13.762 12.5321 11.7534 13.5013L15.2726 19.0787H11.0396ZM4.61537 11.0358H8.06817C10.1266 11.0358 11.3052 10.0666 11.3052 8.1281C11.3052 6.24064 10.1266 5.28842 8.06817 5.28842H4.61537V11.0358Z" fill="white"/>
<path d="M30.5769 2.14267V5.30542H21.7125V8.97827H29.6805V12.141H21.7125V15.8989H30.8259V19.0617H17.9775V2.14267H30.5769Z" fill="white"/>
<path d="M35.9723 2.14264L40.4875 14.9127L45.0193 2.14264H48.8705L42.2969 19.0787H38.4457L31.9551 2.14264H35.9723Z" fill="white"/>
<path d="M58.0832 5.33764C55.2446 5.33764 53.0534 7.58218 53.0534 10.5409C53.0534 13.4996 55.2446 15.7611 58.0832 15.7611C59.5772 15.7611 61.2039 14.979 62.3825 13.7716L64.5737 16.2202C62.8307 18.0566 60.2909 19.2469 57.884 19.2469C52.9538 19.2469 49.2188 15.4891 49.2188 10.5749C49.2188 5.67773 53.0202 2.00485 58.0334 2.00485C60.4238 2.00485 62.9303 3.09311 64.5571 4.81052L62.3825 7.51416C61.2537 6.20485 59.627 5.33764 58.0832 5.33764Z" fill="white"/>
<path d="M88.9426 2.14267L96.977 13.0252V2.14267H100.513V19.0787H97.1098L89.1086 8.21311V19.0787H85.54V2.14267H88.9426Z" fill="white"/>
<path d="M116.35 2.14267V5.39045H111.286V19.0957H107.552V5.37344H102.521V2.14267H116.35Z" fill="white"/>
<path d="M130.941 2.14267V5.30542H122.076V8.97827H130.044V12.141H122.076V15.8989H131.19V19.0617H118.358V2.14267H130.941Z" fill="white"/>
<path d="M137.547 2.14267L145.582 13.0252V2.14267H149.117V19.0787H145.715L137.713 8.21311V19.0787H134.144V2.14267H137.547Z" fill="white"/>
<path d="M164.954 2.14267V5.39045H159.891V19.0957H156.156V5.37344H151.126V2.14267H164.954Z" fill="white"/>
<path d="M74.5513 5.37433C77.0745 5.52737 79.0831 7.58486 79.2325 10.2885H83.0672V2.02454H74.5513V5.37433Z" fill="white"/>
<path d="M79.2321 10.9857C79.0495 13.7743 76.8915 15.9168 74.2355 15.9168C71.4633 15.9168 69.1393 13.5873 69.1393 10.6116C69.1393 7.7719 71.2475 5.56137 73.8703 5.37433V2.02454C68.9733 2.17757 65.3213 5.78243 65.3213 10.6116C65.3213 15.5257 69.1559 19.2496 74.2023 19.2496C79.1325 19.2496 82.8841 15.6958 83.0833 10.9857H79.2321Z" fill="white"/>
</svg>
