<svg width="104" height="25" viewBox="0 0 104 25" fill="none" xmlns="http://www.w3.org/2000/svg">
<path d="M6.02901 5.5336H0V0.0213623H18.6899V5.5336H12.6394V21.6827H6.02901V5.5336Z" fill="white"/>
<path d="M24.2021 14.6203C23.47 14.9864 22.6518 15.1802 21.8336 15.3524C20.4986 15.6539 19.8096 15.9769 19.8096 17.0319C19.8096 17.764 20.5847 18.4961 21.6829 18.4961C23.0394 18.4961 24.0945 17.6994 24.2021 16.063V14.6203ZM29.9081 18.1732C29.9081 19.3574 29.9512 20.6709 30.6187 21.6829L24.5251 21.6398C24.3744 21.2092 24.2883 20.5848 24.3313 20.1541H24.2667C22.9963 21.5968 21.1446 22.0059 19.2067 22.0059C16.1922 21.9843 13.6944 20.5202 13.716 17.2257C13.7375 12.2733 19.5512 12.4887 22.6087 11.9288C23.427 11.7781 24.2452 11.5412 24.2452 10.5508C24.2452 9.49569 23.2547 9.08658 22.2858 9.08658C20.434 9.08658 20.0679 10.0125 20.0464 10.68L14.4911 10.6584C14.7064 6.24433 18.8621 5.5553 22.5872 5.57683C30.0804 5.6199 29.9943 8.74206 29.9727 11.7566L29.9081 18.1732Z" fill="white"/>
<path d="M39.1455 10.0125C36.9923 9.99093 36.497 12.015 36.497 13.8667C36.4755 15.74 36.9492 17.764 39.1024 17.7856C41.2557 17.8071 41.7509 15.7831 41.7509 13.9098C41.7509 12.058 41.2772 10.034 39.1455 10.0125ZM30.791 0H36.777L36.7339 7.77311H36.7985C37.7028 6.45965 39.3178 5.66296 41.1049 5.68449C46.3588 5.70603 47.7584 10.1847 47.7368 13.8883C47.7153 17.8071 45.5406 22.1781 41.1049 22.1566C38.1766 22.1351 37.2722 21.0154 36.5186 20.0034H36.454L36.4324 21.6829H30.791V0Z" fill="white"/>
<path d="M56.1129 4.39258C53.852 4.37105 53.529 6.58886 53.529 8.24684C53.529 9.90482 53.809 12.1442 56.0698 12.1657C58.3307 12.1872 58.6537 9.94788 58.6537 8.2899C58.6752 6.61039 58.3953 4.39258 56.1129 4.39258ZM56.0483 16.4937C50.1485 16.4506 47.5216 12.5533 47.5431 8.20378C47.5646 3.85428 50.2562 1.77324e-05 56.1344 0.0430821C62.0342 0.0861464 64.6612 3.96194 64.6396 8.31144C64.6181 12.6609 61.9481 16.5367 56.0483 16.4937Z" fill="white"/>
<path d="M70.9698 4.39258C68.709 4.37105 68.386 6.58886 68.386 8.24684C68.3644 9.90482 68.6659 12.1442 70.9268 12.1657C73.1876 12.1872 73.5106 9.94788 73.5106 8.2899C73.5322 6.61039 73.2307 4.39258 70.9698 4.39258ZM70.9052 16.4937C65.0054 16.4506 62.3785 12.5533 62.4 8.20378C62.4216 3.85428 65.1131 1.77324e-05 70.9914 0.0430821C76.8912 0.0861464 79.5181 3.96194 79.4966 8.31144C79.475 12.6609 76.7835 16.5367 70.9052 16.4937Z" fill="white"/>
<path d="M80.1426 0.0430908H85.9993V21.7045H80.1426V0.0430908Z" fill="white"/>
<path d="M96.8945 14.5558C96.1624 14.9218 95.3442 15.1156 94.526 15.2879C93.191 15.5893 92.5019 15.9123 92.4804 16.9674C92.4804 17.6995 93.2556 18.4316 94.3537 18.4316C95.7102 18.4316 96.7653 17.6349 96.873 15.9984L96.8945 14.5558ZM102.665 18.1301C102.665 19.3144 102.601 20.6925 103.246 21.6829H97.239C97.0883 21.2523 96.9806 20.5417 97.0237 20.1111H96.9591C95.6887 21.5537 93.8369 21.9629 91.899 21.9629C88.8845 21.9413 86.3868 20.4771 86.4083 17.1827C86.4299 12.2303 92.2436 12.4456 95.3011 11.8858C96.1193 11.7351 96.9376 11.4982 96.9376 10.5077C96.9376 9.45266 95.9471 9.04355 94.9781 9.04355C93.1264 9.04355 92.7603 9.96943 92.7388 10.6369L87.1835 10.6154C87.3988 6.2013 91.5545 5.51227 95.2796 5.5338C102.773 5.57687 102.687 8.69904 102.665 11.7135V18.1301Z" fill="white"/>
<path d="M49.8038 16.4937C54.0456 18.3885 58.4597 19.2282 63.2614 19.2713C68.2999 19.2928 72.1326 18.3454 76.9774 16.4937L76.9558 21.726C72.6279 23.8792 67.9123 25.0419 63.2398 24.9989C58.1367 24.9773 54.4547 23.9223 49.7822 21.726L49.8038 16.4937Z" fill="white"/>
</svg>
