<svg width="139" height="32" viewBox="0 0 139 32" fill="none" xmlns="http://www.w3.org/2000/svg">
<path d="M138.826 19.0306V10.3602H27.9727V19.0306H34.7068V31.0805H135.436V19.0306H138.826Z" fill="white"/>
<path fill-rule="evenodd" clip-rule="evenodd" d="M15.5403 31.0805C24.1226 31.0805 31.0805 24.1226 31.0805 15.5403C31.0805 6.95789 24.1226 0 15.5403 0C6.95789 0 0 6.95789 0 15.5403C0 24.1226 6.95789 31.0805 15.5403 31.0805ZM15.5403 23.0597C17.5345 23.0597 19.4471 22.2674 20.8573 20.8573C22.2674 19.4471 23.0597 17.5345 23.0597 15.5403C23.0597 13.546 22.2674 11.6334 20.8573 10.2232C19.4471 8.81307 17.5345 8.02085 15.5403 8.02085C13.546 8.02085 11.6334 8.81307 10.2232 10.2232C8.81307 11.6334 8.02085 13.546 8.02085 15.5403C8.02085 17.5345 8.81307 19.4471 10.2232 20.8573C11.6334 22.2674 13.546 23.0597 15.5403 23.0597Z" fill="white"/>
<path d="M48.1964 22.8224L47.1894 18.4297H47.1407L46.0633 22.8224H48.1964ZM42.4766 27.0483L46.1482 14.6161H48.2057L51.867 27.0483H49.3827L48.6574 24.6085H45.6261L44.9008 27.0483H42.4766ZM53.2719 27.0483V14.6161H56.9269C58.3473 14.6161 59.4206 14.9134 60.1469 15.5091C60.8897 16.1038 61.2606 16.9471 61.2606 18.0391V23.4202C61.2606 24.6603 60.8648 25.5782 60.0743 26.1739C59.2994 26.7562 58.1784 27.0483 56.7094 27.0483H53.2719ZM55.7407 16.7917V24.852H56.8782C57.5724 24.852 58.0645 24.7224 58.3556 24.4624C58.6457 24.1899 58.7907 23.7683 58.7907 23.1974V18.4297C58.7907 17.9086 58.654 17.5056 58.3794 17.2196C58.1049 16.9347 57.6045 16.7928 56.8782 16.7928L55.7407 16.7917ZM71.5679 18.4297H69.0991V18.0018C69.108 17.5909 68.9611 17.1919 68.6878 16.885C68.4288 16.5638 67.9854 16.4022 67.3565 16.4022C67.0167 16.4022 66.7432 16.4509 66.5329 16.5503C66.3395 16.6379 66.1666 16.765 66.0252 16.9233C65.8957 17.0839 65.8077 17.2693 65.7579 17.4807C65.7103 17.6786 65.6854 17.8899 65.6854 18.1127C65.6854 18.3737 65.6937 18.1841 65.7103 18.3582C65.7393 18.5258 65.8055 18.6847 65.904 18.8234C66.0004 18.9591 66.1382 19.0772 66.3153 19.1756C66.5091 19.2751 66.767 19.3745 67.0903 19.474L68.9779 20.051C69.527 20.2116 69.9704 20.4033 70.3102 20.6271C70.649 20.8384 70.9152 21.086 71.1079 21.3709C71.2861 21.6693 71.4073 22.0102 71.4716 22.3945C71.5368 22.7675 71.569 22.7882 71.569 23.272C71.573 23.8006 71.4997 24.327 71.3514 24.8343C71.2064 25.3057 70.9712 25.7087 70.649 26.0434C70.3102 26.3904 69.8657 26.6639 69.3177 26.8618C68.7686 27.0607 68.0983 27.1592 67.3078 27.1592C66.7418 27.1639 66.1783 27.0825 65.6367 26.9178C65.1569 26.7752 64.7061 26.5486 64.3054 26.2485C63.9482 25.9784 63.6447 25.6439 63.4103 25.2622C63.201 24.8803 63.0926 24.4514 63.0954 24.0159V23.3093H65.5642V23.904C65.5642 24.2511 65.6937 24.3526 65.9517 24.6375C66.2262 24.91 66.6779 25.0467 67.3078 25.0467C67.7274 25.0467 68.0506 25.0032 68.2765 24.9162C68.4961 24.8336 68.6886 24.692 68.8328 24.507C68.9623 24.3339 69.0349 24.1288 69.0504 23.8936C69.0836 23.645 69.0991 23.588 69.0991 23.2907C69.0991 22.9426 69.0836 23.0638 69.0504 22.841C69.0293 22.6487 68.9629 22.4641 68.8567 22.3023C68.7313 22.1564 68.5739 22.0415 68.3967 21.9666C68.2205 21.8796 67.9771 21.892 67.6715 21.7936L65.904 21.4528C64.838 21.1181 64.12 20.6778 63.7491 20.1329C63.3937 19.5734 63.2166 18.9622 63.2166 18.1313C63.2166 17.6361 63.3047 17.1647 63.4828 16.7182C63.66 16.2717 63.9263 15.8873 64.2806 15.5641C64.6204 15.2429 65.0472 14.988 65.5652 14.8015C66.0978 14.6037 66.7266 14.5042 67.4529 14.5042C68.0662 14.5042 68.6236 14.5912 69.1229 14.7643C69.6409 14.9383 70.0833 15.1683 70.4552 15.4532C71.197 16.0479 71.569 16.7306 71.569 17.4993L71.5679 18.4297ZM73.3789 27.0483V14.6161H75.884V19.474H75.9327L79.077 14.6151H82.0089L78.041 20.6271L82.0089 27.0483H79.077L76.4869 22.3862L75.884 23.0855V27.0483H73.3789ZM83.7225 27.0483V14.6161H91.0823V16.5503H86.1923V19.8086H90.1479V21.6693H86.1923V24.853H91.0823V27.0483H83.7225ZM92.683 27.0483V14.6161H100.043V16.5503H95.1529V19.8086H99.1084V21.6693H95.1529V24.853H100.043V27.0483H92.683ZM101.643 27.0483V14.6161H105.348C106.026 14.6161 106.623 14.6845 107.14 14.8202C107.656 14.957 108.124 15.1983 108.543 15.5454C108.963 15.8935 109.254 16.3017 109.416 16.7741C109.576 17.2331 109.657 17.4527 109.657 18.2453C109.657 18.841 109.609 20.106 109.512 20.5152C109.424 20.9397 109.233 21.3361 108.956 21.6693C108.616 22.1034 108.164 22.4442 107.6 22.6919C107.035 22.9281 106.292 23.0451 105.372 23.0451H104.459V27.0483H101.643ZM104.459 16.5503V21.1295H105.3C105.8 21.1295 106.187 21.0736 106.462 20.9617C106.736 20.8509 106.938 20.6954 107.067 20.4976C107.196 20.3111 107.269 20.0821 107.285 19.8086C107.317 19.5361 107.333 18.7488 107.333 18.4131C107.333 18.1033 107.325 18.2183 107.309 17.9459C107.3 17.6836 107.225 17.4278 107.091 17.202C106.953 16.9834 106.75 16.814 106.51 16.7182C106.252 16.6063 105.881 16.5503 105.396 16.5503H104.459ZM111.503 27.0483V14.6161H118.862V16.5503H113.972V19.8086H117.928V21.6693H113.972V24.853H118.862V27.0483H111.503ZM123.108 16.7182V20.4499H124.336C124.773 20.4499 125.12 20.4064 125.378 20.3194C125.637 20.2199 125.838 20.0842 125.983 19.9101C126.112 19.7371 126.201 19.5268 126.25 19.2782C126.301 18.9805 126.325 18.6788 126.322 18.3768C126.322 18.0412 126.298 18.1562 126.25 17.9086C126.208 17.6652 126.109 17.4356 125.959 17.2393C125.652 16.8912 125.071 16.7182 124.216 16.7182H123.108ZM120.464 27.0473V14.6151H124.434C127.339 14.6151 128.791 15.506 128.791 18.0971C128.788 18.9232 128.617 19.7399 128.288 20.4976C127.942 21.3129 127.452 21.6683 126.661 22.0039L129.324 27.0483H126.516L124.216 22.6919H123.108V27.0483L120.464 27.0473Z" fill="#81BD52"/>
</svg>
