<svg width="123" height="23" viewBox="0 0 123 23" fill="none" xmlns="http://www.w3.org/2000/svg">
<path d="M24.1929 8.79032C24.1929 8.21986 24.3485 7.80498 24.6855 7.54568C25.0226 7.28638 25.4634 7.15673 26.0598 7.15673C26.4229 7.15673 26.76 7.20859 27.0711 7.28638C27.3823 7.3901 27.5897 7.44196 27.6934 7.49382V15.5062C27.6934 16.8805 28.0305 17.9437 28.6788 18.6697C29.327 19.3957 30.3383 19.7588 31.6607 19.7588C33.0091 19.7588 33.9945 19.3957 34.6427 18.6697C35.291 17.9437 35.628 16.9064 35.628 15.5062V8.76439C35.628 8.19393 35.7836 7.77905 36.1207 7.51975C36.4578 7.26045 36.8986 7.1308 37.4691 7.1308C37.858 7.1308 38.1951 7.18266 38.5063 7.26045C38.8175 7.36417 39.0249 7.41603 39.1286 7.46789V16.2582C39.1286 17.2954 38.9471 18.2289 38.5841 19.0586C38.2211 19.8884 37.7284 20.5885 37.0542 21.159C36.406 21.7295 35.6021 22.1703 34.6946 22.4555C33.787 22.7407 32.7757 22.8963 31.6867 22.8963C30.5976 22.8963 29.5863 22.7407 28.6529 22.4555C27.7453 22.1703 26.9415 21.7295 26.2932 21.159C25.645 20.5885 25.1264 19.8884 24.7633 19.0586C24.4003 18.2289 24.2188 17.2954 24.2188 16.2582V8.79032H24.1929Z" fill="white"/>
<path d="M41.8252 4.45995C41.8252 3.88949 41.9808 3.47461 42.3179 3.21531C42.655 2.95601 43.0958 2.82635 43.6662 2.82635C44.0293 2.82635 44.3663 2.87822 44.6775 2.95601C44.9887 3.05973 45.1961 3.11159 45.2998 3.16345V7.15668H49.7339C50.4081 7.15668 50.8748 7.28633 51.16 7.57157C51.4453 7.8568 51.5749 8.24575 51.5749 8.76435C51.5749 9.10144 51.5231 9.43853 51.4193 9.72376C51.3156 10.009 51.2378 10.2164 51.186 10.3461H45.3258V17.1398C45.3258 17.6584 45.4036 18.0992 45.5332 18.4363C45.6629 18.7734 45.8703 19.0327 46.1296 19.2401C46.3889 19.4475 46.6741 19.5772 47.0112 19.6809C47.3483 19.7587 47.6854 19.8106 48.0744 19.8106C48.6707 19.8106 49.2153 19.7069 49.7339 19.5253C50.2525 19.3438 50.6155 19.1623 50.8229 19.0067L52.2232 21.3145C52.0676 21.4442 51.8342 21.5998 51.549 21.7813C51.2638 21.9628 50.9007 22.1443 50.4599 22.2999C50.045 22.4554 49.5524 22.611 49.0338 22.7148C48.5152 22.8185 47.9188 22.8703 47.2964 22.8703C45.5073 22.8703 44.1589 22.4036 43.2254 21.4701C42.3179 20.5366 41.8511 19.3179 41.8511 17.814V4.45995H41.8252Z" fill="white"/>
<path d="M53.6495 1.60767C53.6495 1.06313 53.8051 0.648253 54.1422 0.388952C54.4793 0.129651 54.9201 0 55.5165 0C55.8795 0 56.2166 0.0518602 56.5278 0.129651C56.8389 0.233371 57.0464 0.285228 57.1501 0.337088V9.10147C57.6687 8.45321 58.3688 7.90868 59.2504 7.44194C60.158 6.9752 61.1692 6.74183 62.3361 6.74183C63.4511 6.74183 64.4883 6.94927 65.4218 7.33822C66.3553 7.72717 67.185 8.29763 67.8851 9.02367C68.5853 9.74972 69.1298 10.6054 69.5447 11.5908C69.9336 12.5761 70.1411 13.6652 70.1411 14.832C70.1411 15.9989 69.9336 17.062 69.5187 18.0733C69.1039 19.0586 68.5334 19.9143 67.8074 20.6404C67.0813 21.3405 66.1997 21.9109 65.1884 22.3258C64.1771 22.7407 63.0881 22.9481 61.8694 22.9481C60.6766 22.9481 59.5616 22.7666 58.5503 22.4036C57.539 22.0406 56.6833 21.4961 55.9314 20.7441C55.2053 20.018 54.6349 19.0846 54.22 17.9955C53.8051 16.9064 53.5977 15.6099 53.5977 14.1319V1.60767H53.6495ZM61.8175 19.7587C62.5176 19.7587 63.1399 19.6291 63.7363 19.3698C64.3068 19.1105 64.8254 18.7734 65.2403 18.3326C65.6552 17.8918 65.9663 17.3732 66.1997 16.7768C66.4331 16.1804 66.5368 15.5321 66.5368 14.8061C66.5368 14.106 66.4331 13.4318 66.1997 12.8095C65.9663 12.1871 65.6552 11.6685 65.2403 11.2277C64.8254 10.7869 64.3327 10.4498 63.7363 10.1905C63.1659 9.93123 62.5176 9.80158 61.8175 9.80158C61.1174 9.80158 60.4691 9.93123 59.8727 10.1905C59.3023 10.4498 58.8096 10.7869 58.3947 11.2537C57.9798 11.6945 57.6687 12.239 57.4353 12.8354C57.2019 13.4577 57.0723 14.106 57.0723 14.7802C57.0723 15.5062 57.2019 16.1804 57.4353 16.8027C57.6687 17.425 58.0058 17.9436 58.4207 18.3585C58.8355 18.7734 59.3282 19.1105 59.9246 19.3698C60.4951 19.655 61.1174 19.7587 61.8175 19.7587Z" fill="white"/>
<path d="M72.1636 12.6279C72.1636 10.7609 72.734 9.30884 73.9009 8.27163C75.0418 7.23443 76.6495 6.74176 78.672 6.74176C79.9426 6.74176 81.0057 6.92327 81.8096 7.28629C82.6134 7.64931 83.0024 8.19384 83.0024 8.91989C83.0024 9.25698 82.8986 9.59407 82.7171 9.93116C82.5356 10.2683 82.3541 10.4498 82.2504 10.5535C81.9133 10.3979 81.4725 10.2423 80.9798 10.0867C80.4612 9.95709 79.8908 9.8793 79.2425 9.8793C76.8569 9.8793 75.6641 11.1499 75.6641 13.6651V22.5073H72.1895V12.6279H72.1636Z" fill="white"/>
<path d="M98.0419 22.4295C97.8345 22.4814 97.5233 22.5073 97.0825 22.5591C96.6417 22.611 96.1231 22.6629 95.5526 22.7147C94.9562 22.7666 94.308 22.8184 93.556 22.8444C92.83 22.8962 92.0521 22.8962 91.2742 22.8962C89.6924 22.8962 88.3959 22.7666 87.3846 22.4814C86.3734 22.1961 85.5955 21.8331 84.9991 21.3923C84.4286 20.9255 84.0137 20.4069 83.8063 19.8106C83.5988 19.2142 83.4951 18.5918 83.4951 17.9695C83.4951 17.1398 83.6248 16.4137 83.8841 15.7655C84.1434 15.1431 84.5582 14.5986 85.1287 14.1837C85.6992 13.7688 86.4771 13.4317 87.4106 13.2243C88.344 13.0169 89.485 12.9131 90.8333 12.9131C91.6112 12.9131 92.3373 12.9391 93.0374 12.9909C93.7375 13.0428 94.2561 13.0947 94.5932 13.1206C94.5932 12.4205 94.4636 11.8241 94.2561 11.3573C94.0227 10.8906 93.7116 10.5276 93.2967 10.2683C92.8818 10.009 92.3891 9.82746 91.8446 9.72374C91.2741 9.62002 90.6518 9.56816 89.9517 9.56816C88.7849 9.56816 87.8514 9.69781 87.1513 9.95711C86.4512 10.2164 85.9844 10.4498 85.751 10.6313C85.6214 10.5276 85.4658 10.3461 85.2584 10.0608C85.0509 9.7756 84.9472 9.43851 84.9472 9.02363C84.9472 8.7384 85.025 8.45317 85.1806 8.19386C85.3362 7.90863 85.5955 7.67526 85.9844 7.46782C86.3734 7.26038 86.892 7.07887 87.5402 6.97515C88.1885 6.8455 89.0182 6.79364 90.0036 6.79364C91.1964 6.79364 92.2854 6.92329 93.2967 7.15666C94.282 7.39003 95.1377 7.75305 95.8379 8.27166C96.538 8.79026 97.1084 9.46444 97.4974 10.2942C97.8863 11.124 98.0938 12.1352 98.0938 13.3021V22.4295H98.0419ZM94.5932 15.6358C94.3858 15.5839 93.9968 15.5321 93.4523 15.4543C92.8818 15.3765 92.052 15.3246 90.9371 15.3246C89.5628 15.3246 88.5515 15.5321 87.9032 15.947C87.2809 16.3619 86.9698 17.0101 86.9698 17.9177C86.9698 18.2807 87.0475 18.6178 87.1772 18.9289C87.3068 19.2401 87.5402 19.4994 87.8514 19.7068C88.1885 19.9143 88.6293 20.0958 89.1738 20.1995C89.7443 20.3032 90.4185 20.3551 91.2742 20.3551C92.2076 20.3551 92.9596 20.3292 93.5041 20.2514C94.0487 20.1736 94.4117 20.1217 94.5932 20.0958V15.6358Z" fill="white"/>
<path d="M102.891 0.311157C103.487 0.311157 103.98 0.518596 104.395 0.933478C104.81 1.34836 105.017 1.84103 105.017 2.43743C105.017 3.03382 104.81 3.52649 104.395 3.94137C103.98 4.35625 103.487 4.56369 102.891 4.56369C102.295 4.56369 101.802 4.35625 101.387 3.94137C100.972 3.52649 100.765 3.03382 100.765 2.43743C100.765 1.84103 100.972 1.34836 101.387 0.933478C101.802 0.492666 102.295 0.311157 102.891 0.311157ZM101.154 8.7903C101.154 8.21984 101.309 7.80496 101.646 7.54566C101.983 7.28635 102.424 7.1567 103.021 7.1567C103.384 7.1567 103.721 7.20856 104.032 7.28635C104.343 7.39007 104.55 7.44194 104.654 7.4938V22.4814H101.18V8.7903H101.154Z" fill="white"/>
<path d="M107.74 13.2243C107.74 12.213 107.921 11.3055 108.31 10.5016C108.673 9.69779 109.218 9.02361 109.866 8.45314C110.54 7.88268 111.318 7.4678 112.226 7.18257C113.133 6.89734 114.119 6.74176 115.208 6.74176C116.297 6.74176 117.282 6.89734 118.19 7.18257C119.097 7.4678 119.901 7.90861 120.549 8.45314C121.197 9.02361 121.716 9.69779 122.079 10.5016C122.442 11.3055 122.624 12.213 122.624 13.2243V22.4813H119.149V14.1318C119.149 12.7575 118.812 11.6944 118.138 10.9684C117.464 10.2423 116.478 9.8793 115.182 9.8793C113.859 9.8793 112.874 10.2423 112.2 10.9684C111.551 11.6944 111.214 12.7316 111.214 14.1318V22.4813H107.74V13.2243Z" fill="white"/>
<path d="M21.4442 7.6494C20.8737 6.30103 20.0958 5.13418 19.0846 4.14884C18.0733 3.16349 16.9064 2.38559 15.5581 1.84105C14.2097 1.27059 12.7317 1.01129 11.1499 1.01129C9.56821 1.01129 8.09019 1.29652 6.74183 1.84105C5.39346 2.41152 4.20068 3.16349 3.21533 4.14884C2.20406 5.13418 1.42616 6.30103 0.855693 7.6494C0.285231 8.99777 0 10.4498 0 12.0057C0 13.5615 0.285231 15.0136 0.855693 16.3619C1.42616 17.7103 2.20406 18.8771 3.21533 19.8625C4.22661 20.8478 5.39346 21.6257 6.74183 22.1703C8.09019 22.7407 9.56821 23 11.1499 23C12.7317 23 14.2097 22.7148 15.5581 22.1703C16.9064 21.5998 18.0992 20.8478 19.0846 19.8625C20.0958 18.8771 20.8737 17.7103 21.4442 16.3619C22.0147 15.0136 22.2999 13.5615 22.2999 12.0057C22.2999 10.4498 22.0147 8.99777 21.4442 7.6494ZM4.45998 11.2018C5.70462 10.7869 7.36415 10.2683 7.36415 10.2683C10.9944 9.10148 11.487 7.75312 11.487 7.75312C11.487 7.75312 12.239 9.12741 14.8839 10.009C14.8839 10.009 16.336 10.4758 17.6843 10.9685C17.7621 11.0981 17.814 11.2278 17.8918 11.3833C18.1251 11.9538 18.2807 12.5243 18.3844 13.1466H16.5175V13.1207C16.3878 12.8095 16.2063 12.5243 15.947 12.2909C15.7136 12.0575 15.4284 11.876 15.1173 11.7464C14.8061 11.6167 14.4431 11.5389 14.0801 11.5389C13.6911 11.5389 13.354 11.6167 13.0428 11.7464C12.7317 11.876 12.4465 12.0575 12.2131 12.2909C11.9797 12.5243 11.7982 12.8095 11.6426 13.1207C11.5908 13.2244 11.5648 13.3281 11.5389 13.4318H10.8388C10.8129 13.3281 10.7869 13.2244 10.7351 13.1207C10.6054 12.8095 10.4239 12.5243 10.1646 12.2909C9.93123 12.0575 9.646 11.876 9.33484 11.7464C9.02368 11.6167 8.66066 11.5389 8.29763 11.5389C7.90868 11.5389 7.57159 11.6167 7.26043 11.7464C6.94927 11.876 6.66404 12.0575 6.43067 12.2909C6.1973 12.5243 6.01579 12.8095 5.8602 13.1207C5.8602 13.1207 5.8602 13.1466 5.83427 13.1466H3.96731C4.0451 12.5243 4.22661 11.9279 4.45998 11.3833C4.40812 11.3315 4.43405 11.2796 4.45998 11.2018ZM15.6359 14.1838C15.6359 14.4172 15.584 14.5987 15.5062 14.8061C15.4284 14.9876 15.3247 15.1691 15.1691 15.2988C15.0395 15.4284 14.858 15.5581 14.6764 15.6359C14.4949 15.7137 14.2875 15.7655 14.0541 15.7655C13.8207 15.7655 13.6133 15.7137 13.4318 15.6359C13.2503 15.5581 13.0688 15.4544 12.9391 15.2988C12.8095 15.1691 12.6798 14.9876 12.602 14.8061C12.5242 14.6246 12.4724 14.4172 12.4724 14.1838C12.4724 13.9763 12.5242 13.7689 12.602 13.5615C12.6798 13.38 12.7835 13.1984 12.9391 13.0688C13.0688 12.9391 13.2503 12.8095 13.4318 12.7317C13.6133 12.6539 13.8207 12.6021 14.0541 12.6021C14.2875 12.6021 14.4949 12.6539 14.6764 12.7317C14.858 12.8095 15.0395 12.9132 15.1691 13.0688C15.2988 13.1984 15.4284 13.38 15.5062 13.5615C15.584 13.743 15.6359 13.9504 15.6359 14.1838ZM9.80158 14.1838C9.80158 14.4172 9.74972 14.5987 9.67193 14.8061C9.59414 14.9876 9.49042 15.1691 9.33484 15.2988C9.17926 15.4284 9.02368 15.5581 8.84217 15.6359C8.66066 15.7137 8.45322 15.7655 8.21984 15.7655C7.98647 15.7655 7.77903 15.7137 7.59752 15.6359C7.41601 15.5581 7.2345 15.4544 7.10485 15.2988C6.9752 15.1691 6.84555 14.9876 6.76776 14.8061C6.68997 14.6246 6.63811 14.4172 6.63811 14.1838C6.63811 13.9763 6.68997 13.7689 6.76776 13.5615C6.84555 13.38 6.94927 13.1984 7.10485 13.0688C7.2345 12.9391 7.41601 12.8095 7.59752 12.7317C7.77903 12.6539 7.98647 12.6021 8.21984 12.6021C8.45322 12.6021 8.66066 12.6539 8.84217 12.7317C9.02368 12.8095 9.20519 12.9132 9.33484 13.0688C9.46449 13.1984 9.59414 13.38 9.67193 13.5615C9.74972 13.743 9.80158 13.9504 9.80158 14.1838ZM16.336 19.3957C15.6877 20.044 14.9098 20.5367 14.0282 20.9256C13.1466 21.2886 12.1872 21.4701 11.1499 21.4701C10.1127 21.4701 9.15333 21.2886 8.2717 20.9256C7.39008 20.5626 6.61218 20.044 5.96392 19.3957C5.31567 18.7475 4.79707 17.9955 4.40812 17.1139C4.0451 16.2582 3.86359 15.3506 3.83766 14.3653H5.6009C5.62683 14.6765 5.67869 14.9617 5.80834 15.221C5.93799 15.5321 6.11951 15.8174 6.37881 16.0508C6.61218 16.2841 6.89741 16.4656 7.20857 16.5953C7.51973 16.7249 7.88275 16.8027 8.24578 16.8027C8.63473 16.8027 8.97182 16.7249 9.28298 16.5953C9.59414 16.4656 9.87937 16.2841 10.1127 16.0508C10.3461 15.8174 10.5276 15.5321 10.6832 15.221C10.761 15.0135 10.8388 14.7802 10.8647 14.5468H11.4352C11.4611 14.7802 11.513 15.0135 11.6167 15.221C11.7463 15.5321 11.9279 15.8174 12.1872 16.0508C12.4205 16.2841 12.7058 16.4656 13.0169 16.5953C13.3281 16.7249 13.6911 16.8027 14.0541 16.8027C14.4431 16.8027 14.7802 16.7249 15.0913 16.5953C15.4025 16.4656 15.6877 16.2841 15.9211 16.0508C16.1545 15.8174 16.336 15.5321 16.4915 15.221C16.5953 14.9617 16.6731 14.6765 16.699 14.3653H18.4622C18.4622 15.3506 18.2548 16.2841 17.9177 17.1139C17.5288 17.9955 17.0102 18.7734 16.336 19.3957Z" fill="white"/>
</svg>
