<svg width="56" height="32" viewBox="0 0 56 32" fill="none" xmlns="http://www.w3.org/2000/svg">
<mask id="mask0_1_115" style="mask-type:luminance" maskUnits="userSpaceOnUse" x="0" y="0" width="56" height="32">
<path d="M55.951 0H0V31.0805H55.951V0Z" fill="white"/>
</mask>
<g mask="url(#mask0_1_115)">
<path d="M17.7213 22.076V14.0711C17.7213 12.3141 16.2976 10.8827 14.533 10.8827C12.776 10.8827 11.3447 12.3065 11.3447 14.0711V22.0002H8.86067V14.0711C8.86067 12.3141 7.43691 10.8827 5.67235 10.8827C5.25582 10.8827 4.83929 10.9661 4.45306 11.1251C3.26406 11.6173 2.48402 12.7761 2.48402 14.0711V22.0002H0V8.78496H2.56732V10.2617C4.39247 8.14881 7.5808 7.92162 9.69373 9.74676C10.1405 10.133 10.5192 10.6025 10.807 11.1175C12.0641 8.62593 15.101 7.62626 17.5926 8.87584C19.3647 9.76948 20.4477 11.6174 20.3644 13.6015V21.9927L17.7213 22.076ZM38.0782 22.076V10.8827L40.6455 12.4428V22.0002L38.0782 22.076ZM44.8411 15.3131C44.8411 15.6009 44.8714 15.8811 44.9244 16.1613C44.9774 16.4415 45.0607 16.7141 45.1667 16.9792C45.606 18.047 46.4542 18.8952 47.522 19.3345C47.7871 19.4405 48.0597 19.5238 48.3399 19.5844C48.9003 19.698 49.4759 19.698 50.0363 19.5844C50.3165 19.5314 50.5891 19.4481 50.8542 19.3345C51.1193 19.2284 51.3692 19.0921 51.604 18.9331C52.0811 18.615 52.49 18.2061 52.8081 17.7289C53.785 16.2673 53.785 14.3589 52.8081 12.8897C52.49 12.4125 52.0811 12.0036 51.604 11.6855C50.8921 11.2084 50.0439 10.9509 49.1881 10.9509C48.6125 10.9509 48.037 11.0645 47.5068 11.2917C46.9767 11.5113 46.492 11.8445 46.0831 12.2535C45.8786 12.458 45.6968 12.6852 45.5454 12.9275C45.0683 13.6545 44.8259 14.5179 44.8411 15.3888V15.3131ZM42.3495 15.3131C42.3495 13.5485 43.0386 11.8521 44.2731 10.5874C45.5075 9.32266 47.1888 8.59563 48.9533 8.55019C50.5891 8.54262 52.1719 9.15605 53.3837 10.2617V5.05136L55.951 3.57458V21.9927H53.3837V20.4402C52.1719 21.5458 50.5891 22.1593 48.9533 22.1517C48.5141 22.1441 48.0673 22.0987 47.6356 22.0078C46.7647 21.8261 45.9468 21.4701 45.2122 20.9703C44.4776 20.4704 43.8565 19.8267 43.3719 19.0845C42.6448 17.9637 42.2586 16.6535 42.2737 15.3131H42.3495ZM24.4767 15.3131C24.4767 15.6009 24.507 15.8811 24.56 16.1613C24.613 16.4415 24.6963 16.7141 24.8099 16.9792C25.2491 18.047 26.0973 18.8952 27.1652 19.3345C27.4302 19.4405 27.7029 19.5238 27.9831 19.5844C28.5435 19.698 29.119 19.698 29.6795 19.5844C29.9597 19.5314 30.2323 19.4481 30.4974 19.3345C31.2926 19.0012 31.9742 18.4484 32.4513 17.7289C33.4282 16.2673 33.4282 14.3589 32.4513 12.8897C32.1332 12.4125 31.7242 12.0036 31.2471 11.6855C30.77 11.3674 30.2399 11.1478 29.6795 11.0342C29.3993 10.9812 29.1191 10.9509 28.8313 10.9509C28.2557 10.9509 27.6801 11.0645 27.15 11.2917C26.6199 11.5113 26.1352 11.8445 25.7262 12.2535C25.5218 12.458 25.34 12.6852 25.1885 12.9275C25.0295 13.1699 24.9008 13.4273 24.7947 13.6924C24.5827 14.2301 24.4767 14.8057 24.4842 15.3888L24.4767 15.3131ZM22.9242 24.9462L25.0977 23.7042C26.3245 25.7263 28.9524 26.37 30.9669 25.1431C32.2544 24.3631 33.0344 22.962 33.0268 21.455V20.4402C31.8151 21.5458 30.2323 22.1593 28.5965 22.1517C28.1572 22.1441 27.7104 22.0987 27.2788 22.0078C26.4078 21.8261 25.5899 21.4701 24.8553 20.9703C23.7496 20.213 22.9014 19.1451 22.4016 17.9031C22.235 17.4942 22.1138 17.0625 22.0305 16.6308C21.4171 13.4879 23.0832 10.3375 26.0367 9.08789C26.4381 8.91371 26.8622 8.78496 27.2939 8.69408C27.7256 8.60321 28.1648 8.55777 28.6041 8.55019C30.2399 8.54262 31.8227 9.15605 33.0344 10.2617V7.92919L35.5942 9.48927V21.455C35.5487 25.234 32.4513 28.2557 28.6722 28.2103C26.3245 28.18 24.151 26.9531 22.9242 24.9462Z" fill="white"/>
<path d="M36.0561 3.11255L33.0269 4.43029L40.7213 8.78489L43.2053 7.30812L36.0561 3.11255Z" fill="white"/>
<path d="M38.0781 7.30816L40.7212 8.86067L55.9509 0L38.0781 7.30816Z" fill="white"/>
</g>
</svg>
