<svg width="36" height="36" viewBox="0 0 36 36" fill="none" xmlns="http://www.w3.org/2000/svg">
<g clip-path="url(#clip0_1_282)">
<path d="M18 0C8.0745 0 0 8.0745 0 18C0 27.9255 8.0745 36 18 36C27.9255 36 36 27.9255 36 18C36 8.0745 27.9255 0 18 0ZM23.301 20.2665L19.9395 27.5505C19.6725 28.1295 19.0935 28.5 18.456 28.5H18.1365C17.2335 28.5 16.5015 27.768 16.5015 26.865V23.3175C16.5015 22.794 16.293 22.2915 15.9225 21.921L14.1375 20.136C13.7295 19.728 13.5 19.1745 13.5 18.5985V17.154C13.5 16.7355 13.3335 16.3335 13.0365 16.0365L12.477 15.477C12.171 15.171 11.757 15 11.325 15H8.4015C7.8255 15 7.275 14.7645 6.8775 14.346L4.3905 11.7315C6.771 6.5865 11.9685 3 18 3C18.309 3 18.6105 3.0285 18.9135 3.0465C18.114 4.2585 17.3895 5.373 16.95 6.054C16.6725 6.4815 16.6665 7.026 16.929 7.464L18.1845 9.558C18.5175 10.1115 18.429 10.821 17.973 11.2785L17.9685 11.283C17.5395 11.712 16.8855 11.8185 16.3425 11.547L15.0225 10.887C14.562 10.656 14.0055 10.7475 13.641 11.1105L12.8475 11.904C12.3795 12.372 12.3795 13.1295 12.8475 13.596L13.7355 14.484C14.0655 14.814 14.514 15 14.9805 15H17.127C17.6985 15 18.258 15.1605 18.7425 15.4635L22.5855 17.865C23.394 18.3705 23.7015 19.3995 23.301 20.2665ZM29.286 18.39C28.788 18.1425 28.4235 17.6895 28.2885 17.1495L27.348 13.389C27.1425 12.567 27.507 11.7075 28.2405 11.2845L30.615 9.915C32.118 12.2505 33 15.0225 33 18C33 18.732 32.9295 19.4445 32.8275 20.148L29.286 18.39Z" fill="#81BD52"/>
</g>
<defs>
<clipPath id="clip0_1_282">
<rect width="36" height="36" fill="white"/>
</clipPath>
</defs>
</svg>
