<svg width="36" height="34" viewBox="0 0 36 34" fill="none" xmlns="http://www.w3.org/2000/svg">
<g clip-path="url(#clip0_1_278)">
<path d="M0 12.0234V25.5234C0.00238179 27.5118 0.793323 29.4181 2.19933 30.8241C3.60534 32.2301 5.51161 33.0211 7.5 33.0234H28.5C30.4884 33.0211 32.3947 32.2301 33.8007 30.8241C35.2067 29.4181 35.9976 27.5118 36 25.5234V12.0234H0ZM21 27.0234H9C8.60218 27.0234 8.22064 26.8654 7.93934 26.5841C7.65804 26.3028 7.5 25.9213 7.5 25.5234C7.5 25.1256 7.65804 24.7441 7.93934 24.4628C8.22064 24.1815 8.60218 24.0234 9 24.0234H21C21.3978 24.0234 21.7794 24.1815 22.0607 24.4628C22.342 24.7441 22.5 25.1256 22.5 25.5234C22.5 25.9213 22.342 26.3028 22.0607 26.5841C21.7794 26.8654 21.3978 27.0234 21 27.0234ZM27 21.0234H9C8.60218 21.0234 8.22064 20.8654 7.93934 20.5841C7.65804 20.3028 7.5 19.9213 7.5 19.5234C7.5 19.1256 7.65804 18.7441 7.93934 18.4628C8.22064 18.1815 8.60218 18.0234 9 18.0234H27C27.3978 18.0234 27.7794 18.1815 28.0607 18.4628C28.342 18.7441 28.5 19.1256 28.5 19.5234C28.5 19.9213 28.342 20.3028 28.0607 20.5841C27.7794 20.8654 27.3978 21.0234 27 21.0234ZM36 9.02344V7.52344C35.9976 5.53505 35.2067 3.62877 33.8007 2.22277C32.3947 0.81676 30.4884 0.0258193 28.5 0.0234375H7.5C5.51161 0.0258193 3.60534 0.81676 2.19933 2.22277C0.793323 3.62877 0.00238179 5.53505 0 7.52344L0 9.02344H36ZM15 3.02344C15.2967 3.02344 15.5867 3.11141 15.8334 3.27623C16.08 3.44106 16.2723 3.67532 16.3858 3.94941C16.4994 4.2235 16.5291 4.5251 16.4712 4.81607C16.4133 5.10704 16.2704 5.37432 16.0607 5.5841C15.8509 5.79388 15.5836 5.93674 15.2926 5.99462C15.0017 6.05249 14.7001 6.02279 14.426 5.90926C14.1519 5.79573 13.9176 5.60347 13.7528 5.35679C13.588 5.11012 13.5 4.82011 13.5 4.52344C13.5 4.12561 13.658 3.74408 13.9393 3.46278C14.2206 3.18147 14.6022 3.02344 15 3.02344ZM10.5 3.02344C10.7967 3.02344 11.0867 3.11141 11.3334 3.27623C11.58 3.44106 11.7723 3.67532 11.8858 3.94941C11.9994 4.2235 12.0291 4.5251 11.9712 4.81607C11.9133 5.10704 11.7704 5.37432 11.5607 5.5841C11.3509 5.79388 11.0836 5.93674 10.7926 5.99462C10.5017 6.05249 10.2001 6.02279 9.92597 5.90926C9.65189 5.79573 9.41762 5.60347 9.2528 5.35679C9.08797 5.11012 9 4.82011 9 4.52344C9 4.12561 9.15804 3.74408 9.43934 3.46278C9.72064 3.18147 10.1022 3.02344 10.5 3.02344ZM6 3.02344C6.29667 3.02344 6.58668 3.11141 6.83335 3.27623C7.08003 3.44106 7.27229 3.67532 7.38582 3.94941C7.49935 4.2235 7.52906 4.5251 7.47118 4.81607C7.4133 5.10704 7.27044 5.37432 7.06066 5.5841C6.85088 5.79388 6.58361 5.93674 6.29264 5.99462C6.00166 6.05249 5.70006 6.02279 5.42597 5.90926C5.15189 5.79573 4.91762 5.60347 4.7528 5.35679C4.58797 5.11012 4.5 4.82011 4.5 4.52344C4.5 4.12561 4.65804 3.74408 4.93934 3.46278C5.22064 3.18147 5.60218 3.02344 6 3.02344Z" fill="#81BD52"/>
</g>
<defs>
<clipPath id="clip0_1_278">
<rect width="36" height="33.0469" fill="white"/>
</clipPath>
</defs>
</svg>
