<svg width="36" height="27" viewBox="0 0 36 27" fill="none" xmlns="http://www.w3.org/2000/svg">
<g clip-path="url(#clip0_1_2181)">
<path d="M28.5 0H7.5C3.3585 0 0 3.3585 0 7.5V19.5C0 23.6415 3.3585 27 7.5 27H28.5C32.6415 27 36 23.6415 36 19.5V7.5C36 3.3585 32.6415 0 28.5 0ZM10.203 21.5385C7.3395 20.865 5.097 18.4515 4.6095 15.5505C3.906 11.364 6.675 7.677 10.5 6.9V13.6275C10.5 14.4225 10.8165 15.186 11.379 15.7485L16.1325 20.502C14.493 21.588 12.408 22.056 10.203 21.5385ZM18.252 18.381L13.938 14.067C13.656 13.785 13.4985 13.404 13.4985 13.0065V6.9015C16.9215 7.596 19.4985 10.6215 19.4985 14.25C19.4985 15.7785 19.0365 17.196 18.2505 18.381H18.252ZM30 21H25.5C24.672 21 24 20.328 24 19.5C24 18.672 24.672 18 25.5 18H30C30.828 18 31.5 18.672 31.5 19.5C31.5 20.328 30.828 21 30 21ZM30 15H25.5C24.672 15 24 14.328 24 13.5C24 12.672 24.672 12 25.5 12H30C30.828 12 31.5 12.672 31.5 13.5C31.5 14.328 30.828 15 30 15ZM30 9H25.5C24.672 9 24 8.328 24 7.5C24 6.672 24.672 6 25.5 6H30C30.828 6 31.5 6.672 31.5 7.5C31.5 8.328 30.828 9 30 9Z" fill="#81BD52"/>
</g>
<defs>
<clipPath id="clip0_1_2181">
<rect width="36" height="27" fill="white"/>
</clipPath>
</defs>
</svg>
