<svg width="36" height="36" viewBox="0 0 36 36" fill="none" xmlns="http://www.w3.org/2000/svg">
<g clip-path="url(#clip0_1_2183)">
<path d="M0 28.5C0 32.6355 3.3645 36 7.5 36H28.5C32.6355 36 36 32.6355 36 28.5V15H0V28.5ZM12.5955 23.5155H15.966L16.86 20.091C17.001 19.548 17.4885 19.17 18.048 19.1595C18.6075 19.17 19.095 19.548 19.236 20.091L20.13 23.5155H23.5005C24.1785 23.5155 24.597 24.0465 24.597 24.5295C24.597 25.098 24.201 25.5765 23.748 25.8285L21.402 27.1335L22.443 29.973C22.644 30.5235 22.4625 31.14 21.9945 31.4925C21.516 31.8525 20.856 31.848 20.382 31.482L18.048 29.6775L15.714 31.482C15.24 31.848 14.58 31.8525 14.1015 31.4925C13.6335 31.14 13.452 30.5235 13.653 29.973L14.694 27.1335L12.348 25.8285C11.895 25.5765 11.499 25.098 11.499 24.5295C11.499 24.048 11.9175 23.5155 12.5955 23.5155ZM36 10.5V12H0V10.5C0 6.3645 3.3645 3 7.5 3H9V1.5C9 0.672 9.672 0 10.5 0C11.328 0 12 0.672 12 1.5V3H24V1.5C24 0.672 24.672 0 25.5 0C26.328 0 27 0.672 27 1.5V3H28.5C32.6355 3 36 6.3645 36 10.5Z" fill="#81BD52"/>
</g>
<defs>
<clipPath id="clip0_1_2183">
<rect width="36" height="36" fill="white"/>
</clipPath>
</defs>
</svg>
