<svg width="36" height="36" viewBox="0 0 36 36" fill="none" xmlns="http://www.w3.org/2000/svg">
<g clip-path="url(#clip0_1_2179)">
<path d="M35.9985 22.4991V28.4988C35.9985 29.3283 35.328 29.9988 34.4986 29.9988C33.6691 29.9988 32.9986 29.3283 32.9986 28.4988V24.593L26.4799 31.1102C25.0565 32.5366 22.5681 32.5381 21.1401 31.1102L19.4842 29.4543C19.1917 29.1618 18.6802 29.1633 18.3907 29.4543L12.313 35.559C12.0205 35.8515 11.635 36 11.2495 36C10.867 36 10.4831 35.8545 10.1906 35.5635C9.6041 34.9785 9.6011 34.0291 10.1861 33.4411L16.2653 27.3364C17.6948 25.9069 20.1802 25.9069 21.6081 27.3364L23.264 28.9923C23.5565 29.2848 24.068 29.2833 24.3575 28.9923L30.8507 22.5006H26.9989C26.1694 22.5006 25.4989 21.8301 25.4989 21.0006C25.4989 20.1712 26.1694 19.5007 26.9989 19.5007H32.9986C34.6531 19.5007 35.9985 20.8461 35.9985 22.5006V22.4991ZM14.1399 25.2169L7.0947 32.2787C2.79438 28.9908 0 23.831 0 17.9993C0 8.05917 8.05917 0 17.9993 0C27.7083 0 35.601 7.69318 35.964 17.3153C35.085 16.8113 34.0816 16.4993 32.9986 16.4993H26.9989C24.518 16.4993 22.4991 18.5182 22.4991 20.9991C22.4991 22.5231 23.264 23.867 24.4265 24.6815L23.8115 25.2964L23.7305 25.2155C22.4931 23.9765 20.7471 23.264 18.9412 23.2625H18.9367C17.1308 23.2625 15.3834 23.972 14.1399 25.2169ZM12.1705 23.1365L18.7822 19.0927C19.2292 18.8182 19.5007 18.3352 19.5007 17.8118V8.99813C19.5007 8.16866 18.8302 7.49819 18.0008 7.49819C17.1713 7.49819 16.5008 8.16866 16.5008 8.99813V16.9703L10.6061 20.5746C9.89809 21.0081 9.6761 21.9306 10.1081 22.6371C10.3916 23.1005 10.885 23.3555 11.389 23.3555C11.656 23.3555 11.926 23.285 12.1705 23.1365Z" fill="#81BD52"/>
</g>
<defs>
<clipPath id="clip0_1_2179">
<rect width="35.9985" height="36" fill="white"/>
</clipPath>
</defs>
</svg>
