<svg width="36" height="33" viewBox="0 0 36 33" fill="none" xmlns="http://www.w3.org/2000/svg">
<path d="M28.5 0H7.5C3.3645 0 0 3.3645 0 7.5V19.5C0 23.6355 3.3645 27 7.5 27H16.5V30H10.5C9.672 30 9 30.6705 9 31.5C9 32.3295 9.672 33 10.5 33H25.5C26.328 33 27 32.3295 27 31.5C27 30.6705 26.328 30 25.5 30H19.5V27H28.5C32.6355 27 36 23.6355 36 19.5V7.5C36 3.3645 32.6355 0 28.5 0ZM10.9395 14.5605L14.814 18.4365C15.4005 19.023 15.4005 19.971 14.814 20.5575C14.5215 20.85 14.1375 20.997 13.7535 20.997C13.3695 20.997 12.9855 20.85 12.693 20.5575L8.8185 16.6815C7.0635 14.9265 7.0635 12.0735 8.8185 10.3185L12.693 6.4425C13.2795 5.856 14.2275 5.856 14.814 6.4425C15.4005 7.029 15.4005 7.977 14.814 8.5635L10.9395 12.4395C10.3545 13.0245 10.3545 13.9755 10.9395 14.5605ZM27.1815 16.6815L23.307 20.5575C23.0145 20.85 22.6305 20.997 22.2465 20.997C21.8625 20.997 21.4785 20.85 21.186 20.5575C20.5995 19.971 20.5995 19.023 21.186 18.4365L25.0605 14.5605C25.6455 13.9755 25.6455 13.0245 25.0605 12.4395L21.186 8.5635C20.5995 7.977 20.5995 7.029 21.186 6.4425C21.7725 5.856 22.7205 5.856 23.307 6.4425L27.1815 10.3185C28.9365 12.0735 28.9365 14.9265 27.1815 16.6815Z" fill="#81BD52"/>
</svg>
