<svg width="36" height="36" viewBox="0 0 36 36" fill="none" xmlns="http://www.w3.org/2000/svg">
<g clip-path="url(#clip0_1_3318)">
<path d="M28.0605 33.4395L24.255 29.634C25.041 28.4475 25.5 27.027 25.5 25.5C25.5 21.3645 22.1355 18 18 18C13.8645 18 10.5 21.3645 10.5 25.5C10.5 29.6355 13.8645 33 18 33C19.527 33 20.9475 32.541 22.134 31.755L25.9395 35.5605C26.232 35.853 26.616 36 27 36C27.384 36 27.768 35.853 28.0605 35.5605C28.647 34.974 28.647 34.026 28.0605 33.4395ZM28.5 0H7.5C3.3585 0 0 3.3585 0 7.5V15C0 19.1415 3.3585 22.5 7.5 22.5H7.935C9.2265 18.1635 13.2435 15 18 15C22.7565 15 26.7735 18.1635 28.065 22.5H28.5C32.6415 22.5 36 19.1415 36 15V7.5C36 3.3585 32.6415 0 28.5 0ZM12.6075 8.343L12.1365 13.8315C12.09 14.4915 11.631 15 11.0775 15C10.7115 15 10.371 14.7735 10.176 14.4L8.9295 12L7.683 14.4C7.4895 14.7735 7.149 15 6.7815 15C6.2295 15 5.769 14.4915 5.7225 13.8315L5.2515 8.343C5.2125 7.89 5.5695 7.5 6.024 7.5C6.429 7.5 6.765 7.8105 6.798 8.2155L7.116 12.237L8.241 10.0725C8.5305 9.5145 9.3285 9.5145 9.618 10.0725L10.743 12.237L11.058 8.2155C11.0895 7.812 11.427 7.5 11.832 7.5H11.835C12.2895 7.5 12.6465 7.89 12.6075 8.343ZM21.5745 8.343L21.1035 13.8315C21.057 14.4915 20.598 15 20.0445 15C19.6785 15 19.338 14.7735 19.143 14.4L17.8965 12L16.65 14.4C16.4565 14.7735 16.116 15 15.7485 15C15.1965 15 14.736 14.4915 14.6895 13.8315L14.2185 8.343C14.1795 7.89 14.5365 7.5 14.991 7.5C15.396 7.5 15.732 7.8105 15.765 8.2155L16.083 12.237L17.208 10.0725C17.4975 9.5145 18.2955 9.5145 18.585 10.0725L19.71 12.237L20.025 8.2155C20.0565 7.812 20.394 7.5 20.799 7.5H20.802C21.2565 7.5 21.6135 7.89 21.5745 8.343ZM30.6075 8.343L30.1365 13.8315C30.09 14.4915 29.631 15 29.0775 15C28.7115 15 28.371 14.7735 28.176 14.4L26.9295 12L25.683 14.4C25.4895 14.7735 25.149 15 24.7815 15C24.2295 15 23.769 14.4915 23.7225 13.8315L23.2515 8.343C23.2125 7.89 23.5695 7.5 24.024 7.5C24.429 7.5 24.765 7.8105 24.798 8.2155L25.116 12.237L26.241 10.0725C26.5305 9.5145 27.3285 9.5145 27.618 10.0725L28.743 12.237L29.058 8.2155C29.0895 7.812 29.427 7.5 29.832 7.5H29.835C30.2895 7.5 30.6465 7.89 30.6075 8.343Z" fill="#81BD52"/>
</g>
<defs>
<clipPath id="clip0_1_3318">
<rect width="36" height="36" fill="white"/>
</clipPath>
</defs>
</svg>
