<svg width="36" height="36" viewBox="0 0 36 36" fill="none" xmlns="http://www.w3.org/2000/svg">
<path d="M35.3935 35.4912C34.8082 36.0765 33.862 36.0765 33.2767 35.4912L31.6643 33.8788L29.0804 31.2949L24.9095 35.4657C24.5487 35.8295 24.0217 35.9792 23.5262 35.8699C23.0277 35.7592 22.619 35.4014 22.4438 34.9193L17.5589 21.492C17.1576 20.3872 17.4241 19.185 18.2565 18.3527C19.0859 17.5218 20.2865 17.2538 21.3944 17.658L34.8202 22.5415C35.3007 22.7151 35.66 23.1253 35.7708 23.6239C35.8801 24.1239 35.7304 24.6464 35.3666 25.0072L31.1957 29.178L33.7797 31.762L35.392 33.3743C35.9774 33.9597 35.9789 34.9058 35.3935 35.4912ZM13.388 22.4621C13.7054 21.6971 13.3431 20.8213 12.5796 20.504C6.59578 18.0487 8.40275 8.96599 14.8731 8.98246C17.3074 8.98246 19.4811 10.4361 20.4108 12.6862C20.7267 13.4527 21.604 13.8135 22.366 13.4976C23.131 13.1818 23.4933 12.3075 23.1774 11.5425C21.7836 8.16805 18.5245 5.9883 14.8731 5.9883C5.12565 6.03921 2.44738 19.5069 11.4313 23.2706C11.6185 23.3484 11.8131 23.3843 12.0047 23.3843C12.5916 23.3843 13.1485 23.0385 13.388 22.4621ZM16.3702 28.4444C16.3702 27.6166 15.6995 26.9474 14.8731 26.9474C-0.977928 26.3845 -0.974934 3.55406 14.8731 2.99415C21.4767 2.99415 26.8497 8.36716 26.8497 14.9708C26.8497 15.7986 27.5189 16.4678 28.3468 16.4678C29.1747 16.4678 29.8439 15.7986 29.8439 14.9708C29.8439 6.71588 23.128 0 14.8731 0C-4.96015 0.753029 -4.95566 29.1915 14.8731 29.9415C15.6995 29.9415 16.3702 29.2723 16.3702 28.4444Z" fill="#81BD52"/>
</svg>
