<svg width="36" height="36" viewBox="0 0 36 36" fill="none" xmlns="http://www.w3.org/2000/svg">
<g clip-path="url(#clip0_1_2557)">
<path d="M30.0001 15V21C29.9967 22.1582 29.7239 23.2998 29.2032 24.3344C28.6825 25.369 27.9283 26.2682 27.0001 26.961V22.5C26.9965 19.7163 25.8891 17.0477 23.9207 15.0793C21.9524 13.111 19.2837 12.0036 16.5001 12H7.50006C7.20006 12 6.90006 12.0195 6.61206 12.045C7.19093 10.6976 8.15168 9.54914 9.37574 8.74146C10.5998 7.93378 12.0336 7.5022 13.5001 7.5H22.5001C24.4885 7.50238 26.3947 8.29332 27.8007 9.69933C29.2067 11.1053 29.9977 13.0116 30.0001 15ZM17.3911 27.8655C17.1124 28.1444 16.7816 28.3657 16.4174 28.5167C16.0532 28.6677 15.6628 28.7454 15.2686 28.7454C14.8743 28.7454 14.4839 28.6677 14.1197 28.5167C13.7555 28.3657 13.4247 28.1444 13.1461 27.8655L12.4321 27.1455L3.56856 34.8375C4.7554 35.5929 6.13223 35.996 7.53906 36H16.5391C18.5275 35.9976 20.4337 35.2067 21.8397 33.8007C23.2457 32.3947 24.0367 30.4884 24.0391 28.5V22.5C24.031 22.0974 23.9903 21.6961 23.9176 21.3L17.3911 27.8655ZM22.7176 18.2655L15.2746 25.7565L14.5621 25.038C14.0313 24.5026 13.3179 24.1874 12.5646 24.1557C11.8114 24.124 11.0739 24.3781 10.5001 24.867L1.38306 32.7645C0.508587 31.5143 0.0394107 30.0257 0.0390625 28.5V22.5C0.0414443 20.5116 0.832385 18.6053 2.23839 17.1993C3.6444 15.7933 5.55067 15.0024 7.53906 15H16.5391C17.7564 15.0016 18.955 15.2994 20.0314 15.8678C21.1079 16.4362 22.0298 17.2581 22.7176 18.2625V18.2655ZM7.50006 21.15C7.50006 20.8533 7.41209 20.5633 7.24727 20.3166C7.08244 20.07 6.84818 19.8777 6.57409 19.7642C6.3 19.6507 5.9984 19.6209 5.70743 19.6788C5.41646 19.7367 5.14918 19.8796 4.9394 20.0893C4.72962 20.2991 4.58676 20.5664 4.52888 20.8574C4.47101 21.1483 4.50071 21.4499 4.61424 21.724C4.72777 21.9981 4.92003 22.2324 5.16671 22.3972C5.41338 22.562 5.70339 22.65 6.00006 22.65C6.39789 22.65 6.77942 22.492 7.06072 22.2107C7.34203 21.9294 7.50006 21.5478 7.50006 21.15ZM28.5001 0H19.5001C18.0365 0.00356741 16.6061 0.435771 15.3854 1.24323C14.1648 2.05068 13.2074 3.19801 12.6316 4.5435C12.9181 4.521 13.2076 4.5 13.5001 4.5H22.5001C25.2837 4.50357 27.9524 5.61097 29.9207 7.57932C31.8891 9.54768 32.9965 12.2163 33.0001 15V19.461C33.9282 18.7682 34.6825 17.869 35.2032 16.8344C35.7239 15.7998 35.9967 14.6582 36.0001 13.5V7.5C35.9977 5.51161 35.2067 3.60534 33.8007 2.19933C32.3947 0.793323 30.4885 0.00238179 28.5001 0Z" fill="#81BD52"/>
</g>
<defs>
<clipPath id="clip0_1_2557">
<rect width="36" height="36" fill="white"/>
</clipPath>
</defs>
</svg>
