<svg width="36" height="36" viewBox="0 0 36 36" fill="none" xmlns="http://www.w3.org/2000/svg">
<rect width="36" height="36" rx="6" fill="#81BD52"/>
<g clip-path="url(#clip0_2029_238)">
<path d="M12.9202 7.26073L10.8775 9.30856L6.89227 5.3167C6.68875 5.11974 6.41616 5.01076 6.13322 5.01322C5.85028 5.01569 5.57962 5.1294 5.37954 5.32987C5.17947 5.53033 5.06598 5.80152 5.06352 6.08501C5.06106 6.3685 5.16983 6.64162 5.3664 6.84554L9.3505 10.8385L7.30665 12.8852C7.15565 13.0366 7.05287 13.2294 7.01132 13.4393C6.96977 13.6492 6.99132 13.8668 7.07324 14.0644C7.15517 14.262 7.29378 14.4309 7.47153 14.5495C7.64928 14.6681 7.85817 14.7313 8.07175 14.7309H13.2127C13.6236 14.7309 14.0178 14.5673 14.3084 14.2761C14.599 13.985 14.7623 13.59 14.7623 13.1783V8.02732C14.7627 7.81332 14.6997 7.60402 14.5812 7.42593C14.4628 7.24783 14.2943 7.10895 14.0971 7.02687C13.8998 6.94478 13.6827 6.92319 13.4732 6.96482C13.2637 7.00645 13.0713 7.10944 12.9202 7.26073Z" fill="white"/>
<path d="M26.6491 25.1107L28.6929 23.0628C28.8436 22.9114 28.946 22.7187 28.9874 22.509C29.0287 22.2992 29.0071 22.0819 28.9252 21.8845C28.8433 21.6871 28.7048 21.5185 28.5273 21.3999C28.3498 21.2813 28.1412 21.2181 27.9278 21.2183H22.7869C22.3759 21.2183 21.9818 21.3818 21.6912 21.673C21.4006 21.9642 21.2373 22.3591 21.2373 22.7709V27.9218C21.2371 28.1357 21.3003 28.3449 21.4188 28.5228C21.5373 28.7007 21.7058 28.8395 21.903 28.9214C22.1002 29.0034 22.3172 29.0249 22.5266 28.9832C22.736 28.9415 22.9284 28.8386 23.0794 28.6873L25.1221 26.6406L29.1062 30.6325C29.3098 30.8294 29.5823 30.9384 29.8653 30.9359C30.1482 30.9335 30.4189 30.8198 30.619 30.6193C30.819 30.4188 30.9325 30.1476 30.935 29.8641C30.9374 29.5807 30.8287 29.3075 30.6321 29.1036L26.6491 25.1107Z" fill="white"/>
<path d="M22.7869 14.7309H27.9278C28.1413 14.7311 28.3501 14.6678 28.5276 14.5491C28.7052 14.4303 28.8437 14.2615 28.9255 14.0639C29.0073 13.8663 29.0287 13.6489 28.9871 13.4391C28.9456 13.2293 28.8428 13.0365 28.6919 12.8853L26.6491 10.8385L30.6332 6.84665C30.8357 6.64391 30.9495 6.36888 30.9496 6.08207C30.9497 5.79525 30.8361 5.52014 30.6337 5.31726C30.4314 5.11438 30.1569 5.00035 29.8706 5.00024C29.5844 5.00014 29.3098 5.11398 29.1073 5.31672L25.1221 9.30859L23.0794 7.26076C22.9283 7.10946 22.7359 7.00648 22.5264 6.96485C22.3169 6.92321 22.0997 6.94481 21.9025 7.02689C21.7053 7.10898 21.5368 7.24786 21.4183 7.42596C21.2999 7.60405 21.2369 7.81335 21.2373 8.02734V13.1783C21.2373 13.5901 21.4006 13.985 21.6912 14.2762C21.9818 14.5673 22.3759 14.7309 22.7869 14.7309Z" fill="white"/>
<path d="M13.2128 21.2183H8.0719C7.85841 21.2181 7.64967 21.2814 7.47209 21.4001C7.29451 21.5188 7.15606 21.6877 7.07427 21.8852C6.99248 22.0828 6.97102 22.3003 7.0126 22.5101C7.05419 22.7199 7.15695 22.9126 7.30788 23.0639L9.35066 25.1107L5.36655 29.1036C5.26348 29.2033 5.18128 29.3227 5.12472 29.4546C5.06816 29.5865 5.0384 29.7284 5.03715 29.8719C5.03591 30.0155 5.06321 30.1579 5.11747 30.2907C5.17173 30.4236 5.25185 30.5443 5.35318 30.6459C5.4545 30.7474 5.57498 30.8277 5.7076 30.882C5.84022 30.9364 5.98232 30.9637 6.1256 30.9625C6.26889 30.9613 6.41049 30.9314 6.54215 30.8748C6.6738 30.8181 6.79288 30.7357 6.89242 30.6325L10.8776 26.6406L12.9215 28.6884C13.0726 28.8393 13.2649 28.942 13.4742 28.9834C13.6836 29.0248 13.9004 29.0032 14.0974 28.9211C14.2945 28.8391 14.4628 28.7004 14.5812 28.5225C14.6995 28.3446 14.7626 28.1356 14.7624 27.9218V22.7709C14.7624 22.3591 14.5992 21.9642 14.3086 21.673C14.018 21.3818 13.6238 21.2183 13.2128 21.2183Z" fill="white"/>
</g>
<defs>
<clipPath id="clip0_2029_238">
<rect width="26" height="26" fill="white" transform="translate(5 5)"/>
</clipPath>
</defs>
</svg>
