<svg width="36" height="33" viewBox="0 0 36 33" fill="none" xmlns="http://www.w3.org/2000/svg">
<g clip-path="url(#clip0_1_2940)">
<path d="M0 25.5C0 29.6355 3.3645 33 7.5 33H28.5C32.6355 33 36 29.6355 36 25.5V13.5H0V25.5ZM21 18H27C27.8295 18 28.5 18.672 28.5 19.5C28.5 20.328 27.8295 21 27 21H21C20.1705 21 19.5 20.3295 19.5 19.5C19.5 18.6705 20.1705 18 21 18ZM21 25.5H27C27.8295 25.5 28.5 26.1705 28.5 27C28.5 27.8295 27.8295 28.5 27 28.5H21C20.1705 28.5 19.5 27.8295 19.5 27C19.5 26.1705 20.1705 25.5 21 25.5ZM7.5405 17.9925C8.1105 17.3895 9.06 17.3655 9.66 17.934L11.1825 19.374L13.9395 16.617C14.526 16.0305 15.474 16.0305 16.0605 16.617C16.647 17.2035 16.647 18.1515 16.0605 18.738L13.0875 21.711C12.5595 22.239 11.874 22.503 11.1885 22.503C10.527 22.503 9.864 22.257 9.3435 21.7635L7.599 20.109C6.9975 19.5405 6.972 18.591 7.542 17.9895L7.5405 17.9925ZM7.5405 25.4925C8.1105 24.891 9.06 24.8655 9.66 25.4355L11.1825 26.8755L13.9395 24.1185C14.526 23.532 15.474 23.532 16.0605 24.1185C16.647 24.705 16.647 25.653 16.0605 26.2395L13.0875 29.2125C12.5595 29.7405 11.874 30.0045 11.1885 30.0045C10.527 30.0045 9.864 29.7585 9.3435 29.265L7.599 27.6105C6.9975 27.042 6.972 26.091 7.542 25.491L7.5405 25.4925ZM28.5 0H7.5C3.3645 0 0 3.3645 0 7.5V10.5H36V7.5C36 3.3645 32.6355 0 28.5 0ZM6.75 7.5C5.508 7.5 4.5 6.492 4.5 5.25C4.5 4.008 5.508 3 6.75 3C7.992 3 9 4.008 9 5.25C9 6.492 7.992 7.5 6.75 7.5ZM12.75 7.5C11.508 7.5 10.5 6.492 10.5 5.25C10.5 4.008 11.508 3 12.75 3C13.992 3 15 4.008 15 5.25C15 6.492 13.992 7.5 12.75 7.5Z" fill="#81BD52"/>
</g>
<defs>
<clipPath id="clip0_1_2940">
<rect width="36" height="33" fill="white"/>
</clipPath>
</defs>
</svg>
