<svg width="36" height="36" viewBox="0 0 36 36" fill="none" xmlns="http://www.w3.org/2000/svg">
<g clip-path="url(#clip0_1_2942)">
<path d="M15 13.8915L16.8075 21H13.191L14.9985 13.8915H15ZM33 16.5V19.5H34.5C35.328 19.5 36 20.1705 36 21C36 21.8295 35.328 22.5 34.5 22.5H33V25.5H34.5C35.328 25.5 36 26.1705 36 27C36 27.8295 35.328 28.5 34.5 28.5H32.373C31.6155 30.2265 30.2265 31.6155 28.5 32.373V34.5C28.5 35.3295 27.828 36 27 36C26.172 36 25.5 35.3295 25.5 34.5V33H22.5V34.5C22.5 35.3295 21.828 36 21 36C20.172 36 19.5 35.3295 19.5 34.5V33H16.5V34.5C16.5 35.3295 15.828 36 15 36C14.172 36 13.5 35.3295 13.5 34.5V33H10.5V34.5C10.5 35.3295 9.828 36 9 36C8.172 36 7.5 35.3295 7.5 34.5V32.373C5.7735 31.6155 4.3845 30.2265 3.627 28.5H1.5C0.672 28.5 0 27.8295 0 27C0 26.1705 0.672 25.5 1.5 25.5H3V22.5H1.5C0.672 22.5 0 21.8295 0 21C0 20.1705 0.672 19.5 1.5 19.5H3V16.5H1.5C0.672 16.5 0 15.8295 0 15C0 14.1705 0.672 13.5 1.5 13.5H3V10.5H1.5C0.672 10.5 0 9.8295 0 9C0 8.1705 0.672 7.5 1.5 7.5H3.627C4.3845 5.7735 5.7735 4.3845 7.5 3.627V1.5C7.5 0.6705 8.172 0 9 0C9.828 0 10.5 0.6705 10.5 1.5V3H13.5V1.5C13.5 0.6705 14.172 0 15 0C15.828 0 16.5 0.6705 16.5 1.5V3H19.5V1.5C19.5 0.6705 20.172 0 21 0C21.828 0 22.5 0.6705 22.5 1.5V3H25.5V1.5C25.5 0.6705 26.172 0 27 0C27.828 0 28.5 0.6705 28.5 1.5V3.627C30.2265 4.3845 31.6155 5.7735 32.373 7.5H34.5C35.328 7.5 36 8.1705 36 9C36 9.8295 35.328 10.5 34.5 10.5H33V13.5H34.5C35.328 13.5 36 14.1705 36 15C36 15.8295 35.328 16.5 34.5 16.5H33ZM20.9535 25.131L17.3475 10.953C17.0745 9.7875 16.131 9.0045 15 9.0045C13.869 9.0045 12.9255 9.786 12.6585 10.9245L9.045 25.131C8.841 25.9335 9.327 26.7495 10.1295 26.9535C10.9395 27.1665 11.7495 26.673 11.9535 25.869L12.429 24H17.571L18.0465 25.869C18.219 26.5485 18.8295 27 19.5 27C19.623 27 19.746 26.985 19.8705 26.9535C20.673 26.7495 21.159 25.9335 20.955 25.131H20.9535ZM25.5 10.5C25.5 9.6705 24.828 9 24 9C23.172 9 22.5 9.6705 22.5 10.5V25.5C22.5 26.3295 23.172 27 24 27C24.828 27 25.5 26.3295 25.5 25.5V10.5Z" fill="#81BD52"/>
</g>
<defs>
<clipPath id="clip0_1_2942">
<rect width="36" height="36" fill="white"/>
</clipPath>
</defs>
</svg>
