<svg width="37" height="36" viewBox="0 0 37 36" fill="none" xmlns="http://www.w3.org/2000/svg">
<g clip-path="url(#clip0_1_2938)">
<path d="M35.9777 15.981L31.3712 3.47849C30.7367 1.75199 28.9202 0.80699 27.1352 1.28099L19.5707 3.29849V1.49999C19.5617 -0.46201 16.5797 -0.46051 16.5707 1.49999V4.09799L8.68974 6.19949C6.80724 6.70199 5.28024 8.09399 4.60524 9.92249L0.163737 21.981C0.102237 22.1475 0.0707366 22.9515 0.0707366 22.9515C-0.0462634 28.8375 7.19424 32.352 11.4677 28.1445C12.8042 26.8755 13.5707 25.0905 13.5707 23.2485C13.5707 23.2485 13.5392 22.1505 13.4807 21.9855L8.87574 9.32399C9.06174 9.22949 9.25824 9.15299 9.46374 9.09899L16.5707 7.20299V33H7.57074C5.60874 33.009 5.61024 35.991 7.57074 36H28.5707C30.5327 35.991 30.5312 33.009 28.5707 33H19.5707V6.40199L26.9147 4.44299L22.6637 15.9795C22.6022 16.146 22.5707 16.95 22.5707 16.95C22.5707 20.709 25.3772 23.8005 28.9607 23.988C30.8342 24.087 32.6117 23.4315 33.9677 22.1445C35.3042 20.8755 36.0707 19.0905 36.0707 17.2485C36.0707 17.2485 36.0392 16.146 35.9777 15.9795V15.981ZM9.92874 21H3.72174L6.84624 12.5205L9.92874 21ZM29.3207 6.58949L32.4197 15H26.2217L29.3207 6.58949Z" fill="#81BD52"/>
</g>
<defs>
<clipPath id="clip0_1_2938">
<rect width="36.0703" height="36" fill="white"/>
</clipPath>
</defs>
</svg>
