<svg width="28" height="27" viewBox="0 0 28 27" fill="none" xmlns="http://www.w3.org/2000/svg">
<g clip-path="url(#clip0_1_6903)">
<path d="M27 13.5C27 20.9475 20.9475 27 13.5 27C6.0525 27 0 20.9475 0 13.5C0 6.0525 6.0525 0 13.5 0C14.3212 0 15.1538 0.07875 15.9525 0.225C16.56 0.3375 16.965 0.9225 16.8525 1.53C16.74 2.1375 16.155 2.5425 15.5475 2.43C14.8837 2.30625 14.1862 2.25 13.5 2.25C7.30125 2.25 2.25 7.30125 2.25 13.5C2.25 19.6987 7.30125 24.75 13.5 24.75C19.6987 24.75 24.75 19.6987 24.75 13.5C24.75 12.8138 24.6825 12.1275 24.57 11.4525C24.4575 10.845 24.8625 10.26 25.47 10.1475C26.0887 10.035 26.6625 10.44 26.775 11.0475C26.9212 11.8462 27 12.6788 27 13.5ZM14.4675 6.8175C15.0862 6.9075 15.6487 6.48 15.7387 5.86125C15.8287 5.2425 15.4013 4.68 14.7825 4.59C14.355 4.53375 13.9275 4.5 13.5 4.5C8.53875 4.5 4.5 8.53875 4.5 13.5C4.5 18.4613 8.53875 22.5 13.5 22.5C18.4613 22.5 22.5 18.4613 22.5 13.5C22.5 13.0725 22.4662 12.645 22.41 12.2175C22.32 11.5987 21.7575 11.1713 21.1388 11.2613C20.52 11.3513 20.0925 11.9138 20.1825 12.5325C20.2275 12.8475 20.25 13.1737 20.25 13.5C20.25 17.2237 17.2237 20.25 13.5 20.25C9.77625 20.25 6.75 17.2237 6.75 13.5C6.75 9.77625 9.77625 6.75 13.5 6.75C13.8263 6.75 14.1525 6.7725 14.4675 6.8175ZM12.0938 10.2375C11.6775 9.77625 10.9688 9.73125 10.5075 10.1475C9.55125 11.0025 9.01125 12.2288 9.01125 13.5C9.01125 15.9862 11.025 18 13.5113 18C14.7937 18 16.0087 17.4487 16.8638 16.5037C17.28 16.0425 17.235 15.3338 16.7738 14.9175C16.3125 14.5013 15.6038 14.5463 15.1875 15.0075C14.76 15.48 14.1525 15.7613 13.5113 15.7613C12.2738 15.7613 11.2613 14.7488 11.2613 13.5113C11.2613 12.87 11.5312 12.2625 12.015 11.835C12.4763 11.4188 12.5213 10.71 12.105 10.2487L12.0938 10.2375ZM13.8375 11.5875C13.3988 12.0262 13.3988 12.735 13.8375 13.1737C14.0625 13.3988 14.3438 13.5 14.6363 13.5C14.9288 13.5 15.21 13.3875 15.435 13.1737L20.7337 7.875H23.6475C23.9513 7.875 24.2325 7.75125 24.4462 7.54875L26.6962 5.29875C27.0225 4.9725 27.1125 4.48875 26.9438 4.0725C26.775 3.65625 26.3588 3.375 25.9088 3.375H23.6588V1.125C23.6588 0.675 23.3888 0.25875 22.9613 0.09C22.5338 -0.09 22.0612 0.01125 21.735 0.3375L19.485 2.5875C19.2712 2.80125 19.1588 3.0825 19.1588 3.38625V6.3L13.86 11.5988L13.8375 11.5875Z" fill="#81BD52"/>
</g>
<defs>
<clipPath id="clip0_1_6903">
<rect width="27.0527" height="27" fill="white"/>
</clipPath>
</defs>
</svg>
