<svg width="33" height="27" viewBox="0 0 33 27" fill="none" xmlns="http://www.w3.org/2000/svg">
<g clip-path="url(#clip0_1_6905)">
<path d="M24.2243 16.8644C24.1772 19.517 20.234 19.517 20.1869 16.8644C20.234 14.2119 24.1772 14.2119 24.2243 16.8644ZM9.3452 16.1915H12.1875L10.7664 11.4543L9.3452 16.1915ZM32.2991 6.77096V20.2289C32.2991 23.9393 29.2804 26.9579 25.5701 26.9579H6.72897C3.01862 26.9579 0 23.9393 0 20.2289V6.77096C0 3.06061 3.01862 0.0419922 6.72897 0.0419922H25.5701C29.2804 0.0419922 32.2991 3.06061 32.2991 6.77096ZM16.093 19.8427L12.0556 6.38472C11.7232 5.1291 9.80949 5.13044 9.47708 6.38472L5.4397 19.8427C4.94176 21.5303 7.5055 22.3001 8.01824 20.6152L8.53772 18.8831H12.995L13.5145 20.6152C13.7271 21.3338 14.4969 21.7322 15.19 21.5182C15.9019 21.3042 16.307 20.5546 16.093 19.8427ZM26.9159 6.77096C26.9078 5.01067 24.2324 5.01201 24.2243 6.77096V12.6265C21.2313 11.0829 17.4132 13.4851 17.4953 16.8644C17.4011 20.3608 21.4896 22.7644 24.4746 20.9664C25.1341 22.0726 26.9616 21.5236 26.9159 20.2289V6.77096Z" fill="#81BD52"/>
</g>
<defs>
<clipPath id="clip0_1_6905">
<rect width="32.2991" height="27" fill="white"/>
</clipPath>
</defs>
</svg>
