<svg width="30" height="27" viewBox="0 0 30 27" fill="none" xmlns="http://www.w3.org/2000/svg">
<g clip-path="url(#clip0_1_6901)">
<path d="M0 11.0455V20.8636C0 24.2472 2.75277 27 6.13636 27H23.3182C26.7018 27 29.4545 24.2472 29.4545 20.8636V11.0455H0ZM11.0455 22.0909C11.0455 22.7696 10.4956 23.3182 9.81818 23.3182C9.14073 23.3182 8.59091 22.7696 8.59091 22.0909V19.6364C8.59091 18.9577 9.14073 18.4091 9.81818 18.4091C10.4956 18.4091 11.0455 18.9577 11.0455 19.6364V22.0909ZM15.9545 22.0909C15.9545 22.7696 15.4047 23.3182 14.7273 23.3182C14.0498 23.3182 13.5 22.7696 13.5 22.0909V14.7273C13.5 14.0486 14.0498 13.5 14.7273 13.5C15.4047 13.5 15.9545 14.0486 15.9545 14.7273V22.0909ZM20.8636 22.0909C20.8636 22.7696 20.3138 23.3182 19.6364 23.3182C18.9589 23.3182 18.4091 22.7696 18.4091 22.0909V17.1818C18.4091 16.5031 18.9589 15.9545 19.6364 15.9545C20.3138 15.9545 20.8636 16.5031 20.8636 17.1818V22.0909ZM23.3182 0H6.13636C2.75277 0 0 2.75277 0 6.13636V8.59091H29.4545V6.13636C29.4545 2.75277 26.7018 0 23.3182 0ZM5.52273 6.13636C4.50655 6.13636 3.68182 5.31164 3.68182 4.29545C3.68182 3.27927 4.50655 2.45455 5.52273 2.45455C6.53891 2.45455 7.36364 3.27927 7.36364 4.29545C7.36364 5.31164 6.53891 6.13636 5.52273 6.13636ZM10.4318 6.13636C9.41564 6.13636 8.59091 5.31164 8.59091 4.29545C8.59091 3.27927 9.41564 2.45455 10.4318 2.45455C11.448 2.45455 12.2727 3.27927 12.2727 4.29545C12.2727 5.31164 11.448 6.13636 10.4318 6.13636Z" fill="#81BD52"/>
</g>
<defs>
<clipPath id="clip0_1_6901">
<rect width="29.4545" height="27" fill="white"/>
</clipPath>
</defs>
</svg>
