<svg width="204" height="153" viewBox="0 0 204 153" fill="none" xmlns="http://www.w3.org/2000/svg">
<g clip-path="url(#clip0_0_205)">
<path d="M188.748 139.069C182.064 144.093 173.92 149.182 165.914 151.582C163.606 152.294 161.225 152.749 158.814 152.938C156.561 153.117 154.292 152.943 152.094 152.423C146.316 151.004 140.956 148.52 135.771 145.618C134.076 144.668 132.402 143.675 130.737 142.66C128.019 141.002 125.329 139.286 122.63 137.611C122.226 137.358 121.825 137.109 121.421 136.862H121.419C120.767 136.459 120.114 136.061 119.46 135.668C119.345 135.598 119.23 135.531 119.112 135.461C117.876 134.721 116.618 133.999 115.339 133.293C115.183 133.208 115.026 133.121 114.869 133.037C112.395 131.682 109.852 130.454 107.25 129.356C105.541 128.646 103.81 128.005 102.062 127.459H102.06C101.391 127.251 100.72 127.056 100.047 126.877C98.0282 126.33 95.9708 125.932 93.892 125.688C91.0275 125.345 88.1302 125.368 85.2715 125.755C85.0781 125.782 84.8871 125.809 84.6937 125.84C76.9569 127.063 69.896 131.186 62.125 132.157C61.8728 132.188 61.6231 132.217 61.3709 132.239C61.2632 132.249 61.1555 132.261 61.0477 132.268C58.7895 132.459 56.5168 132.404 54.2708 132.104C47.9957 131.287 41.8847 128.752 36.3833 125.557C23.5222 118.087 13.0924 106.606 6.75119 93.3095C5.66228 91.0308 4.69549 88.6971 3.85483 86.3182C1.50442 79.7214 0.210037 72.8033 0.0182922 65.813C-0.576651 41.5596 13.3862 17.2264 35.3085 6.25728C57.2332 -4.71186 86.0745 -1.08448 103.756 15.7668C114.482 25.9892 120.689 39.8413 128.761 52.217C136.833 64.5902 148.306 76.41 163.104 78.2128C170.642 79.1311 178.531 77.3549 185.756 79.6652C189.756 80.946 193.169 83.3965 195.919 86.5188C197.767 88.6375 199.314 90.9954 200.517 93.527C201.398 95.3572 202.113 97.2609 202.654 99.2158C202.754 99.5759 202.847 99.936 202.938 100.296C206.537 114.806 200.786 130.016 188.748 139.069Z" fill="#CFD1D0"/>
<path d="M68.3486 112.802H45.3343C41.8863 112.802 39.0911 115.561 39.0911 118.965V118.965C39.0911 122.368 41.8863 125.127 45.3343 125.127H68.3486C71.7966 125.127 74.5918 122.368 74.5918 118.965C74.5918 115.561 71.7966 112.802 68.3486 112.802Z" fill="#414648"/>
<path d="M61.3709 121.985V132.239C59.0068 132.465 56.6242 132.42 54.2708 132.104V121.985H61.3709Z" fill="#414648"/>
<path d="M85.2716 125.755C85.0781 125.782 84.8872 125.808 84.6937 125.84C76.957 127.063 69.8961 131.185 62.1251 132.157C61.8729 132.188 61.6232 132.217 61.371 132.239C61.2633 132.249 61.1555 132.261 61.0478 132.268C59.1503 130.434 57.2529 128.481 55.4705 126.459C54.5034 125.364 53.5682 124.247 52.6892 123.116C50.4074 120.197 48.4732 117.196 47.1952 114.247C47.3249 112.834 46.4337 109.564 46.0077 107.06L46.0053 107.058C45.8241 106.007 45.7262 105.093 45.8167 104.506C46.3358 101.118 49.1391 101.507 50.0009 98.1863C50.7784 97.5494 51.6061 96.9748 52.4762 96.468C52.6207 96.3834 52.7676 96.2989 52.9193 96.2143L62.272 89.8344L65.8465 93.295L71.2867 98.5633L77.1823 104.269L72.1779 109.259C72.1779 109.259 76.3596 114.018 81.2489 120.361C82.5613 122.065 83.925 123.885 85.2716 125.755Z" fill="#414648"/>
<path d="M165.915 121.985V151.582C163.607 152.294 161.225 152.749 158.814 152.938V121.985H165.915Z" fill="#414648"/>
<path d="M175.096 119.569H152.081C148.633 119.569 145.838 122.328 145.838 125.731V125.731C145.838 129.135 148.633 131.894 152.081 131.894H175.096C178.544 131.894 181.339 129.135 181.339 125.731C181.339 122.328 178.544 119.569 175.096 119.569Z" fill="#414648"/>
<path d="M119.112 135.461C117.876 134.721 116.618 133.998 115.339 133.293C115.183 133.208 115.026 133.121 114.869 133.037L115.712 132.681L117.984 131.717L118.006 131.708L118.03 131.79L119.112 135.461Z" fill="#FFC9B8"/>
<path d="M122.631 137.611C122.227 137.358 121.825 137.109 121.421 136.862H121.419C120.767 136.459 120.114 136.061 119.46 135.668C119.345 135.598 119.23 135.531 119.112 135.461C117.876 134.721 116.618 133.998 115.339 133.293C115.183 133.208 115.026 133.121 114.869 133.037C112.395 131.682 109.852 130.453 107.25 129.356C105.541 128.646 103.81 128.005 102.062 127.459H102.06L100.686 125.19L94.5042 114.97L93.1453 112.725C93.1453 112.725 88.5106 114.078 81.9516 115.376C79.5645 115.85 76.9252 116.313 74.1561 116.705C71.1961 117.121 68.0916 117.452 65.0067 117.611C63.5353 117.689 62.0687 117.727 60.6242 117.715C56.8905 117.691 53.3037 117.345 50.1625 116.524C49.1146 115.552 45.9563 114.23 43.694 113.02H43.6916C42.7416 112.512 41.9533 112.026 41.5395 111.594C39.1548 109.105 41.1918 107.164 39.0716 104.448C39.0431 103.451 39.0946 102.454 39.2258 101.466C39.2479 101.301 39.2699 101.135 39.2968 100.965L39.9652 89.7619L44.9304 89.1142L52.486 88.1282L60.6707 87.0601L61.5717 94.0248C61.5717 94.0248 67.9447 93.7058 76.0193 93.8122C88.9881 93.9862 106.342 95.2621 108.692 100.738C108.913 101.253 109.133 101.773 109.353 102.292C109.877 103.534 110.396 104.783 110.91 106.038C112.774 110.581 114.551 115.168 116.174 119.503C117.183 122.2 118.133 124.801 119.007 127.234C119.71 129.192 120.361 131.043 120.956 132.747C121.499 134.303 121.992 135.736 122.43 137.022C122.498 137.222 122.564 137.42 122.631 137.611Z" fill="#414648"/>
<path d="M76.9555 69.7309L61.2727 56.5841L71.4761 46.3914L78.5946 57.9002L104.981 63.0638C105.775 62.4744 106.725 62.1257 107.715 62.06C108.706 61.9943 109.695 62.2146 110.561 62.694C111.427 63.1734 112.133 63.8912 112.593 64.7599C113.053 65.6285 113.247 66.6105 113.151 67.5861C113.056 68.5617 112.675 69.4887 112.054 70.2542C111.434 71.0196 110.602 71.5904 109.659 71.8969C108.715 72.2035 107.702 72.2325 106.743 71.9805C105.783 71.7285 104.918 71.2063 104.254 70.4777L76.9555 69.7309Z" fill="#FFC9B8"/>
<path d="M47.4127 39.3059C45.6002 45.1258 62.8615 59.0064 62.8615 59.0064C63.0533 57.6092 72.8398 69.6573 73.5057 68.5662C75.398 65.4651 77.4802 57.7996 79.6649 56.8199C80.9142 56.2596 73.7471 48.472 73.7471 48.472C73.7471 48.472 70.0911 43.6977 65.264 37.6468C63.9314 35.9112 62.1756 34.5365 60.1601 33.6508C58.1445 32.7651 55.9347 32.3972 53.7363 32.5812C53.7363 32.5812 49.2251 33.486 47.4127 39.3059Z" fill="#414648"/>
<path d="M55.0446 26.4219C60.9028 26.4219 65.6518 21.7344 65.6518 15.952C65.6518 10.1697 60.9028 5.48218 55.0446 5.48218C49.1865 5.48218 44.4375 10.1697 44.4375 15.952C44.4375 21.7344 49.1865 26.4219 55.0446 26.4219Z" fill="#FFC9B8"/>
<path d="M60.3482 33.3418C62.6334 34.6827 64.0004 37.1466 64.7851 39.6537C66.2379 44.2954 67.1124 49.0945 67.3892 53.945L68.218 68.4665L78.483 99.3867C69.5867 106.817 36.1468 101.075 36.1468 101.075C36.1468 101.075 35.1203 100.738 36.1468 99.7245C37.1733 98.7112 38.1726 99.6089 37.1461 98.5957C36.1196 97.5825 36.8272 98.7112 37.1694 97.698C37.5116 96.6848 37.1694 97.3603 36.8272 97.0226C36.4851 96.6848 39.4761 93.6452 39.4761 93.6452L36.7388 75.8967L33.3171 40.0965C37.4231 35.0304 45.6808 32.044 45.6808 32.044L47.8145 28.2531L58.4829 29.0955L60.3482 33.3418Z" fill="#414648"/>
<path d="M63.7886 10.3896C64.6129 10.9965 65.2237 11.8434 65.5349 12.8109C65.6544 11.2297 65.662 9.6422 65.5576 8.05994C65.4326 6.94809 64.6395 6.69799 63.7213 6.4082C62.892 6.14638 61.9541 5.85063 61.7018 4.77128C58.3675 1.5696 52.5632 1.73105 48.5909 2.84784C46.4051 3.46239 45.1474 4.25197 45.0349 4.71451L45.0116 4.80972L44.9228 4.85353C43.2379 5.68505 42.91 8.31085 42.9316 10.3671C42.9727 14.2414 44.3279 18.6415 45.0914 18.9989C45.1318 19.0178 45.142 19.0104 45.1595 18.9961C46.3091 18.0892 47.7116 19.065 48.3279 19.5954C48.6915 17.1875 49.862 14.9693 51.6525 13.2951C53.4431 11.6209 55.7504 10.5872 58.206 10.3591C59.0079 10.2826 59.8034 10.151 60.5868 9.96509C60.9841 9.86363 61.3926 9.81072 61.803 9.80755C62.5095 9.79696 63.2024 10.0001 63.7886 10.3896V10.3896Z" fill="#414648"/>
<path d="M50.4231 85.505L47.1784 83.8647C47.0045 83.7425 46.8811 83.5625 46.8305 83.3578C46.7799 83.1531 46.8056 82.9373 46.9029 82.7497C47.0003 82.5622 47.1627 82.4155 47.3605 82.3363C47.5583 82.2572 47.7784 82.251 47.9806 82.3188L51.2253 83.959C51.3991 84.0813 51.5226 84.2612 51.5732 84.4659C51.6237 84.6706 51.598 84.8865 51.5007 85.074C51.4034 85.2616 51.241 85.4083 51.0432 85.4874C50.8453 85.5665 50.6252 85.5728 50.4231 85.505L50.4231 85.505Z" fill="#BFDAA2"/>
<path d="M39.5027 81.1104L34.165 61.4965L48.4287 58.8313L47.6616 72.2942L66.4028 91.3418C67.395 91.3017 68.3775 91.5475 69.2306 92.0491C70.0837 92.5507 70.7705 93.2865 71.2073 94.1668C71.6441 95.047 71.8119 96.0337 71.6904 97.0065C71.5689 97.9792 71.1633 98.8961 70.5229 99.6453C69.8826 100.394 69.0353 100.944 68.0843 101.226C67.1333 101.508 66.1197 101.51 65.1671 101.234C64.2145 100.957 63.3641 100.413 62.7195 99.6671C62.0749 98.9215 61.664 98.0069 61.5369 97.0349L39.5027 81.1104Z" fill="#FFC9B8"/>
<path d="M32.7056 39.5051C27.864 43.2779 34.0782 64.3809 34.0782 64.3809C35.0403 63.3387 36.1583 78.7418 37.3343 78.2173C40.6766 76.7267 46.8026 71.5865 49.1643 72.0055C50.5149 72.2451 49.0999 61.8171 49.0999 61.8171C49.0999 61.8171 48.8397 55.8379 48.3505 48.1514C48.2531 45.9758 47.5995 43.8599 46.4507 42.0007C45.302 40.1414 43.6953 38.5993 41.7803 37.5179C41.7803 37.5179 37.5472 35.7324 32.7056 39.5051Z" fill="#414648"/>
<path d="M200.517 93.527L6.7511 93.3095C5.66218 91.0307 4.69539 88.6971 3.85474 86.3181L195.919 86.5187C197.767 88.6375 199.314 90.9953 200.517 93.527V93.527Z" fill="#414648"/>
<path d="M138.802 144.233C137.8 144.711 136.79 145.173 135.771 145.618C134.076 144.668 132.402 143.675 130.737 142.66L136.911 139.982L138.802 144.233Z" fill="#FFC9B8"/>
<path d="M183.822 110.932C182.818 112.261 181.782 113.563 180.715 114.839C179.73 116.016 178.72 117.171 177.684 118.302C177.255 118.771 176.822 119.238 176.379 119.699C175.563 120.562 174.73 121.41 173.879 122.244C172.346 122.72 169.242 123.559 165.914 124.342C163.493 124.909 160.954 125.448 158.814 125.792C157.616 126.004 156.405 126.131 155.188 126.173C153.744 126.185 152.277 126.147 150.806 126.069C149.146 125.982 147.483 125.847 145.841 125.673C141.568 125.231 137.431 124.542 133.861 123.834C132.554 123.578 131.324 123.317 130.193 123.063C128.051 122.587 126.259 122.142 124.961 121.804C123.5 121.427 122.667 121.183 122.667 121.183L119.007 127.234L117.107 130.374L115.712 132.681L115.339 133.293C115.183 133.208 115.026 133.121 114.869 133.037C112.395 131.682 109.852 130.453 107.25 129.356C105.541 128.646 103.81 128.005 102.062 127.459H102.06C101.391 127.251 100.72 127.055 100.047 126.877C100.258 126.318 100.471 125.756 100.686 125.19C101.088 124.134 101.497 123.068 101.915 121.993C102.819 119.663 103.754 117.299 104.716 114.948C105.504 113.017 106.308 111.094 107.12 109.196C107.495 108.322 108.256 107.553 109.321 106.879C109.83 106.562 110.361 106.281 110.91 106.038C113.959 104.668 118.449 103.776 123.397 103.203C123.806 103.157 124.217 103.111 124.631 103.068C128.727 102.643 133.073 102.423 137.137 102.321C139.171 102.27 141.135 102.251 142.961 102.249C143.551 102.249 144.125 102.25 144.683 102.253H144.685C146.191 102.261 147.577 102.282 148.796 102.307C149.033 102.311 149.263 102.319 149.489 102.324H149.491C149.643 102.326 149.792 102.331 149.939 102.333C152.605 102.401 154.241 102.483 154.241 102.483L154.875 97.5724L155.005 96.5816L155.127 95.6391V95.6367L155.142 95.5183L155.242 95.5159L157.005 95.482L171.822 95.1969L179.916 95.0398L178.634 100.468L176.516 109.424C176.731 110.84 183.895 109.731 183.822 110.932Z" fill="#414648"/>
<path d="M140.628 143.339C140.023 143.643 139.414 143.943 138.802 144.233C137.8 144.711 136.79 145.173 135.771 145.618C134.076 144.668 132.402 143.675 130.737 142.66C128.019 141.002 125.328 139.286 122.63 137.611C122.226 137.358 121.825 137.109 121.421 136.862H121.418C120.307 135.233 119.173 133.537 118.03 131.79C118.013 131.765 117.998 131.741 117.983 131.717C117.69 131.272 117.398 130.825 117.107 130.373C115.278 127.546 113.439 124.598 111.655 121.587L116.174 119.503L124.577 115.632L126.026 114.965L130.193 123.063L133.91 130.286L134.737 131.894L140.628 143.339Z" fill="#414648"/>
<path d="M141.895 104.459L163.318 84.0668L169.255 67.4718L160.497 63.7126C155.998 67.9662 151.135 81.2149 151.135 81.2149L136.393 99.7275C136.278 99.7663 136.164 99.8075 136.051 99.8569C135.387 100.146 134.81 100.599 134.375 101.173C133.94 101.746 133.663 102.421 133.569 103.131C133.476 103.841 133.57 104.563 133.842 105.228C134.114 105.892 134.554 106.475 135.122 106.922C135.689 107.369 136.363 107.664 137.08 107.778C137.796 107.892 138.53 107.822 139.211 107.574C139.892 107.327 140.497 106.91 140.967 106.364C141.437 105.819 141.757 105.162 141.895 104.459V104.459Z" fill="#FFC9B8"/>
<path d="M158.032 65.5655L169.142 69.0467L169.184 69.0398C173.319 68.3561 176.75 61.6902 178.9 56.2186C179.607 54.4138 179.594 52.4112 178.863 50.6157C178.132 48.8201 176.737 47.3656 174.961 46.5461V46.5461C173.647 45.9503 172.19 45.7293 170.755 45.908C169.32 46.0867 167.964 46.658 166.841 47.5573L161.136 52.1584L158.032 65.5655Z" fill="#BFDAA2"/>
<path d="M183.777 111.176L183.842 111.091C187.308 106.554 182.567 95.317 181.851 93.6873L185.073 92.745L184.512 86.688L184.241 83.9872L186.747 81.6383L186.755 81.5783L188.479 69.4728L190.734 61.4607C191.584 58.4317 191.601 55.2341 190.786 52.1961C189.97 49.1581 188.35 46.389 186.091 44.1733L181.482 39.6559L175.959 31.1236L166.7 30.8876L163.37 36.726C160.274 37.3497 157.497 39.0259 155.524 41.4626C153.551 43.8993 152.506 46.942 152.572 50.0607L152.886 65.6035L149.563 84.861L149.47 88.359L146.209 91.7557L146.812 95.1896L144.373 96.1487L143.179 101.028C142.723 101.591 139.713 105.347 139.686 106.394C139.682 106.551 139.795 106.706 140.043 106.881C141.992 108.257 152.882 111.238 157.783 109.446C163.003 107.538 183.464 111.121 183.671 111.157L183.777 111.176Z" fill="#BFDAA2"/>
<path d="M170.521 28.272C177.296 28.272 182.788 22.851 182.788 16.1638C182.788 9.47659 177.296 4.05554 170.521 4.05554C163.746 4.05554 158.254 9.47659 158.254 16.1638C158.254 22.851 163.746 28.272 170.521 28.272Z" fill="#FFC9B8"/>
<path d="M169.024 28.4341C170.924 28.4633 172.823 28.3323 174.7 28.0426C176.56 27.6691 180.723 24.6585 181.883 22.8468C182.745 21.5008 183.296 19.3988 183.607 17.8727C184.025 15.853 184.009 13.7692 183.56 11.756C183.111 9.74287 182.238 7.84532 180.998 6.18623C180.522 5.49228 179.865 4.93831 179.095 4.58294C179.027 4.55663 178.957 4.53331 178.886 4.51338C177.765 4.2223 176.758 3.60721 175.994 2.74708C175.846 2.57311 175.685 2.4099 175.513 2.25871C174.65 1.53937 173.626 1.03197 172.526 0.777969C170.75 0.3088 168.18 0.774512 164.887 2.16351C163.232 2.86137 161.423 2.60881 160.031 2.31079C159.953 2.29591 159.872 2.30146 159.797 2.3269C159.722 2.35234 159.655 2.39678 159.602 2.45579C159.01 3.00454 158.229 3.31171 157.417 3.31555C156.92 3.33712 156.398 4.01705 155.767 4.9037C155.624 5.10497 155.457 5.33988 155.336 5.48275L155.32 5.20826L155.039 5.51447C154.596 5.99575 154.284 6.57969 154.132 7.21192C153.98 7.84415 153.992 8.50411 154.168 9.13033C154.344 9.75656 154.678 10.3287 155.138 10.7934C155.598 11.2582 156.17 11.6004 156.8 11.7883C157.3 11.9198 157.813 12.0004 158.33 12.029C158.643 12.0568 158.967 12.0856 159.278 12.1388C160.274 12.3402 161.201 12.7932 161.967 13.4535C162.733 14.1138 163.312 14.959 163.649 15.9064C163.728 16.1254 163.858 16.3234 164.027 16.4851C164.196 16.6469 164.401 16.7681 164.626 16.8393C164.85 16.9106 165.088 16.9299 165.321 16.896C165.554 16.862 165.776 16.7757 165.97 16.6435C166.294 16.3949 166.673 16.2273 167.077 16.1548C167.48 16.0823 167.895 16.1072 168.286 16.2273C168.625 16.4129 168.888 16.7077 169.032 17.0622C169.207 17.4572 169.498 17.7917 169.866 18.023C171.127 18.6646 171.214 21.5071 170.761 23.8766C170.325 26.1606 169.462 27.8129 168.663 27.8946C168.048 27.9574 167.978 28.0005 167.933 28.1079L167.893 28.204L167.962 28.2939C168.302 28.4155 168.664 28.4633 169.024 28.4341V28.4341Z" fill="#414648"/>
<path d="M161.079 61.9047L156.349 52.5969C149.483 53.0598 135.858 60.895 135.858 60.895L110.077 66.2903C109.313 66.0005 108.486 65.9144 107.678 66.0407C106.869 66.167 106.109 66.5012 105.474 67.0096C104.838 67.5181 104.349 68.1829 104.056 68.937C103.764 69.6912 103.678 70.5082 103.806 71.3057C103.935 72.1033 104.275 72.8532 104.791 73.4801C105.307 74.1069 105.981 74.5886 106.745 74.8765C107.51 75.1645 108.337 75.2486 109.145 75.1204C109.953 74.9922 110.712 74.6563 111.347 74.1463L144.141 71.826L161.079 61.9047Z" fill="#FFC9B8"/>
<path d="M159.171 63.433L171.524 54.3719L173.7 46.6321C174.121 45.1111 174.103 43.5041 173.648 41.9926C173.193 40.4811 172.318 39.1253 171.124 38.0786V38.0786C169.494 36.6705 167.384 35.9256 165.22 35.9945C163.055 36.0634 160.998 36.9411 159.464 38.4499C154.815 43.0298 149.513 49.4191 150.652 53.8496L150.664 53.8945L159.171 63.433Z" fill="#BFDAA2"/>
<path d="M143.88 87.669H110.827V92.019H143.88V87.669Z" fill="white"/>
<path d="M59.4123 87.669H26.3599V92.019H59.4123V87.669Z" fill="white"/>
<path d="M63.2717 66.7501V87.4617C63.2719 87.7257 63.3783 87.9787 63.5673 88.1654C63.7564 88.352 64.0128 88.4569 64.2802 88.4571H95.3751C95.6425 88.4569 95.8988 88.352 96.0879 88.1654C96.277 87.9787 96.3833 87.7257 96.3835 87.4617V66.7501C96.3829 66.4864 96.2764 66.2337 96.0874 66.0473C95.8984 65.861 95.6422 65.7561 95.3751 65.7558H64.2802C64.013 65.7561 63.7569 65.861 63.5679 66.0473C63.3789 66.2337 63.2724 66.4864 63.2717 66.7501Z" fill="#414648"/>
<path d="M64.0012 67.0078V87.2062C64.0015 87.3473 64.0583 87.4824 64.1594 87.5821C64.2604 87.6819 64.3973 87.738 64.5402 87.7382H95.1162C95.2591 87.738 95.3961 87.6819 95.4971 87.5821C95.5981 87.4824 95.655 87.3473 95.6552 87.2062V67.0078C95.6552 66.8666 95.5985 66.7312 95.4974 66.6313C95.3964 66.5313 95.2593 66.475 95.1162 66.4747H64.5402C64.3972 66.475 64.2601 66.5313 64.159 66.6313C64.058 66.7312 64.0012 66.8666 64.0012 67.0078Z" fill="#BFDAA2"/>
<path d="M62.6214 91.501C62.6784 91.5715 62.7508 91.6284 62.8332 91.6673C62.9156 91.7062 63.0059 91.7262 63.0972 91.7257H96.3925C96.4836 91.7256 96.5734 91.7055 96.6556 91.6668C96.7378 91.628 96.8102 91.5717 96.8676 91.5019C96.9249 91.4321 96.9658 91.3506 96.9872 91.2632C97.0086 91.1759 97.0101 91.0849 96.9914 90.9969L96.4745 88.5737C96.4531 88.4749 96.407 88.3829 96.3404 88.3062C96.2737 88.2295 96.1887 88.1704 96.0931 88.1344C96.0238 88.1076 95.9501 88.0939 95.8757 88.0939H63.612C63.5376 88.0939 63.4639 88.1076 63.3946 88.1344C63.2989 88.1704 63.2139 88.2295 63.1473 88.3062C63.0807 88.3829 63.0345 88.4749 63.0131 88.5737L62.4963 90.9969C62.4779 91.0849 62.4796 91.1757 62.5012 91.2629C62.5229 91.3501 62.5639 91.4315 62.6214 91.501V91.501Z" fill="#414648"/>
<path d="M94.7332 89.1377H95.5196C95.5857 89.1377 95.6392 89.0849 95.6392 89.0197V88.6483C95.6392 88.5832 95.5857 88.5304 95.5196 88.5304H94.7332C94.6672 88.5304 94.6137 88.5832 94.6137 88.6483V89.0197C94.6137 89.0849 94.6672 89.1377 94.7332 89.1377Z" fill="#414648"/>
<path d="M92.6824 89.1377H93.4688C93.5349 89.1377 93.5884 89.0849 93.5884 89.0197V88.6483C93.5884 88.5832 93.5349 88.5304 93.4688 88.5304H92.6824C92.6164 88.5304 92.5629 88.5832 92.5629 88.6483V89.0197C92.5629 89.0849 92.6164 89.1377 92.6824 89.1377Z" fill="#414648"/>
<path d="M90.6314 89.1377H91.4178C91.4838 89.1377 91.5374 89.0849 91.5374 89.0197V88.6483C91.5374 88.5832 91.4838 88.5304 91.4178 88.5304H90.6314C90.5654 88.5304 90.5119 88.5832 90.5119 88.6483V89.0197C90.5119 89.0849 90.5654 89.1377 90.6314 89.1377Z" fill="#414648"/>
<path d="M88.5804 89.1377H89.3668C89.4328 89.1377 89.4863 89.0849 89.4863 89.0197V88.6483C89.4863 88.5832 89.4328 88.5304 89.3668 88.5304H88.5804C88.5144 88.5304 88.4609 88.5832 88.4609 88.6483V89.0197C88.4609 89.0849 88.5144 89.1377 88.5804 89.1377Z" fill="#414648"/>
<path d="M86.5294 89.1377H87.3158C87.3818 89.1377 87.4353 89.0849 87.4353 89.0197V88.6483C87.4353 88.5832 87.3818 88.5304 87.3158 88.5304H86.5294C86.4633 88.5304 86.4098 88.5832 86.4098 88.6483V89.0197C86.4098 89.0849 86.4633 89.1377 86.5294 89.1377Z" fill="#414648"/>
<path d="M84.4786 89.1377H85.265C85.331 89.1377 85.3845 89.0849 85.3845 89.0197V88.6483C85.3845 88.5832 85.331 88.5304 85.265 88.5304H84.4786C84.4126 88.5304 84.359 88.5832 84.359 88.6483V89.0197C84.359 89.0849 84.4126 89.1377 84.4786 89.1377Z" fill="#414648"/>
<path d="M82.4276 89.1377H83.214C83.28 89.1377 83.3335 89.0849 83.3335 89.0197V88.6483C83.3335 88.5832 83.28 88.5304 83.214 88.5304H82.4276C82.3615 88.5304 82.308 88.5832 82.308 88.6483V89.0197C82.308 89.0849 82.3615 89.1377 82.4276 89.1377Z" fill="#414648"/>
<path d="M80.3765 89.1377H81.1629C81.229 89.1377 81.2825 89.0849 81.2825 89.0197V88.6483C81.2825 88.5832 81.229 88.5304 81.1629 88.5304H80.3765C80.3105 88.5304 80.257 88.5832 80.257 88.6483V89.0197C80.257 89.0849 80.3105 89.1377 80.3765 89.1377Z" fill="#414648"/>
<path d="M78.3257 89.1377H79.1122C79.1782 89.1377 79.2317 89.0849 79.2317 89.0197V88.6483C79.2317 88.5832 79.1782 88.5304 79.1122 88.5304H78.3257C78.2597 88.5304 78.2062 88.5832 78.2062 88.6483V89.0197C78.2062 89.0849 78.2597 89.1377 78.3257 89.1377Z" fill="#414648"/>
<path d="M76.2747 89.1377H77.0611C77.1272 89.1377 77.1807 89.0849 77.1807 89.0197V88.6483C77.1807 88.5832 77.1272 88.5304 77.0611 88.5304H76.2747C76.2087 88.5304 76.1552 88.5832 76.1552 88.6483V89.0197C76.1552 89.0849 76.2087 89.1377 76.2747 89.1377Z" fill="#414648"/>
<path d="M74.2237 89.1377H75.0101C75.0761 89.1377 75.1296 89.0849 75.1296 89.0197V88.6483C75.1296 88.5832 75.0761 88.5304 75.0101 88.5304H74.2237C74.1577 88.5304 74.1042 88.5832 74.1042 88.6483V89.0197C74.1042 89.0849 74.1577 89.1377 74.2237 89.1377Z" fill="#414648"/>
<path d="M72.1727 89.1377H72.9591C73.0251 89.1377 73.0786 89.0849 73.0786 89.0197V88.6483C73.0786 88.5832 73.0251 88.5304 72.9591 88.5304H72.1727C72.1067 88.5304 72.0531 88.5832 72.0531 88.6483V89.0197C72.0531 89.0849 72.1067 89.1377 72.1727 89.1377Z" fill="#414648"/>
<path d="M70.1219 89.1377H70.9083C70.9743 89.1377 71.0278 89.0849 71.0278 89.0197V88.6483C71.0278 88.5832 70.9743 88.5304 70.9083 88.5304H70.1219C70.0559 88.5304 70.0024 88.5832 70.0024 88.6483V89.0197C70.0024 89.0849 70.0559 89.1377 70.1219 89.1377Z" fill="#414648"/>
<path d="M68.0709 89.1377H68.8573C68.9233 89.1377 68.9768 89.0849 68.9768 89.0197V88.6483C68.9768 88.5832 68.9233 88.5304 68.8573 88.5304H68.0709C68.0048 88.5304 67.9513 88.5832 67.9513 88.6483V89.0197C67.9513 89.0849 68.0048 89.1377 68.0709 89.1377Z" fill="#414648"/>
<path d="M66.0198 89.1377H66.8063C66.8723 89.1377 66.9258 89.0849 66.9258 89.0197V88.6483C66.9258 88.5832 66.8723 88.5304 66.8063 88.5304H66.0198C65.9538 88.5304 65.9003 88.5832 65.9003 88.6483V89.0197C65.9003 89.0849 65.9538 89.1377 66.0198 89.1377Z" fill="#414648"/>
<path d="M63.9688 89.1377H64.7552C64.8212 89.1377 64.8748 89.0849 64.8748 89.0197V88.6483C64.8748 88.5832 64.8212 88.5304 64.7552 88.5304H63.9688C63.9028 88.5304 63.8493 88.5832 63.8493 88.6483V89.0197C63.8493 89.0849 63.9028 89.1377 63.9688 89.1377Z" fill="#414648"/>
<path d="M94.7576 90.1499H95.544C95.6101 90.1499 95.6636 90.0971 95.6636 90.0319V89.6606C95.6636 89.5954 95.6101 89.5426 95.544 89.5426H94.7576C94.6916 89.5426 94.6381 89.5954 94.6381 89.6606V90.0319C94.6381 90.0971 94.6916 90.1499 94.7576 90.1499Z" fill="#414648"/>
<path d="M92.7066 90.1499H93.493C93.559 90.1499 93.6125 90.0971 93.6125 90.0319V89.6606C93.6125 89.5954 93.559 89.5426 93.493 89.5426H92.7066C92.6406 89.5426 92.5871 89.5954 92.5871 89.6606V90.0319C92.5871 90.0971 92.6406 90.1499 92.7066 90.1499Z" fill="#414648"/>
<path d="M90.6556 90.1499H91.442C91.508 90.1499 91.5615 90.0971 91.5615 90.0319V89.6606C91.5615 89.5954 91.508 89.5426 91.442 89.5426H90.6556C90.5896 89.5426 90.536 89.5954 90.536 89.6606V90.0319C90.536 90.0971 90.5896 90.1499 90.6556 90.1499Z" fill="#414648"/>
<path d="M88.6045 90.1499H89.391C89.457 90.1499 89.5105 90.0971 89.5105 90.0319V89.6606C89.5105 89.5954 89.457 89.5426 89.391 89.5426H88.6045C88.5385 89.5426 88.485 89.5954 88.485 89.6606V90.0319C88.485 90.0971 88.5385 90.1499 88.6045 90.1499Z" fill="#414648"/>
<path d="M86.5538 90.1499H87.3402C87.4062 90.1499 87.4597 90.0971 87.4597 90.0319V89.6606C87.4597 89.5954 87.4062 89.5426 87.3402 89.5426H86.5538C86.4877 89.5426 86.4342 89.5954 86.4342 89.6606V90.0319C86.4342 90.0971 86.4877 90.1499 86.5538 90.1499Z" fill="#414648"/>
<path d="M84.5027 90.1499H85.2892C85.3552 90.1499 85.4087 90.0971 85.4087 90.0319V89.6606C85.4087 89.5954 85.3552 89.5426 85.2892 89.5426H84.5027C84.4367 89.5426 84.3832 89.5954 84.3832 89.6606V90.0319C84.3832 90.0971 84.4367 90.1499 84.5027 90.1499Z" fill="#414648"/>
<path d="M82.4517 90.1499H83.2381C83.3042 90.1499 83.3577 90.0971 83.3577 90.0319V89.6606C83.3577 89.5954 83.3042 89.5426 83.2381 89.5426H82.4517C82.3857 89.5426 82.3322 89.5954 82.3322 89.6606V90.0319C82.3322 90.0971 82.3857 90.1499 82.4517 90.1499Z" fill="#414648"/>
<path d="M80.4009 90.1499H81.1874C81.2534 90.1499 81.3069 90.0971 81.3069 90.0319V89.6606C81.3069 89.5954 81.2534 89.5426 81.1874 89.5426H80.4009C80.3349 89.5426 80.2814 89.5954 80.2814 89.6606V90.0319C80.2814 90.0971 80.3349 90.1499 80.4009 90.1499Z" fill="#414648"/>
<path d="M78.3499 90.1499H79.1363C79.2023 90.1499 79.2559 90.0971 79.2559 90.0319V89.6606C79.2559 89.5954 79.2023 89.5426 79.1363 89.5426H78.3499C78.2839 89.5426 78.2304 89.5954 78.2304 89.6606V90.0319C78.2304 90.0971 78.2839 90.1499 78.3499 90.1499Z" fill="#414648"/>
<path d="M76.2989 90.1499H77.0853C77.1513 90.1499 77.2048 90.0971 77.2048 90.0319V89.6606C77.2048 89.5954 77.1513 89.5426 77.0853 89.5426H76.2989C76.2329 89.5426 76.1794 89.5954 76.1794 89.6606V90.0319C76.1794 90.0971 76.2329 90.1499 76.2989 90.1499Z" fill="#414648"/>
<path d="M74.2479 90.1499H75.0343C75.1003 90.1499 75.1538 90.0971 75.1538 90.0319V89.6606C75.1538 89.5954 75.1003 89.5426 75.0343 89.5426H74.2479C74.1818 89.5426 74.1283 89.5954 74.1283 89.6606V90.0319C74.1283 90.0971 74.1818 90.1499 74.2479 90.1499Z" fill="#414648"/>
<path d="M72.1971 90.1499H72.9835C73.0495 90.1499 73.103 90.0971 73.103 90.0319V89.6606C73.103 89.5954 73.0495 89.5426 72.9835 89.5426H72.1971C72.1311 89.5426 72.0775 89.5954 72.0775 89.6606V90.0319C72.0775 90.0971 72.1311 90.1499 72.1971 90.1499Z" fill="#414648"/>
<path d="M70.146 90.1499H70.9325C70.9985 90.1499 71.052 90.0971 71.052 90.0319V89.6606C71.052 89.5954 70.9985 89.5426 70.9325 89.5426H70.146C70.08 89.5426 70.0265 89.5954 70.0265 89.6606V90.0319C70.0265 90.0971 70.08 90.1499 70.146 90.1499Z" fill="#414648"/>
<path d="M68.095 90.1499H68.8815C68.9475 90.1499 69.001 90.0971 69.001 90.0319V89.6606C69.001 89.5954 68.9475 89.5426 68.8815 89.5426H68.095C68.029 89.5426 67.9755 89.5954 67.9755 89.6606V90.0319C67.9755 90.0971 68.029 90.1499 68.095 90.1499Z" fill="#414648"/>
<path d="M66.044 90.1499H66.8304C66.8964 90.1499 66.95 90.0971 66.95 90.0319V89.6606C66.95 89.5954 66.8964 89.5426 66.8304 89.5426H66.044C65.978 89.5426 65.9245 89.5954 65.9245 89.6606V90.0319C65.9245 90.0971 65.978 90.1499 66.044 90.1499Z" fill="#414648"/>
<path d="M63.9932 90.1499H64.7796C64.8457 90.1499 64.8992 90.0971 64.8992 90.0319V89.6606C64.8992 89.5954 64.8457 89.5426 64.7796 89.5426H63.9932C63.9272 89.5426 63.8737 89.5954 63.8737 89.6606V90.0319C63.8737 90.0971 63.9272 90.1499 63.9932 90.1499Z" fill="#414648"/>
<path d="M77.7345 91.3646H85.6993C85.7653 91.3646 85.8188 91.3117 85.8188 91.2466V90.8752C85.8188 90.8101 85.7653 90.7572 85.6993 90.7572H77.7345C77.6685 90.7572 77.615 90.8101 77.615 90.8752V91.2466C77.615 91.3117 77.6685 91.3646 77.7345 91.3646Z" fill="#414648"/>
</g>
<defs>
<clipPath id="clip0_0_205">
<rect width="204" height="153" fill="white"/>
</clipPath>
</defs>
</svg>
