<svg width="195" height="159" viewBox="0 0 195 159" fill="none" xmlns="http://www.w3.org/2000/svg">
<g clip-path="url(#clip0_0_271)">
<path d="M155.673 28.9623C154.66 40.1828 151.775 52.0143 147.249 63.4301C141.652 77.5472 134.005 89.9815 125.135 99.3887L124.642 98.9572C133.47 89.5953 141.082 77.2158 146.655 63.1571C151.692 50.4525 154.688 37.2314 155.323 24.929L155.952 25.0349C155.886 26.3342 155.793 27.6433 155.673 28.9623Z" fill="#CFD1D0"/>
<path d="M159.708 94.1292C147.249 114.056 132.134 128.294 117.146 134.219L116.843 133.661C131.727 127.776 146.754 113.611 159.156 93.7753L159.708 94.1292Z" fill="#CFD1D0"/>
<path d="M155.371 42.9323C154.358 54.1529 151.472 65.9843 146.946 77.4001C141.349 91.5172 133.703 103.952 124.832 113.359L124.34 112.927C133.167 103.565 140.779 91.1859 146.353 77.1271C151.39 64.4225 154.386 51.2014 155.021 38.899L155.65 39.0049C155.583 40.3042 155.49 41.6133 155.371 42.9323Z" fill="#CFD1D0"/>
<path d="M15.5055 71.7389H7.33107C7.15642 71.7393 6.98396 71.6999 6.82661 71.6237C6.66927 71.5475 6.53113 71.4364 6.42255 71.2989C6.3153 71.1649 6.23962 71.0082 6.20122 70.8406C6.16281 70.6729 6.16266 70.4988 6.20079 70.3311C6.97933 66.8775 6.93042 63.2874 6.0581 59.8565C6.00292 59.6307 6.01626 59.3933 6.0964 59.1751C6.17654 58.9569 6.31981 58.7678 6.50777 58.6322C10.7111 55.593 14.0213 55.6811 16.3466 58.8947C16.4515 59.0412 16.5211 59.2101 16.5501 59.3882C17.1714 63.1432 17.2058 66.9728 16.652 70.7385C16.6135 71.0164 16.4762 71.2709 16.2654 71.4548C16.0546 71.6387 15.7846 71.7397 15.5055 71.7389Z" fill="#CFD1D0"/>
<path d="M12.9711 63.5091H10.1591C10.0036 63.5091 9.85443 63.447 9.74447 63.3365C9.63452 63.2259 9.57275 63.076 9.57275 62.9197C9.57275 62.7634 9.63452 62.6134 9.74447 62.5029C9.85443 62.3924 10.0036 62.3303 10.1591 62.3303H12.9711C13.1264 62.3306 13.2752 62.3928 13.3849 62.5033C13.4946 62.6138 13.5562 62.7636 13.5562 62.9197C13.5562 63.0758 13.4946 63.2255 13.3849 63.3361C13.2752 63.4466 13.1264 63.5088 12.9711 63.5091Z" fill="white"/>
<path d="M12.9711 65.5763H10.1591C10.0036 65.5763 9.85443 65.5142 9.74447 65.4037C9.63452 65.2931 9.57275 65.1432 9.57275 64.9869C9.57275 64.8306 9.63452 64.6806 9.74447 64.5701C9.85443 64.4596 10.0036 64.3975 10.1591 64.3975H12.9711C13.1264 64.3978 13.2752 64.46 13.3849 64.5705C13.4946 64.681 13.5562 64.8308 13.5562 64.9869C13.5562 65.143 13.4946 65.2927 13.3849 65.4033C13.2752 65.5138 13.1264 65.576 12.9711 65.5763Z" fill="white"/>
<path d="M12.9711 67.6435H10.1591C10.0036 67.6435 9.85443 67.5814 9.74447 67.4709C9.63452 67.3603 9.57275 67.2104 9.57275 67.0541C9.57275 66.8978 9.63452 66.7478 9.74447 66.6373C9.85443 66.5268 10.0036 66.4647 10.1591 66.4647H12.9711C13.1264 66.465 13.2752 66.5272 13.3849 66.6377C13.4946 66.7482 13.5562 66.898 13.5562 67.0541C13.5562 67.2102 13.4946 67.3599 13.3849 67.4705C13.2752 67.581 13.1264 67.6432 12.9711 67.6435Z" fill="white"/>
<path d="M164.068 108.432H155.894C155.719 108.432 155.546 108.393 155.389 108.316C155.232 108.24 155.094 108.129 154.985 107.992C154.878 107.858 154.802 107.701 154.764 107.533C154.725 107.366 154.725 107.191 154.763 107.024C155.542 103.57 155.493 99.9801 154.621 96.5492C154.565 96.3233 154.579 96.086 154.659 95.8678C154.739 95.6496 154.882 95.4605 155.07 95.3249C159.274 92.2856 162.584 92.3738 164.909 95.5874C165.014 95.7339 165.084 95.9028 165.113 96.0809C165.734 99.8359 165.768 103.665 165.215 107.431C165.176 107.709 165.039 107.964 164.828 108.148C164.617 108.331 164.347 108.432 164.068 108.432Z" fill="#CFD1D0"/>
<path d="M161.534 100.202H158.722C158.567 100.202 158.418 100.139 158.308 100.029C158.198 99.9183 158.137 99.7686 158.137 99.6125C158.137 99.4563 158.198 99.3066 158.308 99.1961C158.418 99.0856 158.567 99.0233 158.722 99.023H161.534C161.689 99.023 161.838 99.0851 161.948 99.1957C162.058 99.3062 162.12 99.4561 162.12 99.6125C162.12 99.7688 162.058 99.9187 161.948 100.029C161.838 100.14 161.689 100.202 161.534 100.202Z" fill="white"/>
<path d="M161.534 102.269H158.722C158.567 102.269 158.418 102.207 158.308 102.096C158.198 101.985 158.137 101.836 158.137 101.68C158.137 101.524 158.198 101.374 158.308 101.263C158.418 101.153 158.567 101.091 158.722 101.09H161.534C161.689 101.09 161.838 101.152 161.948 101.263C162.058 101.373 162.12 101.523 162.12 101.68C162.12 101.836 162.058 101.986 161.948 102.096C161.838 102.207 161.689 102.269 161.534 102.269Z" fill="white"/>
<path d="M161.534 104.336H158.722C158.567 104.336 158.418 104.274 158.308 104.163C158.198 104.053 158.137 103.903 158.137 103.747C158.137 103.591 158.198 103.441 158.308 103.33C158.418 103.22 158.567 103.158 158.722 103.157H161.534C161.689 103.157 161.838 103.22 161.948 103.33C162.058 103.441 162.12 103.591 162.12 103.747C162.12 103.903 162.058 104.053 161.948 104.164C161.838 104.274 161.689 104.336 161.534 104.336Z" fill="white"/>
<path d="M195 158.693C195 158.733 194.992 158.773 194.977 158.81C194.962 158.848 194.939 158.882 194.911 158.91C194.882 158.939 194.848 158.961 194.811 158.977C194.774 158.992 194.734 159 194.694 159H0.305865C0.224745 159 0.14695 158.968 0.089589 158.91C0.0322284 158.852 0 158.774 0 158.693C0 158.611 0.0322284 158.533 0.089589 158.475C0.14695 158.417 0.224745 158.385 0.305865 158.385H194.694C194.734 158.385 194.774 158.393 194.811 158.408C194.848 158.424 194.882 158.446 194.911 158.475C194.939 158.503 194.962 158.537 194.977 158.575C194.992 158.612 195 158.652 195 158.693Z" fill="#A0A3A3"/>
<path d="M51.2781 139.865L50.7682 132.737C47.4285 131.058 43.7318 130.225 39.999 130.309C45.2505 134.39 44.8299 142.546 48.4669 148.128C49.6145 149.86 51.1351 151.31 52.9161 152.372C54.697 153.433 56.6927 154.077 58.7551 154.258L63.1257 156.785C63.6256 153.463 63.4033 150.072 62.4739 146.845C61.5446 143.617 59.9303 140.631 57.7424 138.091C56.5009 136.679 55.0875 135.429 53.5354 134.371C52.5801 137.129 51.2781 139.865 51.2781 139.865Z" fill="#CFD1D0"/>
<path d="M143.722 140.899L144.232 133.77C147.571 132.092 151.268 131.258 155.001 131.342C149.749 135.423 150.17 143.579 146.533 149.161C145.385 150.894 143.865 152.344 142.084 153.405C140.303 154.466 138.307 155.111 136.245 155.291L131.874 157.819C131.374 154.497 131.597 151.105 132.526 147.878C133.455 144.651 135.07 141.664 137.257 139.125C138.499 137.712 139.912 136.462 141.464 135.405C142.42 138.162 143.722 140.899 143.722 140.899Z" fill="#CFD1D0"/>
<path d="M95.1868 60.4506C97.8839 60.4506 100.07 58.2525 100.07 55.541C100.07 52.8295 97.8839 50.6314 95.1868 50.6314C92.4897 50.6314 90.3032 52.8295 90.3032 55.541C90.3032 58.2525 92.4897 60.4506 95.1868 60.4506Z" fill="#BFDAA2"/>
<path d="M97.6937 53.4948C97.6202 53.4244 97.5226 53.3851 97.421 53.3851C97.3195 53.3851 97.2219 53.4244 97.1484 53.4948C96.1122 54.3257 95.1815 55.2814 94.3772 56.3405C94.1797 55.9565 93.9823 55.5724 93.7849 55.1883C93.5569 54.7449 92.8913 55.1366 93.119 55.5795C93.4078 56.1413 93.6966 56.7031 93.9854 57.2649C94.0203 57.3223 94.0692 57.3696 94.1275 57.4025C94.1858 57.4354 94.2515 57.4527 94.3183 57.4527C94.3852 57.4527 94.4509 57.4354 94.5092 57.4025C94.5675 57.3696 94.6164 57.3223 94.6513 57.2649C95.5083 56.0514 96.5327 54.9665 97.6937 54.043C97.7654 53.97 97.8056 53.8715 97.8056 53.7689C97.8056 53.6663 97.7654 53.5678 97.6937 53.4948Z" fill="white"/>
<path d="M73.3355 69.4628L65.9712 57.836L74.4988 53.2446L76.737 62.1154L92.5071 70.6826C93.1297 70.4573 93.8041 70.4191 94.448 70.5724C95.0918 70.7258 95.6774 71.0642 96.1333 71.5464C96.5891 72.0286 96.8956 72.6337 97.0153 73.2879C97.135 73.9422 97.0628 74.6173 96.8074 75.231C96.5521 75.8447 96.1246 76.3704 95.5772 76.7441C95.0298 77.1178 94.386 77.3233 93.7244 77.3355C93.0628 77.3477 92.412 77.1661 91.8513 76.8129C91.2906 76.4597 90.8442 75.9501 90.5666 75.3463L73.3355 69.4628Z" fill="#FFC9B8"/>
<path d="M60.5907 43.8907C58.2768 47.3061 66.4997 59.7209 66.4997 59.7209C66.9003 58.8528 70.7297 68.6011 71.3711 68.0252C73.1939 66.3886 76.0474 61.8298 77.6336 61.6265C78.5407 61.5103 75.5298 55.0429 75.5298 55.0429C75.5298 55.0429 74.1538 51.2239 72.2866 46.3455C71.7842 44.9565 70.9403 43.7178 69.8336 42.7449C68.7269 41.7719 67.3933 41.0962 65.957 40.7808C65.957 40.7808 62.9046 40.4752 60.5907 43.8907Z" fill="#414648"/>
<path d="M60.7037 155.167L64.201 155.166L65.8648 141.604L60.7029 141.605L60.7037 155.167Z" fill="#FFC9B8"/>
<path d="M59.8115 154.019L60.7959 154.018L64.6393 152.447L66.6992 154.018H66.6995C67.8636 154.018 68.9801 154.483 69.8032 155.311C70.6264 156.138 71.0889 157.261 71.0889 158.431V158.574L59.8117 158.575L59.8115 154.019Z" fill="#414648"/>
<path d="M76.9522 155.167L80.4496 155.166L82.1136 141.604L76.9517 141.605L76.9522 155.167Z" fill="#FFC9B8"/>
<path d="M76.0601 154.019L77.0445 154.018L80.8879 152.447L82.9478 154.018H82.9481C84.1122 154.018 85.2286 154.483 86.0518 155.311C86.8749 156.138 87.3374 157.261 87.3375 158.431V158.574L76.0603 158.575L76.0601 154.019Z" fill="#414648"/>
<path d="M78.4661 81.0216L55.7172 81.5934C51.3967 83.9525 51.3311 89.0587 52.7467 95.1212C52.7467 95.1212 52.2688 98.7245 53.2246 99.6854C54.1804 100.646 54.6583 100.646 54.1804 102.328C53.7025 104.009 56.2274 106.756 55.9208 107.064C55.6141 107.373 54.8972 109.054 54.8972 109.054L57.2867 122.747C57.2867 122.747 58.9594 146.529 59.4373 147.009C59.9151 147.49 60.393 147.009 59.9151 148.21C59.4373 149.411 58.9594 148.931 59.4373 149.411C59.8606 149.87 60.2594 150.351 60.632 150.853H66.4091C66.4091 150.853 66.8446 148.451 66.8446 148.21C66.8446 147.97 67.3225 146.529 67.3225 146.289C67.3225 146.048 66.9002 145.624 66.9002 145.624C66.7542 145.135 66.6556 144.634 66.6057 144.127C66.6057 143.646 65.172 125.149 65.172 125.149L68.0394 101.127L74.9689 124.669C74.9689 124.669 74.9689 145.328 75.4468 145.808C75.9247 146.289 75.9247 146.048 75.6857 147.009C75.4468 147.97 74.491 147.73 75.2078 148.451C75.9247 149.171 76.1636 147.97 75.9247 149.171L75.6857 150.372L82.8542 150.475C82.8542 150.475 83.81 148.451 83.3321 147.73C82.8542 147.009 82.8828 147.206 83.4659 146.027C84.0489 144.847 84.2879 144.607 84.0489 144.367C83.81 144.127 83.81 142.849 83.81 142.849L82.6152 119.864C82.6152 119.864 82.3763 95.6016 82.3763 94.881C82.3583 94.5101 82.4262 94.1402 82.5748 93.8003V92.822L81.6594 89.3558L78.4661 81.0216Z" fill="#414648"/>
<path d="M64.8004 33.4666C68.7041 33.4666 71.8686 30.2852 71.8686 26.3607C71.8686 22.4362 68.7041 19.2548 64.8004 19.2548C60.8967 19.2548 57.7322 22.4362 57.7322 26.3607C57.7322 30.2852 60.8967 33.4666 64.8004 33.4666Z" fill="#FFC9B8"/>
<path d="M68.3345 38.1631C69.8573 39.0732 70.7682 40.7454 71.2911 42.447C72.2592 45.5974 72.8419 48.8545 73.0264 52.1465L73.5787 62.0023L80.4189 82.9879C74.4907 88.0308 52.2076 84.134 52.2076 84.134C52.2076 84.134 51.5236 83.9048 52.2076 83.2171C52.8916 82.5294 53.5575 83.1387 52.8735 82.451C52.1895 81.7633 52.661 82.5294 52.889 81.8418C53.117 81.1541 52.889 81.6125 52.661 81.3833C52.433 81.1541 54.4261 79.0911 54.4261 79.0911L52.6021 67.0451L50.322 42.7475C53.0581 39.3092 58.5607 37.2823 58.5607 37.2823L59.9825 34.7094L67.0916 35.2812L68.3345 38.1631Z" fill="#414648"/>
<path d="M70.627 22.5854C71.1763 22.9974 71.5833 23.5721 71.7907 24.2288C71.8703 23.1557 71.8754 22.0782 71.8058 21.0043C71.7225 20.2497 71.194 20.08 70.5821 19.8833C70.0295 19.7056 69.4046 19.5049 69.2364 18.7723C67.0146 16.5993 63.1468 16.7089 60.4998 17.4669C59.0433 17.884 58.2052 18.4198 58.1302 18.7338L58.1147 18.7984L58.0555 18.8281C56.9328 19.3925 56.7142 21.1746 56.7287 22.5702C56.756 25.1997 57.6591 28.186 58.1678 28.4286C58.1948 28.4415 58.2016 28.4365 58.2132 28.4267C58.9793 27.8112 59.9139 28.4735 60.3246 28.8334C60.5668 27.1992 61.3468 25.6937 62.54 24.5574C63.7331 23.4211 65.2707 22.7196 66.9069 22.5648C67.4413 22.5129 67.9714 22.4235 68.4934 22.2974C68.7582 22.2285 69.0304 22.1926 69.3039 22.1904C69.7747 22.1833 70.2364 22.3211 70.627 22.5854Z" fill="#414648"/>
<path d="M114.506 86.6837L128.102 72.803L131.685 61.7013L125.92 59.3572C123.064 62.253 120.125 71.1182 120.125 71.1182L110.844 83.6398C110.77 83.6675 110.696 83.6968 110.624 83.7314C110.196 83.9342 109.828 84.2444 109.555 84.632C109.282 85.0195 109.113 85.4714 109.064 85.9439C109.015 86.4163 109.089 86.8935 109.277 87.3291C109.465 87.7648 109.762 88.1442 110.139 88.4308C110.516 88.7174 110.96 88.9014 111.428 88.9651C111.896 89.0287 112.373 88.9699 112.812 88.7942C113.251 88.6186 113.638 88.3321 113.934 87.9624C114.231 87.5926 114.428 87.1523 114.506 86.6837Z" fill="#FFC9B8"/>
<path d="M124.347 60.6272L131.637 62.7473L131.665 62.742C134.344 62.2189 136.464 57.7419 137.77 54.0783C138.2 52.8699 138.157 51.5425 137.651 50.3645C137.144 49.1866 136.212 48.2459 135.042 47.7326C134.176 47.3598 133.224 47.2379 132.293 47.3806C131.363 47.5233 130.49 47.925 129.774 48.5401L126.139 51.6867L124.347 60.6272Z" fill="#BFDAA2"/>
<path d="M118.11 154.754L114.189 154.754L112.324 139.551L118.111 139.551L118.11 154.754Z" fill="#FFC9B8"/>
<path d="M119.11 153.467L118.007 153.467L113.698 151.706L111.389 153.467H111.389C110.084 153.467 108.832 153.988 107.91 154.916C106.987 155.843 106.468 157.102 106.468 158.414V158.574L119.11 158.575L119.11 153.467Z" fill="#414648"/>
<path d="M135.507 154.754L131.586 154.754L129.721 139.551L135.507 139.551L135.507 154.754Z" fill="#FFC9B8"/>
<path d="M136.507 153.467L135.403 153.467L131.095 151.706L128.786 153.467H128.785C127.48 153.467 126.229 153.988 125.306 154.916C124.383 155.843 123.865 157.102 123.865 158.414V158.574L136.506 158.575L136.507 153.467Z" fill="#414648"/>
<path d="M141.485 89.2691C141.485 89.2691 141.943 94.792 140.798 100.085C139.654 105.378 139.654 120.284 139.654 120.284L137.136 149.331L129.582 148.641L127.522 100.085L120.197 116.424L120.884 118.725L119.969 119.3C119.969 119.3 120.655 123.787 120.197 123.787C119.739 123.787 118.595 124.478 118.595 124.478L119.51 148.18L111.728 147.95L108.981 114.583L111.956 95.4824L112.185 91.8005L113.215 91.843L113.74 90.3047L114.703 87.6583L141.485 89.2691Z" fill="#414648"/>
<path d="M141.88 90.4292L141.921 90.3716C144.1 87.305 140.823 79.9359 140.329 78.8677L142.411 78.1885L141.942 74.1826L141.72 72.3967L143.311 70.7972L143.315 70.7573L144.231 62.7031L145.562 57.3535C146.064 55.3312 146.021 53.2111 145.438 51.2108C144.855 49.2106 143.754 47.4023 142.246 45.9715L139.169 43.0547L135.429 37.4916H129.398L127.331 41.4183C125.326 41.8841 123.547 43.0423 122.304 44.6909C121.062 46.3396 120.433 48.3744 120.53 50.4407L120.998 60.7393L119.163 73.5618L119.162 75.8824L117.098 78.1892L117.549 80.4555L115.977 81.1325L115.283 84.3875C114.996 84.7684 113.101 87.3089 113.101 88.0035C113.101 88.1077 113.178 88.2085 113.342 88.3204C114.633 89.1996 121.772 90.9922 124.932 89.7211C128.297 88.3682 141.676 90.3977 141.811 90.4184L141.88 90.4292Z" fill="#BFDAA2"/>
<path d="M131.635 35.6958C136.046 35.6958 139.622 32.1009 139.622 27.6662C139.622 23.2316 136.046 19.6366 131.635 19.6366C127.224 19.6366 123.648 23.2316 123.648 27.6662C123.648 32.1009 127.224 35.6958 131.635 35.6958Z" fill="#FFC9B8"/>
<path d="M130.87 35.8258C132.107 35.8131 133.34 35.6942 134.557 35.4704C135.762 35.1914 138.419 33.1253 139.144 31.9047C139.682 30.9978 140.005 29.595 140.181 28.578C140.419 27.232 140.373 25.8509 140.047 24.5239C139.72 23.1969 139.12 21.9537 138.285 20.8747C137.963 20.4228 137.525 20.0666 137.019 19.844C136.974 19.8277 136.928 19.8135 136.881 19.8014C136.147 19.6274 135.481 19.2367 134.969 18.6794C134.869 18.5665 134.762 18.4611 134.648 18.3637C134.073 17.9014 133.398 17.5824 132.678 17.4326C131.514 17.1515 129.849 17.5037 127.729 18.4801C126.664 18.9707 125.482 18.8339 124.571 18.6598C124.52 18.6513 124.468 18.6563 124.419 18.6744C124.371 18.6926 124.328 18.7232 124.295 18.7632C123.919 19.137 123.416 19.3538 122.887 19.3701C122.564 19.3928 122.235 19.8523 121.84 20.4508C121.75 20.5866 121.645 20.7452 121.569 20.8419L121.554 20.6602L121.376 20.868C121.097 21.1945 120.904 21.5869 120.815 22.0086C120.727 22.4303 120.746 22.8676 120.871 23.2798C120.997 23.6919 121.223 24.0656 121.531 24.3659C121.838 24.6662 122.216 24.8835 122.63 24.9974C122.958 25.0761 123.293 25.1209 123.63 25.1311C123.834 25.1442 124.045 25.1578 124.248 25.1878C124.9 25.3045 125.511 25.5892 126.021 26.014C126.531 26.4388 126.922 26.9893 127.157 27.6117C127.213 27.7555 127.301 27.8846 127.414 27.9889C127.527 28.0933 127.662 28.1702 127.809 28.2136C127.956 28.2571 128.112 28.2659 128.263 28.2395C128.414 28.213 128.557 28.152 128.681 28.0611C128.887 27.8909 129.132 27.7733 129.393 27.7184C129.654 27.6636 129.925 27.673 130.181 27.746C130.405 27.8634 130.581 28.0544 130.681 28.287C130.802 28.5458 130.997 28.7627 131.24 28.9098C132.072 29.3139 132.177 31.1968 131.923 32.7752C131.677 34.2968 131.144 35.4067 130.625 35.4743C130.226 35.5264 130.181 35.5562 130.154 35.6281L130.13 35.6925L130.176 35.7509C130.399 35.8257 130.636 35.8513 130.87 35.8258Z" fill="#414648"/>
<path d="M124.243 61.4859L120.404 56.5681C116.493 57.6507 109.555 63.8685 109.555 63.8685L95.3046 70.0855C94.829 70.0051 94.3407 70.0521 93.8889 70.2218C93.4371 70.3915 93.0377 70.6778 92.731 71.052C92.4243 71.4262 92.221 71.875 92.1417 72.3532C92.0623 72.8315 92.1097 73.3223 92.279 73.7763C92.4483 74.2303 92.7336 74.6314 93.1062 74.9393C93.4787 75.2473 93.9254 75.4511 94.4012 75.5303C94.877 75.6095 95.3652 75.5613 95.8165 75.3905C96.2679 75.2197 96.6666 74.9324 96.9724 74.5575L115.64 69.3219L124.243 61.4859Z" fill="#FFC9B8"/>
<path d="M123.323 62.6102L129.381 55.8214L129.717 51.011C129.78 50.0664 129.578 49.123 129.136 48.2875C128.693 47.452 128.026 46.7575 127.212 46.2828C126.103 45.6466 124.796 45.4574 123.553 45.7534C122.311 46.0495 121.227 46.8086 120.521 47.8774C118.38 51.1205 116.078 55.5052 117.263 57.9774L117.275 58.0025L123.323 62.6102Z" fill="#BFDAA2"/>
<path d="M67.4905 88.1271L51.7463 80.0208C50.6265 79.4442 50.2555 77.9148 50.9194 76.6115L61.1849 56.4606C61.8489 55.1573 63.3001 54.5661 64.42 55.1427L80.1641 63.2491C81.284 63.8257 81.655 65.3551 80.991 66.6583L70.7255 86.8093C70.0616 88.1126 68.6104 88.7037 67.4905 88.1271Z" fill="#CFD1D0"/>
<path d="M64.8005 84.4006L54.1037 78.8931C53.0548 78.353 52.7074 76.9207 53.3292 75.7001L61.8576 58.959C62.4794 57.7384 63.8386 57.1849 64.8874 57.7249L77.8069 64.3769C78.8558 64.9169 79.2032 66.3492 78.5813 67.5697L73.9483 76.6644C71.1786 82.1012 69.4723 86.806 64.8005 84.4006Z" fill="white"/>
<path d="M70.0891 75.2583L60.6147 70.3801C60.4988 70.2971 60.4165 70.175 60.3828 70.0361C60.3491 69.8971 60.3663 69.7506 60.4311 69.6234C60.496 69.4961 60.6042 69.3965 60.736 69.3428C60.8678 69.2891 61.0145 69.2849 61.1492 69.3309L70.6236 74.2091C70.7395 74.292 70.8217 74.4141 70.8555 74.5531C70.8892 74.692 70.872 74.8385 70.8072 74.9658C70.7423 75.0931 70.6341 75.1926 70.5023 75.2463C70.3704 75.3 70.2238 75.3043 70.0891 75.2583Z" fill="#BFDAA2"/>
<path d="M61.7207 73.5663L59.5585 72.4531C59.4427 72.3701 59.3604 72.248 59.3267 72.109C59.293 71.9701 59.3101 71.8236 59.375 71.6963C59.4398 71.569 59.548 71.4694 59.6799 71.4157C59.8117 71.362 59.9584 71.3578 60.093 71.4038L62.2552 72.5171C62.3711 72.6 62.4533 72.7222 62.487 72.8611C62.5207 73 62.5036 73.1465 62.4388 73.2738C62.3739 73.4011 62.2657 73.5007 62.1339 73.5544C62.002 73.6081 61.8554 73.6123 61.7207 73.5663Z" fill="#BFDAA2"/>
<path d="M64.4942 77.611L58.5026 74.5261C58.3868 74.4431 58.3045 74.321 58.2708 74.182C58.2371 74.0431 58.2542 73.8966 58.3191 73.7693C58.3839 73.642 58.4921 73.5424 58.624 73.4887C58.7558 73.435 58.9024 73.4308 59.0371 73.4768L65.0288 76.5618C65.1446 76.6447 65.2269 76.7669 65.2606 76.9058C65.2943 77.0447 65.2771 77.1912 65.2123 77.3185C65.1475 77.4458 65.0392 77.5454 64.9074 77.5991C64.7756 77.6528 64.6289 77.657 64.4942 77.611V77.611Z" fill="#BFDAA2"/>
<path d="M73.8384 67.8985L64.3639 63.0203C64.2481 62.9374 64.1658 62.8152 64.1321 62.6763C64.0984 62.5374 64.1155 62.3909 64.1804 62.2636C64.2452 62.1363 64.3534 62.0368 64.4853 61.9831C64.6171 61.9294 64.7638 61.9251 64.8984 61.9711L74.3729 66.8493C74.4887 66.9323 74.571 67.0544 74.6047 67.1933C74.6384 67.3323 74.6213 67.4787 74.5564 67.606C74.4916 67.7333 74.3834 67.8329 74.2516 67.8866C74.1197 67.9403 73.9731 67.9445 73.8384 67.8985Z" fill="#BFDAA2"/>
<path d="M65.4699 66.2066L63.3078 65.0934C63.1919 65.0104 63.1096 64.8883 63.076 64.7493C63.0423 64.6104 63.0594 64.4639 63.1242 64.3366C63.1891 64.2093 63.2973 64.1098 63.4291 64.0561C63.561 64.0024 63.7076 63.9981 63.8423 64.0441L66.0045 65.1574C66.1203 65.2404 66.2026 65.3625 66.2363 65.5014C66.27 65.6403 66.2529 65.7868 66.188 65.9141C66.1232 66.0414 66.015 66.141 65.8831 66.1947C65.7513 66.2484 65.6046 66.2526 65.4699 66.2066Z" fill="#BFDAA2"/>
<path d="M68.2435 70.2513L62.2519 67.1663C62.136 67.0833 62.0537 66.9612 62.02 66.8223C61.9863 66.6833 62.0035 66.5369 62.0683 66.4096C62.1332 66.2823 62.2414 66.1827 62.3732 66.129C62.5051 66.0753 62.6517 66.0711 62.7864 66.1171L68.778 69.202C68.8939 69.285 68.9761 69.4071 69.0098 69.5461C69.0435 69.685 69.0264 69.8315 68.9616 69.9588C68.8967 70.086 68.7885 70.1856 68.6567 70.2393C68.5248 70.293 68.3782 70.2973 68.2435 70.2513L68.2435 70.2513Z" fill="#BFDAA2"/>
<path d="M54.444 70.5838L50.8872 57.2717L60.392 55.4629L59.8808 64.6002L72.3693 77.5278C73.0304 77.5006 73.6852 77.6674 74.2537 78.0079C74.8221 78.3483 75.2798 78.8477 75.5708 79.4451C75.8619 80.0425 75.9737 80.7122 75.8928 81.3724C75.8118 82.0326 75.5415 82.6549 75.1148 83.1634C74.6881 83.6718 74.1235 84.0445 73.4898 84.2359C72.8561 84.4273 72.1807 84.4293 71.5459 84.2414C70.9111 84.0536 70.3444 83.6842 69.9149 83.1782C69.4853 82.6722 69.2115 82.0514 69.1268 81.3917L54.444 70.5838Z" fill="#FFC9B8"/>
<path d="M49.9145 42.3462C46.6882 44.9067 50.8291 59.2294 50.8291 59.2294C51.4703 58.522 52.2153 68.9761 52.9989 68.6201C55.2261 67.6085 59.3083 64.1198 60.882 64.4042C61.782 64.5668 60.8391 57.4893 60.8391 57.4893C60.8391 57.4893 60.6657 53.4312 60.3397 48.2144C60.2748 46.7378 59.8393 45.3018 59.0738 44.0399C58.3083 42.778 57.2376 41.7314 55.9615 40.9974C55.9615 40.9974 53.1408 39.7856 49.9145 42.3462Z" fill="#414648"/>
<path d="M103.596 100.131L95.005 96.0523C94.8213 95.9655 94.6594 95.8381 94.5317 95.6795C94.4039 95.5209 94.3135 95.3353 94.2673 95.1366C94.2208 94.9422 94.2186 94.7397 94.261 94.5444C94.3034 94.3491 94.3892 94.1659 94.5121 94.0087C97.0007 90.811 98.7096 87.0717 99.5017 83.0904C99.5616 82.7855 99.7247 82.5109 99.9634 82.3135C100.202 82.116 100.501 82.0079 100.811 82.0076C105.192 82.0226 108.467 83.631 110.544 86.7878C110.653 86.952 110.726 87.1382 110.756 87.3335C110.787 87.5287 110.775 87.7284 110.721 87.9184C109.518 92.0848 107.689 96.0417 105.295 99.6515C105.118 99.9244 104.848 100.123 104.535 100.211C104.223 100.3 103.889 100.271 103.596 100.131Z" fill="#CFD1D0"/>
<path d="M106.124 94.4104L99.5547 91.2919C99.3912 91.2143 99.2652 91.0746 99.2042 90.9035C99.1432 90.7325 99.1523 90.5441 99.2294 90.3798C99.3066 90.2155 99.4455 90.0888 99.6157 90.0274C99.7858 89.9661 99.9732 89.9753 100.137 90.0528L106.706 93.1714C106.787 93.2098 106.859 93.2639 106.919 93.3305C106.98 93.3971 107.026 93.475 107.056 93.5597C107.087 93.6444 107.1 93.7342 107.095 93.8241C107.091 93.914 107.069 94.0021 107.031 94.0834C106.993 94.1648 106.939 94.2378 106.873 94.2983C106.807 94.3587 106.729 94.4055 106.645 94.4358C106.561 94.4662 106.471 94.4796 106.382 94.4752C106.292 94.4708 106.205 94.4488 106.124 94.4104H106.124Z" fill="white"/>
<path d="M107.144 92.2377L100.575 89.1192C100.412 89.0416 100.286 88.9019 100.225 88.7309C100.164 88.5598 100.173 88.3714 100.25 88.2071C100.327 88.0428 100.466 87.9161 100.636 87.8548C100.806 87.7934 100.994 87.8026 101.157 87.8802L107.726 90.9987C107.89 91.0763 108.016 91.216 108.077 91.387C108.138 91.5581 108.129 91.7465 108.052 91.9108C107.974 92.0751 107.835 92.2018 107.665 92.2632C107.495 92.3245 107.308 92.3153 107.144 92.2378V92.2377Z" fill="white"/>
<path d="M98.3665 24.035L97.7549 24.1024C95.0285 13.3312 89.7438 5.86899 82.4716 2.52242C73.2268 -1.73167 61.7953 1.12503 50.2828 10.5664C38.7118 20.056 28.4684 35.0453 21.4398 52.7741L20.8464 52.5011C27.9059 34.6949 38.2019 19.6331 49.8378 10.0908C61.532 0.500252 73.1968 -2.37739 82.6834 1.98808C90.1641 5.43055 95.5872 13.0543 98.3665 24.035Z" fill="#CFD1D0"/>
<path d="M30.9032 38.0632C29.3041 41.4499 27.783 44.9586 26.3823 48.4916C18.3217 68.8231 14.237 89.5869 14.5708 108.539L13.9408 108.472C13.6067 89.4488 17.7032 68.6135 25.7889 48.2187C27.1937 44.6756 28.7191 41.157 30.3228 37.7607L30.9032 38.0632Z" fill="#CFD1D0"/>
<path d="M30.6007 52.0332C29.0016 55.4199 27.4805 58.9286 26.0798 62.4617C18.0192 82.7931 13.9345 103.557 14.2683 122.509L13.6383 122.442C13.3042 103.419 17.4007 82.5835 25.4865 62.1887C26.8912 58.6457 28.4166 55.1271 30.0203 51.7308L30.6007 52.0332Z" fill="#CFD1D0"/>
<path d="M13.6686 57.1139C14.365 56.0616 13.9528 54.5552 12.7479 53.7493C11.5431 52.9434 10.0018 53.1432 9.30538 54.1955C8.60898 55.2479 9.02117 56.7542 10.226 57.5601C11.4309 58.366 12.9722 58.1662 13.6686 57.1139Z" fill="#A0A3A3"/>
<path d="M161.959 95.1165C162.656 94.0642 162.243 92.5578 161.039 91.7519C159.834 90.946 158.292 91.1458 157.596 92.1981C156.9 93.2504 157.312 94.7568 158.517 95.5627C159.722 96.3686 161.263 96.1688 161.959 95.1165Z" fill="#A0A3A3"/>
</g>
<defs>
<clipPath id="clip0_0_271">
<rect width="195" height="159" fill="white"/>
</clipPath>
</defs>
</svg>
