<svg width="202" height="117" viewBox="0 0 202 117" fill="none" xmlns="http://www.w3.org/2000/svg">
<g clip-path="url(#clip0_0_454)">
<path d="M169.537 12.4197C170.84 21.6513 164.613 19.9123 160.072 19.1986C158.99 19.0281 157.007 20.4863 156.323 20.8757C155.94 19.5084 155.917 19.8514 154.904 18.7085C155.45 20.2125 153.771 20.8825 154.382 21.7618C152.862 21.6534 152.19 18.4102 153.554 11.3382C154.154 8.22629 155.719 3.457 162.127 4.51086C169.069 5.65318 169.13 9.52896 169.537 12.4197Z" fill="#414648"/>
<path d="M160.349 19.2085C163.52 19.2085 166.092 16.6317 166.092 13.4532C166.092 10.2746 163.52 7.69781 160.349 7.69781C157.177 7.69781 154.606 10.2746 154.606 13.4532C154.606 16.6317 157.177 19.2085 160.349 19.2085Z" fill="#FFC9B8"/>
<path d="M152.619 11.3995L155.37 11.8208C156.583 11.0593 157.045 9.92936 157.103 8.60112L156.826 12.0438L158.141 12.2452C158.999 11.6714 159.383 11.05 159.152 10.3671L158.991 12.3753C162.495 13.6408 165.892 14.5741 168.76 13.8716C168.908 12.9026 168.864 11.9139 168.631 10.9621C168.397 10.0102 167.979 9.11367 167.4 8.32379C166.82 7.5339 166.092 6.86608 165.255 6.35846C164.418 5.85083 163.49 5.51334 162.523 5.36526L161.107 5.14841C160.14 5.00033 159.154 5.04455 158.204 5.27856C157.254 5.51256 156.359 5.93176 155.571 6.51223C154.783 7.0927 154.117 7.82306 153.61 8.66162C153.104 9.50018 152.767 10.4305 152.619 11.3995Z" fill="#414648"/>
<path d="M143.367 49.2817H11.5727C10.7569 49.2808 9.97489 48.9556 9.39808 48.3775C8.82126 47.7994 8.4968 47.0157 8.49585 46.1982V18.8447C8.4968 18.0272 8.82126 17.2434 9.39808 16.6654C9.97489 16.0873 10.7569 15.7621 11.5727 15.7612H143.367C144.183 15.7621 144.965 16.0873 145.542 16.6654C146.119 17.2434 146.443 18.0272 146.444 18.8447V46.1982C146.443 47.0157 146.119 47.7994 145.542 48.3775C144.965 48.9556 144.183 49.2808 143.367 49.2817Z" fill="#CFD1D0"/>
<path d="M134.472 47.2018H13.6486C12.8329 47.2009 12.0508 46.8757 11.474 46.2976C10.8972 45.7196 10.5727 44.9358 10.5718 44.1183V20.9262C10.5727 20.1087 10.8972 19.325 11.474 18.7469C12.0508 18.1688 12.8329 17.8437 13.6486 17.8427H141.292C142.108 17.8437 142.89 18.1688 143.467 18.7469C144.044 19.325 144.368 20.1087 144.369 20.9262V37.2835C144.366 39.9131 143.322 42.4341 141.467 44.2935C139.612 46.1529 137.096 47.1989 134.472 47.2018Z" fill="white"/>
<path d="M118.538 28.3567H81.7413C81.5308 28.3567 81.329 28.2729 81.1802 28.1238C81.0314 27.9747 80.9478 27.7724 80.9478 27.5615C80.9478 27.3506 81.0314 27.1483 81.1802 26.9992C81.329 26.85 81.5308 26.7662 81.7413 26.7662H118.538C118.748 26.7662 118.95 26.85 119.099 26.9992C119.248 27.1483 119.331 27.3506 119.331 27.5615C119.331 27.7724 119.248 27.9747 119.099 28.1238C118.95 28.2729 118.748 28.3567 118.538 28.3567Z" fill="#BFDAA2"/>
<path d="M127.851 33.077H72.4278C72.2173 33.077 72.0155 32.9933 71.8667 32.8441C71.7179 32.695 71.6343 32.4927 71.6343 32.2818C71.6343 32.0709 71.7179 31.8686 71.8667 31.7195C72.0155 31.5703 72.2173 31.4865 72.4278 31.4865H127.851C128.062 31.4865 128.264 31.5703 128.412 31.7195C128.561 31.8686 128.645 32.0709 128.645 32.2818C128.645 32.4927 128.561 32.695 128.412 32.8441C128.264 32.9933 128.062 33.077 127.851 33.077Z" fill="#CFD1D0"/>
<path d="M127.851 38.2783H72.4278C72.2173 38.2783 72.0155 38.1945 71.8667 38.0454C71.7179 37.8962 71.6343 37.694 71.6343 37.4831C71.6343 37.2721 71.7179 37.0699 71.8667 36.9207C72.0155 36.7716 72.2173 36.6878 72.4278 36.6878H127.851C128.062 36.6878 128.264 36.7716 128.412 36.9207C128.561 37.0699 128.645 37.2721 128.645 37.4831C128.645 37.694 128.561 37.8962 128.412 38.0454C128.264 38.1945 128.062 38.2783 127.851 38.2783Z" fill="#CFD1D0"/>
<path d="M81.2522 20.3229H80.8V2.86649H113.505V3.31965H81.2522V20.3229Z" fill="#414648"/>
<path d="M127.336 0H115.353C114.573 0 113.826 0.310335 113.275 0.862732C112.723 1.41513 112.414 2.16434 112.414 2.94555C112.414 3.72676 112.723 4.47597 113.275 5.02836C113.826 5.58076 114.573 5.8911 115.353 5.8911H127.336C128.115 5.8911 128.863 5.58076 129.414 5.02836C129.965 4.47597 130.275 3.72676 130.275 2.94555C130.275 2.16434 129.965 1.41513 129.414 0.862732C128.863 0.310335 128.115 0 127.336 0Z" fill="#BFDAA2"/>
<path d="M80.7638 23.288C82.2554 23.288 83.4646 22.0762 83.4646 20.5813C83.4646 19.0864 82.2554 17.8746 80.7638 17.8746C79.2722 17.8746 78.063 19.0864 78.063 20.5813C78.063 22.0762 79.2722 23.288 80.7638 23.288Z" fill="#CFD1D0"/>
<path d="M178.605 112.2H176.11L174.922 102.554H178.605V112.2Z" fill="#FFC9B8"/>
<path d="M179.922 116.533H178.133L177.813 114.84L176.995 116.533H172.249C172.021 116.533 171.8 116.461 171.616 116.325C171.433 116.19 171.298 116 171.23 115.782C171.162 115.565 171.166 115.331 171.24 115.115C171.314 114.9 171.455 114.714 171.642 114.584L175.433 111.961V110.249L179.42 110.487L179.922 116.533Z" fill="#414648"/>
<path d="M161.422 112.2H158.927L157.739 102.554H161.422V112.2Z" fill="#FFC9B8"/>
<path d="M162.74 116.533H160.95L160.631 114.84L159.813 116.533H155.066C154.839 116.533 154.617 116.461 154.434 116.325C154.25 116.19 154.115 116 154.047 115.782C153.98 115.565 153.983 115.331 154.057 115.115C154.132 114.9 154.273 114.714 154.46 114.584L158.25 111.961V110.249L162.237 110.487L162.74 116.533Z" fill="#414648"/>
<path d="M185.046 56.1464C185.221 55.8993 185.341 55.6165 185.395 55.3182C185.45 55.0198 185.439 54.7131 185.362 54.4196C185.286 54.1261 185.146 53.853 184.953 53.6194C184.76 53.3859 184.518 53.1977 184.244 53.068L178.16 35.2241L174.536 37.1307L181.406 54.183C181.219 54.6581 181.212 55.1854 181.387 55.6651C181.562 56.1447 181.907 56.5432 182.356 56.7853C182.804 57.0273 183.326 57.0959 183.822 56.9782C184.318 56.8604 184.753 56.5645 185.046 56.1464H185.046Z" fill="#FFC9B8"/>
<path d="M146.996 64.1123C147.286 64.0255 147.554 63.8761 147.78 63.6745C148.006 63.473 148.185 63.2241 148.305 62.9456C148.425 62.667 148.483 62.3656 148.474 62.0624C148.465 61.7592 148.389 61.4616 148.253 61.1907L154.408 43.3714L150.38 42.6404L145.331 60.3201C144.892 60.5795 144.563 60.9912 144.407 61.4773C144.25 61.9634 144.277 62.4901 144.483 62.9575C144.688 63.4249 145.057 63.8007 145.521 64.0135C145.984 64.2263 146.509 64.2615 146.996 64.1123V64.1123Z" fill="#FFC9B8"/>
<path d="M156.703 53.473C156.703 53.473 172.754 49.3662 172.077 50.7541C172.077 50.7541 177.033 49.2169 177.721 59.4647L177.503 79.983L178.399 96.0012C178.399 96.0012 177.853 97.3051 178.465 97.1911C179.078 97.0771 178.566 98.9901 178.566 98.9901C178.566 98.9901 178.05 101.026 178.677 100.978C179.304 100.929 178.852 104.101 178.852 104.101H174.782L166.985 68.9815L163.486 81.7956C163.486 81.7956 163.678 83.1689 163.352 83.2123C163.025 83.2557 163.255 84.2429 163.255 84.2429L163.132 85.5401L161.443 103.421L157.599 103.648C157.599 103.648 157.569 103.256 157.599 102.288C157.622 101.57 157.842 100.422 157.261 99.4761C156.615 98.4252 156.24 97.2095 156.992 95.8705C157.513 94.9437 156.836 93.6673 156.756 92.461C156.248 84.8502 155.702 74.6933 155.718 66.3922C155.718 66.061 155.202 65.2328 155.722 65.4076C156.243 65.5824 155.729 64.6605 155.735 64.2939C155.745 63.6141 156.445 62.4288 155.779 62.3063C155.112 62.1837 155.8 61.6547 155.812 61.3367C155.943 57.9799 156.221 55.216 156.703 53.473Z" fill="#414648"/>
<path d="M163.938 19.9391L157.381 20.6188L156.746 23.6824L150.523 27.4917L152.676 33.3272C152.676 33.3272 150.927 39.2364 155.871 41.6064L157.607 46.6756L156.996 50.2768L156.826 51.2764C157.26 52.0836 157.336 52.6769 156.573 52.7683L156.326 54.2185C155.232 54.8534 155.269 55.9818 155.799 57.3249L177.729 59.5907C178.631 56.6386 173.763 46.8911 171.173 45.9959L171.51 31.4331L172.069 21.8523L164.608 22.5321L163.938 19.9391Z" fill="#414648"/>
<path d="M170.362 22.2824C170.667 22.0618 171.017 21.913 171.387 21.8471C171.757 21.7812 172.137 21.8 172.499 21.9019C172.861 22.0039 173.195 22.1865 173.477 22.436C173.758 22.6855 173.98 22.9956 174.125 23.343L178.027 32.6745C178.764 32.9419 179.977 35.2168 179.538 35.7997C179.547 36.416 179.334 35.9684 179.93 36.8235C180.608 36.8717 180.785 37.1579 180.317 37.75L180.216 38.5187L180.492 38.5709C181.232 38.5974 181.27 38.8735 180.809 39.3274C180.962 39.4197 181.079 39.561 181.142 39.7286C181.205 39.8962 181.209 40.0801 181.154 40.2505L180.66 41.7914L176.817 43.6041L170.494 31.7213L169.474 25.1516C169.292 24.6415 169.28 24.0859 169.44 23.5684C169.6 23.051 169.924 22.5997 170.362 22.2824Z" fill="#414648"/>
<path d="M152.84 27.7482C152.494 27.4486 152.067 27.2593 151.614 27.2048C151.16 27.1503 150.701 27.233 150.294 27.4423C149.888 27.6516 149.553 27.9779 149.333 28.3793C149.114 28.7807 149.019 29.2388 149.061 29.6947C149.365 32.9915 149.689 36.4994 149.689 36.4994L149.158 45.6354L153.99 46.6756L154.176 45.3655L154.668 45.0896L154.324 44.3317C154.411 44.3403 154.498 44.327 154.579 44.2932C154.66 44.2594 154.731 44.2061 154.786 44.138C154.841 44.07 154.879 43.9892 154.895 43.9031C154.911 43.817 154.906 43.7282 154.88 43.6446L154.564 42.6404C154.614 42.6807 154.675 42.7038 154.739 42.7063C154.803 42.7088 154.865 42.6906 154.918 42.6543C154.97 42.618 155.01 42.5656 155.03 42.505C155.05 42.4444 155.051 42.3788 155.031 42.3181L154.737 41.427L156.019 32.4209L153.252 28.2194C153.137 28.0442 152.998 27.8856 152.84 27.7482Z" fill="#414648"/>
<path d="M97.5305 44.9323H97.0784V62.3887H129.784V61.9356H97.5305V44.9323Z" fill="#414648"/>
<path d="M146.553 62.3097C146.552 61.5287 146.242 60.7799 145.691 60.2277C145.14 59.6754 144.393 59.3649 143.614 59.3641H131.631C130.852 59.3641 130.104 59.6744 129.553 60.2268C129.002 60.7792 128.692 61.5284 128.692 62.3097C128.692 63.0909 129.002 63.8401 129.553 64.3925C130.104 64.9449 130.852 65.2552 131.631 65.2552H143.614C144.393 65.2545 145.14 64.9439 145.691 64.3916C146.242 63.8394 146.552 63.0906 146.553 62.3097Z" fill="#BFDAA2"/>
<path d="M97.4943 46.6258C98.9859 46.6258 100.195 45.414 100.195 43.9191C100.195 42.4242 98.9859 41.2124 97.4943 41.2124C96.0027 41.2124 94.7935 42.4242 94.7935 43.9191C94.7935 45.414 96.0027 46.6258 97.4943 46.6258Z" fill="#CFD1D0"/>
<path d="M49.0226 45.1589H49.4747V62.6153H16.7695V62.1622H49.0226V45.1589Z" fill="#414648"/>
<path d="M2.93914 65.4818H14.9218C15.7013 65.4818 16.4489 65.1715 17.0001 64.6191C17.5513 64.0667 17.8609 63.3175 17.8609 62.5362C17.8609 61.755 17.5513 61.0058 17.0001 60.4534C16.4489 59.901 15.7013 59.5907 14.9218 59.5907H2.93914C2.15963 59.5907 1.41205 59.901 0.860856 60.4534C0.30966 61.0058 0 61.755 0 62.5362C0 63.3175 0.30966 64.0667 0.860856 64.6191C1.41205 65.1715 2.15963 65.4818 2.93914 65.4818Z" fill="#BFDAA2"/>
<path d="M49.5636 46.4743C51.0552 46.4743 52.2644 45.2624 52.2644 43.7676C52.2644 42.2727 51.0552 41.0609 49.5636 41.0609C48.072 41.0609 46.8628 42.2727 46.8628 43.7676C46.8628 45.2624 48.072 46.4743 49.5636 46.4743Z" fill="#CFD1D0"/>
<path d="M194.201 116.768H186.698L186.666 116.709C186.57 116.535 186.478 116.35 186.391 116.16C185.618 114.502 185.291 112.605 185.003 110.932L184.786 109.671C184.76 109.518 184.78 109.361 184.843 109.22C184.906 109.078 185.01 108.959 185.142 108.877C185.273 108.795 185.426 108.755 185.58 108.76C185.735 108.766 185.884 108.818 186.009 108.909C187.15 109.741 188.29 110.571 189.431 111.401C189.864 111.716 190.357 112.081 190.83 112.475C190.875 112.253 190.923 112.031 190.971 111.811C191.004 111.659 191.081 111.521 191.193 111.414C191.304 111.307 191.445 111.235 191.598 111.209C191.75 111.182 191.907 111.202 192.049 111.266C192.19 111.329 192.309 111.433 192.391 111.565L193.268 112.978C193.909 114.011 194.474 115.028 194.359 116.125C194.359 116.138 194.358 116.152 194.356 116.165C194.333 116.345 194.29 116.522 194.228 116.693L194.201 116.768Z" fill="#F0F0F0"/>
<path d="M201.732 116.93L130.434 117C130.362 117 130.294 116.971 130.244 116.921C130.194 116.87 130.166 116.802 130.166 116.73C130.166 116.659 130.194 116.59 130.244 116.54C130.294 116.489 130.362 116.461 130.434 116.46L201.732 116.391C201.803 116.391 201.871 116.42 201.922 116.47C201.972 116.521 202 116.589 202 116.661C202 116.732 201.972 116.8 201.922 116.851C201.871 116.901 201.803 116.93 201.732 116.93Z" fill="#CACACA"/>
<path d="M23.5371 40.6364C28.0323 40.6364 31.6763 36.9845 31.6763 32.4795C31.6763 27.9746 28.0323 24.3226 23.5371 24.3226C19.042 24.3226 15.3979 27.9746 15.3979 32.4795C15.3979 36.9845 19.042 40.6364 23.5371 40.6364Z" fill="#CFD1D0"/>
<path d="M54.3757 28.314H49.0054C48.795 28.314 48.5931 28.2302 48.4443 28.0811C48.2955 27.9319 48.2119 27.7297 48.2119 27.5188C48.2119 27.3078 48.2955 27.1056 48.4443 26.9564C48.5931 26.8073 48.795 26.7235 49.0054 26.7235H54.3757C54.5862 26.7235 54.788 26.8073 54.9369 26.9564C55.0857 27.1056 55.1693 27.3078 55.1693 27.5188C55.1693 27.7297 55.0857 27.9319 54.9369 28.0811C54.788 28.2302 54.5862 28.314 54.3757 28.314Z" fill="#BFDAA2"/>
<path d="M63.6893 33.0343H39.692C39.4815 33.0343 39.2797 32.9505 39.1309 32.8014C38.982 32.6522 38.8984 32.45 38.8984 32.2391C38.8984 32.0281 38.982 31.8259 39.1309 31.6767C39.2797 31.5276 39.4815 31.4438 39.692 31.4438H63.6893C63.8998 31.4438 64.1016 31.5276 64.2504 31.6767C64.3992 31.8259 64.4828 32.0281 64.4828 32.2391C64.4828 32.45 64.3992 32.6522 64.2504 32.8014C64.1016 32.9505 63.8998 33.0343 63.6893 33.0343Z" fill="#CFD1D0"/>
<path d="M63.6893 38.2356H39.692C39.4815 38.2356 39.2797 38.1518 39.1309 38.0026C38.982 37.8535 38.8984 37.6512 38.8984 37.4403C38.8984 37.2294 38.982 37.0271 39.1309 36.878C39.2797 36.7289 39.4815 36.6451 39.692 36.6451H63.6893C63.8998 36.6451 64.1016 36.7289 64.2504 36.878C64.3992 37.0271 64.4828 37.2294 64.4828 37.4403C64.4828 37.6512 64.3992 37.8535 64.2504 38.0026C64.1016 38.1518 63.8998 38.2356 63.6893 38.2356Z" fill="#CFD1D0"/>
</g>
<defs>
<clipPath id="clip0_0_454">
<rect width="202" height="117" fill="white"/>
</clipPath>
</defs>
</svg>
