<svg width="181" height="142" viewBox="0 0 181 142" fill="none" xmlns="http://www.w3.org/2000/svg">
<g clip-path="url(#clip0_0_328)">
<path d="M47.4744 64.0864C47.076 64.0864 46.752 64.4092 46.752 64.8063V70.5656C46.752 70.9626 47.076 71.2855 47.4744 71.2855C47.8728 71.2855 48.1968 70.9626 48.1968 70.5656V64.8063C48.1968 64.4092 47.8728 64.0864 47.4744 64.0864Z" fill="#414648"/>
<path d="M129.648 0H64.6631C57.2938 0 51.3198 5.95314 51.3198 13.2967V127.729C51.3198 135.072 57.2938 141.026 64.6631 141.026H129.648C137.017 141.026 142.991 135.072 142.991 127.729V13.2967C142.991 5.95314 137.017 0 129.648 0Z" fill="white"/>
<path d="M129.648 142H64.6632C57.1315 142 51.0039 135.894 51.0039 128.389V13.9565C51.0039 6.45107 57.1315 0.344879 64.6632 0.344879H129.648C137.18 0.344879 143.307 6.45107 143.307 13.9565V128.389C143.307 135.894 137.18 142 129.648 142ZM64.6632 0.97461C57.4799 0.97461 51.6358 6.79822 51.6358 13.9565V128.389C51.6358 135.547 57.4799 141.37 64.6632 141.37H129.648C136.831 141.37 142.675 135.547 142.675 128.389V13.9565C142.675 6.79822 136.831 0.97461 129.648 0.97461H64.6632Z" fill="#414648"/>
<path d="M134.355 27.8833H108.235C107.127 27.8833 106.226 26.9851 106.226 25.8811C106.226 24.7771 107.127 23.8788 108.235 23.8788H134.355C135.463 23.8788 136.365 24.7771 136.365 25.8811C136.365 26.9851 135.463 27.8833 134.355 27.8833Z" fill="#CFD1D0"/>
<path d="M109.851 43.6289H84.4605C83.8204 43.6289 83.2996 43.1098 83.2996 42.472C83.2996 41.8341 83.8204 41.3153 84.4605 41.3153H109.851C110.491 41.3153 111.012 41.8341 111.012 42.472C111.012 43.1098 110.491 43.6289 109.851 43.6289V43.6289Z" fill="#BFDAA2"/>
<path d="M73.9938 4.96011H59.4388C59.401 4.96011 59.3704 4.99065 59.3704 5.02833V6.7689C59.3704 6.80657 59.401 6.83711 59.4388 6.83711H73.9938C74.0316 6.83711 74.0623 6.80657 74.0623 6.7689V5.02833C74.0623 4.99065 74.0316 4.96011 73.9938 4.96011Z" fill="#CFD1D0"/>
<path d="M122.791 6.83709C123.623 6.83709 124.298 6.1648 124.298 5.33549C124.298 4.50618 123.623 3.83389 122.791 3.83389C121.959 3.83389 121.284 4.50618 121.284 5.33549C121.284 6.1648 121.959 6.83709 122.791 6.83709Z" fill="#CFD1D0"/>
<path d="M126.935 6.83709C127.767 6.83709 128.442 6.1648 128.442 5.33549C128.442 4.50618 127.767 3.83389 126.935 3.83389C126.103 3.83389 125.428 4.50618 125.428 5.33549C125.428 6.1648 126.103 6.83709 126.935 6.83709Z" fill="#CFD1D0"/>
<path d="M131.079 6.83709C131.911 6.83709 132.586 6.1648 132.586 5.33549C132.586 4.50618 131.911 3.83389 131.079 3.83389C130.247 3.83389 129.572 4.50618 129.572 5.33549C129.572 6.1648 130.247 6.83709 131.079 6.83709Z" fill="#CFD1D0"/>
<path d="M64.5049 49.8214C64.5049 50.0292 64.6724 50.1961 64.8809 50.1961H129.43C129.639 50.1961 129.806 50.0292 129.806 49.8214C129.806 49.6136 129.639 49.4467 129.43 49.4467H64.8809C64.6724 49.4467 64.5049 49.6136 64.5049 49.8214Z" fill="#414648"/>
<path d="M115.699 102.816C115.699 103.023 115.866 103.19 116.075 103.19H180.624C180.833 103.19 181 103.023 181 102.816C181 102.608 180.833 102.441 180.624 102.441H116.075C115.866 102.441 115.699 102.608 115.699 102.816Z" fill="#414648"/>
<path d="M123.24 79.2709H84.5031C83.863 79.2709 83.3422 78.7519 83.3422 78.114C83.3422 77.4762 83.863 76.9574 84.5031 76.9574H123.24C123.88 76.9574 124.401 77.4762 124.401 78.114C124.401 78.7519 123.88 79.2709 123.24 79.2709Z" fill="#BFDAA2"/>
<path d="M72.7539 80.8049C74.3244 80.8049 75.5976 79.5362 75.5976 77.9711C75.5976 76.4061 74.3244 75.1373 72.7539 75.1373C71.1833 75.1373 69.9102 76.4061 69.9102 77.9711C69.9102 79.5362 71.1833 80.8049 72.7539 80.8049Z" fill="#BFDAA2"/>
<path d="M72.438 82.6941V82.0644C74.79 82.0644 76.7036 80.1575 76.7036 77.8137C76.7036 75.4699 74.79 73.563 72.438 73.563V72.9333C75.1385 72.9333 77.3355 75.1226 77.3355 77.8137C77.3355 80.5048 75.1385 82.6941 72.438 82.6941Z" fill="#414648"/>
<path d="M38.5677 66.5428C39.7277 65.3664 41.277 65.0093 42.0282 65.7451C42.7793 66.4809 42.4477 68.0306 41.2872 69.2073C40.8301 69.6836 40.2651 70.0439 39.6396 70.2581L34.6615 75.1805L32.3933 72.8033L37.5416 68.2031C37.7457 67.576 38.0975 67.0066 38.5677 66.5428H38.5677Z" fill="#FFC9B8"/>
<path d="M22.6473 62.4796L27.8667 74.0181L36.2012 69.5224L39.184 71.0999C39.184 71.0999 32.3707 82.4507 27.7056 81.1586C23.0406 79.8664 14.7566 68.1502 16.2492 64.5342C17.7417 60.9182 22.6473 62.4796 22.6473 62.4796Z" fill="#CFD1D0"/>
<path d="M0 141.614C0 141.759 0.116958 141.875 0.262603 141.875H161.19C161.336 141.875 161.453 141.759 161.453 141.614C161.453 141.469 161.336 141.352 161.19 141.352H0.262603C0.116958 141.352 0 141.469 0 141.614Z" fill="#414648"/>
<path d="M48.1758 85.2038C56.085 85.2038 62.4966 78.9491 62.4966 71.2336C62.4966 63.5182 56.085 57.2635 48.1758 57.2635C40.2666 57.2635 33.855 63.5182 33.855 71.2336C33.855 78.9491 40.2666 85.2038 48.1758 85.2038Z" fill="#BFDAA2"/>
<path d="M20.3587 139.379L24.1644 139.378L25.9749 124.75L20.3579 124.75L20.3587 139.379Z" fill="#FFC9B8"/>
<path d="M33.3977 139.293C33.5162 139.491 33.5787 140.133 33.5787 140.365C33.5787 141.075 33.0004 141.652 32.287 141.652H20.501C20.0144 141.652 19.6198 141.259 19.6198 140.774V140.285C19.6198 140.285 19.0368 138.815 20.2372 137.004C20.2372 137.004 21.7291 138.422 23.9584 136.201L24.6158 135.014L29.3745 138.482L32.0121 138.805C32.5892 138.876 33.1008 138.794 33.3977 139.293H33.3977Z" fill="#414648"/>
<path d="M23.2385 63.22L23.3155 58.1049L20.15 56.1385L16.708 60.3342L23.2385 63.22Z" fill="#FFC9B8"/>
<path opacity="0.1" d="M23.2386 63.22L23.4435 58.2323L20.1501 56.1385L21.2691 62.3111L23.2386 63.22Z" fill="#414648"/>
<path d="M30.9259 97.0441L25.6817 132.606H19.1021L19.977 112.306L20.4375 101.633L19.1021 96.5521C19.1021 96.5521 18.4933 95.4228 17.9804 94.0539C17.4022 92.509 16.9456 90.657 17.6235 89.7788C17.8729 89.4551 18.5214 89.2155 19.4027 89.037C19.9412 88.9274 20.5679 88.842 21.2446 88.7757C25.1355 88.3921 30.67 88.6317 30.67 88.6317L30.8107 93.2585L30.8888 95.8421L30.9259 97.0441L30.9259 97.0441Z" fill="#414648"/>
<path d="M13.6548 137.639L17.4201 138.191L21.3465 123.98L15.7893 123.167L13.6548 137.639Z" fill="#FFC9B8"/>
<path d="M26.5677 139.444C26.6559 139.658 26.6241 140.302 26.5903 140.531C26.4866 141.235 25.8303 141.721 25.1245 141.617L13.4638 139.909C12.9823 139.839 12.6494 139.392 12.7202 138.913L12.7916 138.429C12.7916 138.429 12.4292 136.89 13.8812 135.272C13.8812 135.272 15.1503 136.892 17.6801 135.017L18.5038 133.938L22.7056 138.059L25.268 138.761C25.8286 138.915 26.3467 138.908 26.5677 139.444H26.5677L26.5677 139.444Z" fill="#414648"/>
<path d="M31.0085 91.1134L30.2892 97.2863L26.3666 110.294L19.9092 131.71L13.4004 130.757L19.242 100.307L18.6636 95.0856C18.6636 95.0856 18.4752 94.5666 18.2593 93.8068C17.8307 92.3036 17.2932 89.8556 17.8845 88.6069C17.9644 88.4372 18.0647 88.2899 18.1887 88.1707C18.4213 87.9459 18.894 87.8094 19.5274 87.737C22.1749 87.4388 27.6272 88.2916 30.0533 88.7103L31.0085 91.1134V91.1134Z" fill="#414648"/>
<path d="M17.4317 59.252L23.827 62.3111C23.827 62.3111 30.6061 82.3224 30.6061 83.3421C30.6061 84.3618 32.5247 84.9991 31.3735 86.1462C30.2224 87.2934 33.5162 88.2649 31.7414 89.1812C29.9666 90.0975 18.895 95.1096 17.6639 94.6576C14.2685 93.411 17.8078 88.8304 17.8078 88.8304C17.8078 88.8304 15.2572 86.7835 15.641 85.7638C16.0247 84.7442 13.3386 65.2427 13.3386 65.2427L17.4317 59.252H17.4317Z" fill="#CFD1D0"/>
<path d="M36.9189 76.8851C38.506 76.4178 40.0345 76.8552 40.3328 77.8618C40.6311 78.8684 39.5862 80.0629 37.9984 80.5301C37.3667 80.7255 36.6972 80.7672 36.046 80.6518L29.2959 82.547L28.4709 79.3715L35.2129 77.8403C35.6969 77.3907 36.2818 77.0632 36.9189 76.8851H36.9189Z" fill="#FFC9B8"/>
<path d="M24.9798 65.6311L23.9218 78.2437L33.3985 78.3452L35.2377 81.1673C35.2377 81.1673 23.7514 87.7949 20.3024 84.4084C16.8534 81.022 15.3188 66.7714 18.3852 64.3321C21.4517 61.8929 24.9798 65.6311 24.9798 65.6311Z" fill="#CFD1D0"/>
<path d="M23.1052 59.5889C26.131 59.5889 28.5838 57.1446 28.5838 54.1295C28.5838 51.1143 26.131 48.6701 23.1052 48.6701C20.0795 48.6701 17.6267 51.1143 17.6267 54.1295C17.6267 57.1446 20.0795 59.5889 23.1052 59.5889Z" fill="#FFC9B8"/>
<path d="M20.1503 54.151C20.1503 54.151 21.0131 52.7324 21.4876 52.0016C21.9621 51.2708 21.9621 50.2002 21.9621 50.2002C21.9621 50.2002 26.3622 50.1102 27.8289 51.3568C29.2956 52.6034 30.3309 48.0038 28.9074 46.4132C28.9074 46.4132 28.3034 47.101 28.4328 47.359L28.5623 47.6169C28.5623 47.6169 27.8289 44.6937 25.7151 44.1349C25.7151 44.1349 24.5393 44.7401 24.8684 45.0823C25.1975 45.4245 22.3504 43.0172 21.4876 44.4358C21.4876 44.4358 19.3738 44.3928 19.6327 45.1666L19.5033 45.6395C19.5033 45.6395 17.6915 45.0806 17.562 46.4132C17.562 46.4132 18.2091 46.4132 18.5542 46.7571C18.8993 47.101 17.3032 48.0897 17.3032 48.0897C17.3032 48.0897 15.4483 53.1623 17.9503 55.2257C17.9503 55.2257 17.9719 52.7539 18.964 53.3557C19.9562 53.9575 20.1503 54.151 20.1503 54.151Z" fill="#414648"/>
<path d="M25.3642 57.3751L25.1675 57.8909L26.6428 57.9339L26.7412 57.461L25.3642 57.3751Z" fill="#414648"/>
<path d="M26.8394 55.5266C26.8394 55.5266 24.6265 54.9248 23.2987 56.7302L23.0036 57.0741C23.0036 57.0741 20.2005 53.9361 20.4464 52.7754L19.8562 52.8184L19.2661 55.8275C19.2661 55.8275 21.1349 59.0516 23.7413 59.1805C23.7413 59.1805 26.2493 59.7824 26.7903 58.7507C27.3312 57.719 28.2626 56.1977 28.2626 56.1977L26.8394 55.5266H26.8394ZM26.4369 58.4068H24.9707C24.6265 58.4068 23.7413 57.1601 23.7413 57.1601C24.233 56.3863 25.7084 56.3434 25.7084 56.3434H27.3105L27.4296 56.8162L26.4369 58.4068H26.4369Z" fill="#414648"/>
<path d="M133.633 139.794L131.228 139.276L132.088 129.783L135.639 130.548L133.633 139.794Z" fill="#FFC9B8"/>
<path d="M125.404 137.965C125.302 138.075 125.174 138.472 125.142 138.618C125.045 139.068 125.332 139.51 125.782 139.608L133.232 141.211C133.54 141.278 133.843 141.083 133.909 140.776L133.976 140.467C133.976 140.467 134.546 139.618 134.036 138.309C134.036 138.309 132.898 139.003 131.794 137.295L131.541 136.456L128.058 138L126.346 137.846C125.972 137.812 125.66 137.691 125.404 137.965L125.404 137.965Z" fill="#414648"/>
<path d="M129.331 139.068L127.324 137.648L131.863 129.259L134.825 131.354L129.331 139.068Z" fill="#FFC9B8"/>
<path d="M122.487 134.16C122.35 134.22 122.076 134.535 121.989 134.657C121.722 135.032 121.811 135.552 122.187 135.818L128.402 140.214C128.659 140.395 129.014 140.335 129.197 140.079L129.38 139.821C129.38 139.821 130.24 139.264 130.287 137.861C130.287 137.861 128.967 138.052 128.626 136.049L128.725 135.178L124.913 135.233L123.401 134.419C123.07 134.242 122.831 134.008 122.487 134.16L122.487 134.16V134.16Z" fill="#414648"/>
<path d="M158.241 92.1368C158.241 92.1368 161.984 97.207 154.499 102.907L139.218 98.0414L144.676 86.6983L149.509 84.0568L158.241 92.1368Z" fill="#414648"/>
<path d="M139.218 98.0414L133.293 109.54L129.55 133.469L134.228 133.78L138.906 111.094L147.17 98.8183L141.401 96.1768" fill="#414648"/>
<path d="M154.499 99.2955V102.907L143.896 114.512C143.896 114.512 143.896 123.214 139.842 127.254L135.164 134.401L131.11 132.226L137.035 111.404L147.638 97.7306L154.499 99.2955Z" fill="#414648"/>
<path d="M146.964 63.4882L148.572 71.0769L154.702 69.584C154.702 69.584 151.672 63.3035 152.275 60.8154L146.964 63.4882Z" fill="#FFC9B8"/>
<path opacity="0.1" d="M146.964 63.4882L148.572 71.0769L154.702 69.584C154.702 69.584 151.672 63.3035 152.275 60.8154L146.964 63.4882Z" fill="#414648"/>
<path d="M152.784 64.6336L148.106 66.809C148.106 66.809 145.7 68.2748 145.655 69.2511C145.611 70.2275 145.923 74.889 145.923 74.889C145.923 74.889 144.052 76.7537 145.299 80.4829L144.676 86.6983L158.709 94.1568L157.462 81.1044L158.085 68.9844L152.784 64.6336Z" fill="#CFD1D0"/>
<path d="M156.983 99.9998C156.435 101.252 155.343 101.985 154.543 101.638C153.743 101.291 153.539 99.9939 154.087 98.7412C154.299 98.2378 154.629 97.7924 155.05 97.4421L157.437 92.1654L159.898 93.3349L157.283 98.4126C157.312 98.958 157.209 99.5022 156.983 99.9998V99.9998Z" fill="#FFC9B8"/>
<path d="M154.499 69.7613C154.499 69.7613 157.929 67.586 159.177 70.0721C160.424 72.5583 163.231 85.2998 163.231 85.2998L159.177 97.4198L155.435 95.866L158.709 82.8222L154.499 69.7613Z" fill="#CFD1D0"/>
<path d="M136.917 98.0434C135.945 99.0065 134.659 99.2874 134.044 98.6708C133.429 98.0542 133.718 96.7738 134.691 95.8104C135.074 95.4203 135.545 95.1273 136.066 94.956L140.236 90.927L142.092 92.9177L137.783 96.6782C137.608 97.1956 137.311 97.6638 136.917 98.0434Z" fill="#FFC9B8"/>
<path d="M145.787 69.02C145.787 69.02 151.768 68.7762 152.009 71.5455C152.249 74.3148 148.161 86.6713 148.161 86.6713L139.911 96.4505L137.006 93.6321L144.873 82.7078L145.787 69.02Z" fill="#CFD1D0"/>
<path d="M163.056 101.838L124.813 95.6916C124.181 95.5901 123.75 94.995 123.852 94.3653C123.954 93.7356 124.551 93.306 125.183 93.4076L163.426 99.5543C164.058 99.6559 164.489 100.251 164.387 100.88C164.285 101.51 163.688 101.94 163.056 101.838V101.838Z" fill="#BFDAA2"/>
<path d="M113.422 95.3779C114.992 95.3779 116.265 94.1091 116.265 92.5441C116.265 90.979 114.992 89.7103 113.422 89.7103C111.851 89.7103 110.578 90.979 110.578 92.5441C110.578 94.1091 111.851 95.3779 113.422 95.3779Z" fill="#BFDAA2"/>
<path d="M112.355 97.1567L112.456 96.535C114.778 96.9082 116.971 95.3294 117.346 93.0154C117.72 90.7015 116.136 88.5153 113.814 88.1421L113.915 87.5204C116.581 87.9489 118.4 90.4589 117.97 93.1156C117.54 95.7724 115.021 97.5852 112.355 97.1567Z" fill="#414648"/>
<path d="M147.578 65.1012C150.179 65.1012 152.287 62.9998 152.287 60.4077C152.287 57.8156 150.179 55.7143 147.578 55.7143C144.976 55.7143 142.868 57.8156 142.868 60.4077C142.868 62.9998 144.976 65.1012 147.578 65.1012Z" fill="#FFC9B8"/>
<path d="M150.361 60.4077C150.361 60.4077 147.421 57.7481 145.537 58.6868C143.653 59.6255 142.711 60.2513 142.711 60.2513C142.711 60.2513 141.141 57.9046 143.496 55.8707C143.496 55.8707 138.702 53.7839 142.198 50.525C145.694 47.2661 148.833 48.5177 148.833 48.5177C148.833 48.5177 153.072 50.3951 150.089 54.1498C150.089 54.1498 154.435 56.8962 152.184 61.3898C152.184 61.3898 151.973 58.5303 151.345 59.3126C150.717 60.0948 150.361 60.4077 150.361 60.4077V60.4077Z" fill="#414648"/>
<path d="M53.096 76.4935C51.2955 72.0821 49.4949 67.6708 47.6944 63.2595C47.4457 62.6502 46.6667 62.6286 46.4241 63.2595C44.645 67.8844 43.4825 72.7103 42.9236 77.6308C42.8284 78.4689 44.1466 78.4622 44.241 77.6308C44.4597 75.7053 44.7844 73.7942 45.2013 71.9035C46.6849 71.9811 48.1807 71.8152 49.6125 71.4202C50.3502 73.2276 51.0879 75.035 51.8256 76.8424C52.1408 77.6148 53.4158 77.277 53.096 76.4935H53.096ZM45.5 70.6057C45.9437 68.7957 46.4757 67.0072 47.093 65.2474L49.1121 70.1943C47.9295 70.5036 46.72 70.6412 45.5 70.6057Z" fill="white"/>
<path d="M55.6353 77.5968C56.3665 77.5968 56.9592 77.0061 56.9592 76.2774C56.9592 75.5488 56.3665 74.9581 55.6353 74.9581C54.904 74.9581 54.3113 75.5488 54.3113 76.2774C54.3113 77.0061 54.904 77.5968 55.6353 77.5968Z" fill="white"/>
<path d="M41.7334 65.9425C42.4646 65.9425 43.0574 65.3518 43.0574 64.6231C43.0574 63.8944 42.4646 63.3037 41.7334 63.3037C41.0022 63.3037 40.4094 63.8944 40.4094 64.6231C40.4094 65.3518 41.0022 65.9425 41.7334 65.9425Z" fill="white"/>
</g>
<defs>
<clipPath id="clip0_0_328">
<rect width="181" height="142" fill="white"/>
</clipPath>
</defs>
</svg>
