<svg width="185" height="119" viewBox="0 0 185 119" fill="none" xmlns="http://www.w3.org/2000/svg">
<g clip-path="url(#clip0_0_396)">
<path d="M180.256 108.195C179.415 108.493 178.512 108.568 177.635 108.412C176.757 108.256 175.934 107.875 175.245 107.306C173.49 105.822 172.94 103.377 172.492 101.113L171.168 94.4168L173.94 96.3401C175.934 97.7233 177.973 99.1509 179.353 101.154C180.734 103.158 181.336 105.893 180.227 108.061" fill="#CFD1D0"/>
<path d="M179.828 116.769C180.176 114.207 180.535 111.613 180.29 109.024C180.073 106.725 179.377 104.479 177.959 102.638C177.207 101.662 176.291 100.826 175.254 100.168C174.983 99.9957 174.735 100.428 175.004 100.599C176.799 101.742 178.187 103.43 178.969 105.419C179.832 107.631 179.971 110.043 179.822 112.393C179.732 113.814 179.541 115.226 179.349 116.636C179.334 116.7 179.344 116.767 179.376 116.824C179.408 116.881 179.46 116.923 179.523 116.943C179.586 116.96 179.653 116.951 179.711 116.919C179.768 116.886 179.81 116.832 179.827 116.769L179.828 116.769Z" fill="#CFD1D0"/>
<path d="M177.316 112.659C176.956 113.211 176.46 113.66 175.877 113.964C175.294 114.267 174.644 114.414 173.988 114.39C172.303 114.309 170.898 113.125 169.634 112L165.895 108.673L168.37 108.554C170.15 108.468 171.975 108.387 173.671 108.941C175.366 109.495 176.929 110.825 177.239 112.593" fill="#CFD1D0"/>
<path d="M180.814 118.241C179.134 115.246 177.186 111.918 173.704 110.854C172.736 110.559 171.721 110.454 170.714 110.543C170.396 110.57 170.475 111.064 170.792 111.036C172.481 110.895 174.166 111.344 175.565 112.308C176.91 113.231 177.958 114.514 178.845 115.875C179.388 116.708 179.875 117.577 180.361 118.445C180.517 118.722 180.971 118.522 180.814 118.241Z" fill="#CFD1D0"/>
<path d="M114.029 3.14853H0.048584V57.6441H114.029V3.14853Z" fill="#CFD1D0"/>
<path d="M110.77 7.82162H3.30786V53.289H110.77V7.82162Z" fill="white"/>
<path d="M113.98 0H0V4.87892H113.98V0Z" fill="#BFDAA2"/>
<path d="M3.59842 3.77321C4.09408 3.77321 4.4959 3.36835 4.4959 2.86892C4.4959 2.36949 4.09408 1.96463 3.59842 1.96463C3.10275 1.96463 2.70093 2.36949 2.70093 2.86892C2.70093 3.36835 3.10275 3.77321 3.59842 3.77321Z" fill="white"/>
<path d="M7.00491 3.77321C7.50058 3.77321 7.9024 3.36835 7.9024 2.86892C7.9024 2.36949 7.50058 1.96463 7.00491 1.96463C6.50924 1.96463 6.10742 2.36949 6.10742 2.86892C6.10742 3.36835 6.50924 3.77321 7.00491 3.77321Z" fill="white"/>
<path d="M10.4116 3.77321C10.9073 3.77321 11.3091 3.36835 11.3091 2.86892C11.3091 2.36949 10.9073 1.96463 10.4116 1.96463C9.91598 1.96463 9.51416 2.36949 9.51416 2.86892C9.51416 3.36835 9.91598 3.77321 10.4116 3.77321Z" fill="white"/>
<path d="M105.495 44.0804H52.2122C52.1679 44.0804 52.1255 44.0627 52.0943 44.0312C52.063 43.9997 52.0454 43.957 52.0454 43.9124V18.1805C52.0454 18.136 52.063 18.0932 52.0943 18.0617C52.1255 18.0302 52.1679 18.0125 52.2122 18.0125C52.2564 18.0125 52.2988 18.0302 52.3301 18.0617C52.3613 18.0932 52.3789 18.136 52.3789 18.1805V43.7444H105.495C105.539 43.7444 105.581 43.7621 105.613 43.7936C105.644 43.8251 105.661 43.8678 105.661 43.9124C105.661 43.957 105.644 43.9997 105.613 44.0312C105.581 44.0627 105.539 44.0804 105.495 44.0804V44.0804Z" fill="#414648"/>
<path d="M63.5964 42.2323H58.7501C58.6189 42.2321 58.4931 42.1795 58.4003 42.086C58.3075 41.9925 58.2553 41.8658 58.2551 41.7336V35.0023C58.2553 34.8701 58.3075 34.7434 58.4003 34.6499C58.4931 34.5564 58.6189 34.5038 58.7501 34.5036H63.5964C63.7276 34.5038 63.8534 34.5564 63.9462 34.6499C64.039 34.7434 64.0912 34.8701 64.0914 35.0023V41.7336C64.0912 41.8658 64.039 41.9925 63.9462 42.086C63.8534 42.1795 63.7276 42.2321 63.5964 42.2323Z" fill="#BFDAA2"/>
<path d="M72.434 42.2323H67.5878C67.4565 42.2321 67.3307 42.1795 67.2379 42.086C67.1451 41.9925 67.0929 41.8658 67.0928 41.7336V28.6178C67.0929 28.4856 67.1451 28.3588 67.2379 28.2653C67.3307 28.1719 67.4565 28.1193 67.5878 28.1191H72.434C72.5652 28.1193 72.6911 28.1719 72.7839 28.2653C72.8767 28.3588 72.9289 28.4856 72.929 28.6178V41.7336C72.9289 41.8658 72.8767 41.9925 72.7839 42.086C72.6911 42.1795 72.5652 42.2321 72.434 42.2323Z" fill="#BFDAA2"/>
<path d="M81.2719 42.2323H76.4257C76.2944 42.2321 76.1686 42.1795 76.0758 42.086C75.983 41.9925 75.9308 41.8658 75.9307 41.7336V35.0023C75.9308 34.8701 75.983 34.7434 76.0758 34.6499C76.1686 34.5564 76.2944 34.5038 76.4257 34.5036H81.2719C81.4031 34.5038 81.5289 34.5564 81.6217 34.6499C81.7145 34.7434 81.7667 34.8701 81.7669 35.0023V41.7336C81.7667 41.8658 81.7145 41.9925 81.6217 42.086C81.5289 42.1795 81.4031 42.2321 81.2719 42.2323Z" fill="#BFDAA2"/>
<path d="M90.1096 42.2323H85.2633C85.1351 42.235 85.011 42.1865 84.9182 42.0972C84.8254 42.008 84.7715 41.8853 84.7683 41.7561V26.075C84.7715 25.9458 84.8254 25.8232 84.9182 25.7339C85.011 25.6447 85.1351 25.5961 85.2633 25.5989H90.1096C90.2378 25.5961 90.3619 25.6447 90.4547 25.7339C90.5475 25.8232 90.6014 25.9458 90.6046 26.075V41.7561C90.6014 41.8853 90.5475 42.008 90.4547 42.0972C90.3619 42.1865 90.2378 42.235 90.1096 42.2323Z" fill="#BFDAA2"/>
<path d="M98.9474 42.2323H94.1012C93.97 42.2321 93.8441 42.1795 93.7513 42.086C93.6586 41.9925 93.6064 41.8658 93.6062 41.7335V21.5612C93.6064 21.429 93.6586 21.3023 93.7513 21.2088C93.8441 21.1153 93.97 21.0627 94.1012 21.0625H98.9474C99.0787 21.0627 99.2045 21.1153 99.2973 21.2088C99.3901 21.3023 99.4423 21.429 99.4424 21.5612V41.7335C99.4423 41.8658 99.3901 41.9925 99.2973 42.086C99.2045 42.1795 99.0787 42.2321 98.9474 42.2323Z" fill="#BFDAA2"/>
<path d="M61.1733 32.4875C61.7259 32.4875 62.1739 32.0361 62.1739 31.4794C62.1739 30.9226 61.7259 30.4713 61.1733 30.4713C60.6208 30.4713 60.1729 30.9226 60.1729 31.4794C60.1729 32.0361 60.6208 32.4875 61.1733 32.4875Z" fill="#414648"/>
<path d="M70.011 25.9349C70.5636 25.9349 71.0115 25.4836 71.0115 24.9268C71.0115 24.3701 70.5636 23.9188 70.011 23.9188C69.4584 23.9188 69.0105 24.3701 69.0105 24.9268C69.0105 25.4836 69.4584 25.9349 70.011 25.9349Z" fill="#414648"/>
<path d="M78.8486 32.4875C79.4012 32.4875 79.8491 32.0361 79.8491 31.4794C79.8491 30.9226 79.4012 30.4713 78.8486 30.4713C78.2961 30.4713 77.8481 30.9226 77.8481 31.4794C77.8481 32.0361 78.2961 32.4875 78.8486 32.4875Z" fill="#414648"/>
<path d="M87.6865 22.7427C88.2391 22.7427 88.687 22.2913 88.687 21.7346C88.687 21.1778 88.2391 20.7265 87.6865 20.7265C87.134 20.7265 86.686 21.1778 86.686 21.7346C86.686 22.2913 87.134 22.7427 87.6865 22.7427Z" fill="#414648"/>
<path d="M96.5242 19.0464C97.0767 19.0464 97.5247 18.595 97.5247 18.0383C97.5247 17.4815 97.0767 17.0302 96.5242 17.0302C95.9716 17.0302 95.5237 17.4815 95.5237 18.0383C95.5237 18.595 95.9716 19.0464 96.5242 19.0464Z" fill="#414648"/>
<path d="M78.8698 31.7052L70.011 25.0196L61.2732 31.6139L61.0732 31.3449L70.011 24.5996L78.8276 31.2536L87.589 21.5932L87.6242 21.5787L96.4619 17.9908L96.5866 18.3026L87.784 21.876L78.8698 31.7052Z" fill="#414648"/>
<path d="M30.59 13.379H15.4553V14.5251H30.59V13.379Z" fill="#CFD1D0"/>
<path d="M38.8265 16.7438H15.4553V17.8899H38.8265V16.7438Z" fill="#BFDAA2"/>
<path d="M34.7453 19.9483H15.6982V21.0945H34.7453V19.9483Z" fill="#CFD1D0"/>
<path d="M26.5747 23.4644H15.4553V24.6106H26.5747V23.4644Z" fill="#CFD1D0"/>
<path d="M32.2373 26.8989H15.4553V28.045H32.2373V26.8989Z" fill="#BFDAA2"/>
<path d="M10.4104 13.0184H8.55713V14.8857H10.4104V13.0184Z" fill="#CFD1D0"/>
<path d="M10.4104 16.3832H8.55713V18.2505H10.4104V16.3832Z" fill="#BFDAA2"/>
<path d="M10.4104 19.5877H8.55713V21.455H10.4104V19.5877Z" fill="#CFD1D0"/>
<path d="M10.4104 23.1038H8.55713V24.9711H10.4104V23.1038Z" fill="#CFD1D0"/>
<path d="M10.4104 26.5383H8.55713V28.4056H10.4104V26.5383Z" fill="#BFDAA2"/>
<path d="M30.59 30.3548H15.4553V31.501H30.59V30.3548Z" fill="#CFD1D0"/>
<path d="M38.8265 33.7196H15.4553V34.8658H38.8265V33.7196Z" fill="#BFDAA2"/>
<path d="M34.7453 36.9241H15.6982V38.0703H34.7453V36.9241Z" fill="#CFD1D0"/>
<path d="M26.5747 40.4402H15.4553V41.5864H26.5747V40.4402Z" fill="#CFD1D0"/>
<path d="M32.2373 43.8747H15.4553V45.0209H32.2373V43.8747Z" fill="#CFD1D0"/>
<path d="M10.4104 29.9943H8.55713V31.8615H10.4104V29.9943Z" fill="#CFD1D0"/>
<path d="M10.4104 33.3591H8.55713V35.2263H10.4104V33.3591Z" fill="#BFDAA2"/>
<path d="M10.4104 36.5636H8.55713V38.4309H10.4104V36.5636Z" fill="#CFD1D0"/>
<path d="M10.4104 40.0797H8.55713V41.947H10.4104V40.0797Z" fill="#CFD1D0"/>
<path d="M10.4104 43.5142H8.55713V45.3814H10.4104V43.5142Z" fill="#CFD1D0"/>
<path d="M138.334 35.1496C138.972 33.1026 140.421 31.2251 142.426 30.533C144.431 29.841 147.929 30.4879 148.874 32.4088C150.237 35.1772 149.625 38.5676 148.902 41.5734C148.526 41.5533 148.145 41.5375 147.764 41.5232L147.224 39.7115V41.5053C144.248 41.4126 141.149 41.4707 138.049 41.5307C137.771 39.4026 137.697 37.1967 138.334 35.1496Z" fill="#414648"/>
<path d="M165.685 113.153L163.181 114.21L157.942 104.982L161.637 103.422L165.685 113.153Z" fill="#FFC9B8"/>
<path d="M167.341 115.329L159.267 118.738L159.224 118.635C158.875 117.795 158.871 116.85 159.213 116.008C159.556 115.165 160.216 114.494 161.05 114.142L161.05 114.142L165.981 112.06L167.341 115.329Z" fill="#414648"/>
<path d="M128.966 69.5628C128.81 69.3354 128.705 69.0762 128.658 68.8034C128.612 68.5307 128.626 68.2511 128.699 67.9843C128.771 67.7175 128.901 67.4699 129.079 67.2591C129.257 67.0483 129.478 66.8794 129.728 66.7642L135.11 50.4019L138.714 52.3387L132.291 67.8134C132.455 68.2488 132.455 68.7298 132.291 69.1653C132.126 69.6007 131.809 69.9603 131.399 70.176C130.99 70.3916 130.516 70.4483 130.067 70.3353C129.619 70.2223 129.227 69.9474 128.966 69.5628V69.5628Z" fill="#FFC9B8"/>
<path d="M135.601 116.086L132.886 116.086L131.595 105.535L135.602 105.535L135.601 116.086Z" fill="#FFC9B8"/>
<path d="M136.294 118.738L127.54 118.738V118.626C127.54 117.716 127.899 116.842 128.538 116.199C129.177 115.555 130.043 115.193 130.947 115.193H130.947L136.294 115.193L136.294 118.738Z" fill="#414648"/>
<path d="M146.486 56.0745L147.101 57.686L146.978 59.2975L135.167 57.8101L135.537 56.4465L136.89 54.835L146.486 56.0745Z" fill="#FFC9B8"/>
<path d="M142.68 41.5726C145.055 41.5726 146.98 39.6329 146.98 37.2401C146.98 34.8473 145.055 32.9076 142.68 32.9076C140.305 32.9076 138.38 34.8473 138.38 37.2401C138.38 39.6329 140.305 41.5726 142.68 41.5726Z" fill="#FFC9B8"/>
<path d="M147.167 57.8016L135.455 56.5463L134.948 54.8743C134.79 54.6565 133.303 52.5337 133.633 50.4117C133.715 49.9118 133.898 49.4341 134.17 49.0084C134.443 48.5827 134.799 48.218 135.218 47.9369L138.065 44.5775L140.57 43.075L145.509 42.5775L145.526 42.5813L149.959 43.5922L149.906 51.7809L147.167 57.8016Z" fill="#A0A3A3"/>
<path d="M135.75 58.6694L132.469 58.2768L132.477 58.173C132.508 57.8079 133.225 49.21 133.96 47.2352C134.711 45.218 137.963 44.5896 138.101 44.5639L138.141 44.5565L138.863 44.9934L136.869 51.2729L135.75 58.6694Z" fill="#A0A3A3"/>
<path d="M147.102 58.6778V61.4313C147.102 61.4313 150.3 65.6197 148.578 68.8427C148.578 68.8427 152.269 75.7846 152.515 78.2638L155.96 89.6684C155.96 89.6684 164.572 98.3457 163.834 104.544L164.326 106.527L158.666 109.006L157.436 107.271L147.84 90.6601L139.72 75.5367L138.243 93.3872C138.243 93.3872 139.228 107.271 136.521 108.759L136.275 110.99H130.531V108.869C130.531 108.869 128.401 101.321 129.631 95.6186L129.139 71.5699C129.139 71.5699 131.354 61.405 134.06 59.6695L135.045 57.1902L147.102 58.6778Z" fill="#414648"/>
<path d="M143.011 64.3709C143.11 64.3933 143.208 64.4236 143.302 64.4615L150.809 59.2553L150.637 57.0313L153.934 56.3314L154.618 60.2387C154.673 60.5544 154.625 60.8796 154.482 61.1655C154.338 61.4514 154.106 61.6826 153.821 61.8244L144.522 66.4449C144.487 66.838 144.334 67.2109 144.083 67.5141C143.832 67.8173 143.496 68.0364 143.118 68.1423C142.741 68.2481 142.341 68.2357 141.97 68.1067C141.6 67.9776 141.278 67.7381 141.046 67.4199C140.814 67.1018 140.684 66.72 140.673 66.3255C140.662 65.931 140.77 65.5424 140.983 65.2114C141.197 64.8804 141.505 64.6227 141.867 64.4726C142.229 64.3224 142.628 64.2869 143.011 64.3709L143.011 64.3709Z" fill="#FFC9B8"/>
<path d="M150.738 59.5427L149.21 49.2726L147.956 43.9673L149.83 43.5727C149.881 43.5536 151.407 43.034 152.638 43.8707C153.525 44.473 154.016 45.616 154.098 47.2678L154.595 59.0195L150.738 59.5427Z" fill="#A0A3A3"/>
<path d="M139.725 31.5984C140.551 31.0909 141.498 30.8164 142.465 30.8035C143.433 30.7907 144.386 31.04 145.225 31.5254C146.064 32.0107 146.759 32.7144 147.236 33.5627C147.713 34.411 147.955 35.3728 147.936 36.3476C145.533 36.459 143.008 36.488 140.448 36.493L139.843 35.001L139.486 36.4941C138.706 36.494 137.924 36.493 137.141 36.491C137.109 35.519 137.331 34.5555 137.785 33.6969C138.238 32.8384 138.907 32.1147 139.725 31.5984Z" fill="#414648"/>
<path d="M184.786 119H103.145C103.089 119 103.034 118.977 102.994 118.937C102.954 118.896 102.931 118.841 102.931 118.784C102.931 118.727 102.954 118.672 102.994 118.631C103.034 118.591 103.089 118.568 103.145 118.568H184.786C184.843 118.568 184.897 118.591 184.937 118.631C184.978 118.672 185 118.727 185 118.784C185 118.841 184.978 118.896 184.937 118.937C184.897 118.977 184.843 119 184.786 119Z" fill="#CBCBCB"/>
</g>
<defs>
<clipPath id="clip0_0_396">
<rect width="185" height="119" fill="white"/>
</clipPath>
</defs>
</svg>
