<svg width="33" height="31" viewBox="0 0 33 31" fill="none" xmlns="http://www.w3.org/2000/svg">
<path d="M22.6099 30L9.48142 30" stroke="black" stroke-width="2" stroke-linecap="round"/>
<path d="M15.3164 30L15.3164 20" stroke="black" stroke-width="2" stroke-linecap="round"/>
<path d="M1 1.4C1 1.17909 1.17908 1 1.4 1H16.4106H31.4211C31.642 1 31.8211 1.17909 31.8211 1.4V10.3333V19.2667C31.8211 19.4876 31.642 19.6667 31.4211 19.6667H16.4106H1.4C1.17909 19.6667 1 19.4876 1 19.2667V10.3333V1.4Z" stroke="black" stroke-width="2"/>
<path d="M7.67447 11.6792C7.67447 11.6792 11.2923 13.4317 15.5238 12.0778C21.724 10.094 23.8532 6.774 23.8532 6.774M23.8532 6.774L17.7041 6.23177M23.8532 6.774L24.3906 12.7421" stroke="#81BD52" stroke-width="2" stroke-linecap="round"/>
</svg>
