<svg width="30" height="30" viewBox="0 0 30 30" fill="none" xmlns="http://www.w3.org/2000/svg">
<circle cx="15" cy="15" r="15" fill="#81BD52"/>
<g clip-path="url(#clip0_21_909)">
<path d="M20.5058 10.1641C20.5864 10.0805 20.6827 10.0141 20.7889 9.96881C20.8951 9.92349 21.0092 9.90015 21.1244 9.90015C21.2397 9.90015 21.3537 9.92349 21.46 9.96881C21.5662 10.0141 21.6625 10.0805 21.7431 10.1641C22.0811 10.5109 22.0858 11.0713 21.7549 11.4241L14.767 19.8121C14.6877 19.9005 14.5914 19.9716 14.4841 20.021C14.3767 20.0704 14.2606 20.097 14.1428 20.0993C14.025 20.1015 13.908 20.0793 13.7989 20.0341C13.6898 19.9888 13.591 19.9214 13.5084 19.8361L9.25634 15.4609C9.09235 15.2911 9.00049 15.0627 9.00049 14.8249C9.00049 14.587 9.09235 14.3587 9.25634 14.1889C9.33699 14.1053 9.43325 14.0389 9.53948 13.9936C9.64571 13.9483 9.75978 13.9249 9.875 13.9249C9.99023 13.9249 10.1043 13.9483 10.2105 13.9936C10.3168 14.0389 10.413 14.1053 10.4937 14.1889L14.1005 17.9005L20.4821 10.1905C20.4895 10.1812 20.4974 10.1724 20.5058 10.1641Z" fill="white"/>
</g>
<defs>
<clipPath id="clip0_21_909">
<rect width="13" height="12" fill="white" transform="translate(9 9)"/>
</clipPath>
</defs>
</svg>
