<svg width="148" height="110" viewBox="0 0 148 110" fill="none" xmlns="http://www.w3.org/2000/svg">
<path d="M10.0151 59.2571L71.2173 110L27.8203 93.9761L10.0151 59.2571Z" fill="#3F7F1C"/>
<path d="M13.7993 55.4729L41.6179 64.8203L57.42 92.4169L13.7993 55.4729Z" fill="#81BD52"/>
<path d="M0 22.0896C0.624643 25.0907 2.18273 27.8173 4.45122 29.879C8.01209 32.7722 16.4136 32.5497 16.4136 32.5497L7.34442 25.2053L0 22.0896Z" fill="#3F7F1C"/>
<path d="M12.6855 20.7537L20.2519 32.1041L24.4817 33.2175L25.0934 27.7083L12.6855 20.7537Z" fill="#3F7F1C"/>
<path d="M28.4882 30.3232L28.0425 40.5621L43.6209 61.2599L42.9533 51.2448L28.4882 30.3232Z" fill="#3F7F1C"/>
<path d="M54.75 34.7748L73.8888 100.652V2.05884L54.75 34.7748Z" fill="#3F7F1C"/>
<path d="M65.6542 2.28275L56.1408 0.501709L52.3008 12.9638L52.9684 16.3021L65.6542 2.28275Z" fill="#3F7F1C"/>
<path d="M53.9704 0L48.9629 2.83848L50.7999 10.0151L53.9704 0Z" fill="#3F7F1C"/>
<path d="M24.2587 12.5195L21.144 18.0829V22.9786L26.2617 18.5286L24.2587 12.5195Z" fill="#81BD52"/>
<path d="M45.2607 50.7917L46.07 61.7035L55.4174 47.2384L53.0753 37.7546L45.2607 50.7917Z" fill="#3F7F1C"/>
<path d="M137.985 59.2571L76.7827 110L120.181 93.9761L137.985 59.2571Z" fill="#81BD52"/>
<path d="M134.202 55.4729L106.382 64.8203L90.5796 92.4169L134.202 55.4729Z" fill="#3F7F1C"/>
<path d="M148 22.0896C147.376 25.0907 145.818 27.8173 143.549 29.879C139.988 32.7722 131.587 32.5497 131.587 32.5497L140.656 25.2053L148 22.0896Z" fill="#81BD52"/>
<path d="M135.314 20.7537L127.747 32.1041L123.519 33.2175L122.906 27.7083L135.314 20.7537Z" fill="#3F7F1C"/>
<path d="M119.513 30.3232L119.957 40.5621L104.379 61.2599L105.047 51.2448L119.513 30.3232Z" fill="#3F7F1C"/>
<path d="M93.2501 34.7748L74.1113 100.652V2.05884L93.2501 34.7748Z" fill="#81BD52"/>
<path d="M82.3462 2.28275L91.8597 0.501709L95.6996 12.9638L95.032 16.3021L82.3462 2.28275Z" fill="#81BD52"/>
<path d="M94.0298 0L99.0373 2.83848L97.2003 10.0151L94.0298 0Z" fill="#81BD52"/>
<path d="M123.742 12.5195L126.859 18.0829V22.9786L121.739 18.5286L123.742 12.5195Z" fill="#3F7F1C"/>
<path d="M102.739 50.7917L101.93 61.7035L92.5825 47.2384L94.9246 37.7546L102.739 50.7917Z" fill="#81BD52"/>
</svg>
