<svg width="26" height="25" viewBox="0 0 26 25" fill="none" xmlns="http://www.w3.org/2000/svg">
<g clip-path="url(#clip0_69_733)">
<path d="M25.1387 12.5759C25.1387 18.8145 20.5616 23.9863 14.5866 24.9249V16.2134H17.4918L18.0449 12.6093H14.5866V10.2707C14.5866 9.28426 15.0699 8.32384 16.6178 8.32384H18.1897V5.2551C18.1897 5.2551 16.7626 5.01134 15.3991 5.01134C12.5512 5.01134 10.6908 6.73739 10.6908 9.86135V12.6082H7.52513V16.2124H10.6908V24.9238C4.7168 23.9843 0.138672 18.8134 0.138672 12.5759C0.138672 5.6728 5.73555 0.0759277 12.6387 0.0759277C19.5418 0.0759277 25.1387 5.67176 25.1387 12.5759Z" fill="white" fill-opacity="0.5"/>
</g>
<defs>
<clipPath id="clip0_69_733">
<rect width="25" height="25" fill="white" transform="translate(0.138672)"/>
</clipPath>
</defs>
</svg>
