<svg width="22" height="21" viewBox="0 0 22 21" fill="none" xmlns="http://www.w3.org/2000/svg">
<path d="M18.0114 17.6941H14.8791V12.8754C14.8791 11.7262 14.8583 10.2475 13.25 10.2475C11.6187 10.2475 11.3687 11.499 11.3687 12.7925V17.6941H8.23747V7.78442H11.2448V9.13825H11.2864C11.9 8.10881 13.0395 7.4938 14.2531 7.5378C17.4281 7.5378 18.0124 9.58953 18.0124 12.2573L18.0114 17.6941ZM4.70311 6.42957C3.69895 6.42957 2.88541 5.63036 2.88541 4.6439C2.88541 3.65743 3.69895 2.85823 4.70311 2.85823C5.70727 2.85823 6.52081 3.65743 6.52081 4.6439C6.52081 5.63036 5.70727 6.42957 4.70311 6.42957ZM6.26873 17.6941H3.13332V7.78442H6.26873V17.6941ZM19.5729 0.00116308H1.55937C0.708331 -0.00804667 0.0104166 0.662218 0 1.49826V19.2669C0.0104166 20.104 0.708331 20.7743 1.55937 20.765H19.5729C20.426 20.7753 21.127 20.105 21.1385 19.2669V1.49723C21.126 0.659148 20.4249 -0.0111166 19.5729 0.000139728" fill="white" fill-opacity="0.5"/>
</svg>
