<svg width="20" height="19" viewBox="0 0 20 19" fill="none" xmlns="http://www.w3.org/2000/svg">
<path d="M19.9617 3.7981L12.9467 10.8131C12.1645 11.5933 11.1048 12.0315 10 12.0315C8.89521 12.0315 7.83552 11.5933 7.05333 10.8131L0.0383333 3.7981C0.0266667 3.92976 0 4.04893 0 4.17976V12.711C0.00132321 13.8157 0.440735 14.8747 1.22185 15.6558C2.00296 16.4369 3.062 16.8764 4.16667 16.8777H15.8333C16.938 16.8764 17.997 16.4369 18.7782 15.6558C19.5593 14.8747 19.9987 13.8157 20 12.711V4.17976C20 4.04893 19.9733 3.92976 19.9617 3.7981Z" fill="#81BD52"/>
<path d="M11.7683 9.63461L19.38 2.02211C19.0113 1.41071 18.4912 0.904637 17.87 0.552715C17.2487 0.200792 16.5473 0.01489 15.8333 0.0129395H4.16666C3.45268 0.01489 2.75125 0.200792 2.13002 0.552715C1.50879 0.904637 0.988727 1.41071 0.619995 2.02211L8.23166 9.63461C8.7013 10.1024 9.33715 10.365 10 10.365C10.6628 10.365 11.2987 10.1024 11.7683 9.63461Z" fill="#81BD52"/>
</svg>
