<svg width="25" height="25" viewBox="0 0 25 25" fill="none" xmlns="http://www.w3.org/2000/svg">
<g clip-path="url(#clip0_8_371)">
<path d="M15.6248 25H9.37484C6.50296 25 4.1665 22.6635 4.1665 19.7917V5.20833C4.1665 2.33646 6.50296 0 9.37484 0H15.6248C18.4967 0 20.8332 2.33646 20.8332 5.20833V19.7917C20.8332 22.6635 18.4967 25 15.6248 25ZM9.37484 2.08333C7.65192 2.08333 6.24984 3.48542 6.24984 5.20833V19.7917C6.24984 21.5146 7.65192 22.9167 9.37484 22.9167H15.6248C17.3478 22.9167 18.7498 21.5146 18.7498 19.7917V5.20833C18.7498 3.48542 17.3478 2.08333 15.6248 2.08333H9.37484ZM14.5832 19.7917C14.5832 19.2167 14.1165 18.75 13.5415 18.75H11.4582C10.8832 18.75 10.4165 19.2167 10.4165 19.7917C10.4165 20.3667 10.8832 20.8333 11.4582 20.8333H13.5415C14.1165 20.8333 14.5832 20.3667 14.5832 19.7917Z" fill="#81BD52"/>
<rect x="4" width="17" height="25" rx="5" fill="#81BD52"/>
<rect x="10" y="21" width="5" height="1" rx="0.5" fill="white"/>
</g>
<defs>
<clipPath id="clip0_8_371">
<rect width="25" height="25" fill="white"/>
</clipPath>
</defs>
</svg>
