<svg width="21" height="20" viewBox="0 0 21 20" fill="none" xmlns="http://www.w3.org/2000/svg">
<path d="M17.2114 12.4037C16.7293 11.945 16.0891 11.6897 15.4237 11.6906C14.7583 11.6915 14.1188 11.9487 13.6381 12.4087L12.0468 13.7495C10.7479 13.2121 9.56801 12.4233 8.57483 11.4285C7.58165 10.4338 6.79476 9.25264 6.25932 7.95293L7.59514 6.36665C8.05394 5.88491 8.31027 5.24541 8.3112 4.58015C8.31213 3.9149 8.0576 3.27468 7.60015 2.79166C7.60015 2.79166 6.05394 0.785428 6.02806 0.759546C5.55172 0.280111 4.90587 0.00733171 4.23007 0.000145645C3.55427 -0.00704042 2.90277 0.251944 2.41634 0.721142L1.45622 1.55603C-4.98827 8.41045 11.6418 25.0481 18.4879 18.5042L19.2493 17.6276C19.7329 17.1425 20.0044 16.4854 20.0044 15.8004C20.0044 15.1155 19.7329 14.4584 19.2493 13.9733C19.2218 13.9508 17.2114 12.4045 17.2114 12.4045V12.4037Z" fill="#81BD52"/>
</svg>
