<svg width="26" height="25" viewBox="0 0 26 25" fill="none" xmlns="http://www.w3.org/2000/svg">
<g clip-path="url(#clip0_69_738)">
<path d="M9.77376 15.1042C9.05605 15.1042 8.47168 14.5198 8.47168 13.8021C8.47168 13.0844 9.05605 12.5 9.77376 12.5C10.4915 12.5 11.0758 13.0844 11.0758 13.8021C11.0758 14.5198 10.4915 15.1042 9.77376 15.1042Z" fill="white" fill-opacity="0.5"/>
<path d="M15.7328 16.7656C15.8651 16.8979 15.8641 17.1114 15.7328 17.2427C14.8443 18.1302 13.1411 18.1989 12.6401 18.1989C12.1391 18.1989 10.4359 18.1302 9.54844 17.2427C9.41615 17.1104 9.41615 16.8979 9.54844 16.7656C9.68073 16.6333 9.89323 16.6333 10.0255 16.7656C10.5859 17.326 11.7839 17.5239 12.6401 17.5239C13.4964 17.5239 14.6943 17.325 15.2557 16.7646C15.388 16.6333 15.6016 16.6333 15.7328 16.7656Z" fill="white" fill-opacity="0.5"/>
<path d="M16.8053 13.8021C16.8053 14.5208 16.221 15.1042 15.5033 15.1042C14.7845 15.1042 14.2012 14.5198 14.2012 13.8021C14.2012 13.0844 14.7855 12.5 15.5033 12.5C16.221 12.5 16.8053 13.0844 16.8053 13.8021Z" fill="white" fill-opacity="0.5"/>
<path d="M12.6387 0C5.73555 0 0.138672 5.59687 0.138672 12.5C0.138672 19.4031 5.73555 25 12.6387 25C19.5418 25 25.1387 19.4031 25.1387 12.5C25.1387 5.59687 19.5418 0 12.6387 0ZM19.8855 14.1656C19.9137 14.3458 19.9283 14.5281 19.9283 14.7135C19.9283 17.5177 16.6637 19.7917 12.6366 19.7917C8.6095 19.7917 5.34492 17.5177 5.34492 14.7135C5.34492 14.5271 5.36055 14.3437 5.38867 14.1625C4.7543 13.8771 4.31159 13.2406 4.31159 12.5C4.31159 11.4927 5.12721 10.6771 6.1345 10.6771C6.62409 10.6771 7.06784 10.8708 7.39492 11.1854C8.65742 10.276 10.4012 9.69479 12.3418 9.64062L13.2689 5.28125C13.2866 5.19688 13.3376 5.12292 13.4095 5.07604C13.4814 5.02917 13.5699 5.0125 13.6543 5.03021L16.6835 5.67396C16.897 5.24583 17.3355 4.94792 17.847 4.94792C18.5658 4.94792 19.1491 5.53125 19.1491 6.25C19.1491 6.96875 18.5658 7.55208 17.847 7.55208C17.1491 7.55208 16.5835 7.00104 16.5512 6.31146L13.8387 5.73438L13.0085 9.64062C14.921 9.70729 16.6376 10.2885 17.8835 11.1875C18.2116 10.8719 18.6564 10.676 19.148 10.676C20.1553 10.676 20.971 11.4917 20.971 12.499C20.9699 13.2437 20.5241 13.8823 19.8855 14.1656Z" fill="white" fill-opacity="0.5"/>
</g>
<defs>
<clipPath id="clip0_69_738">
<rect width="25" height="25" fill="white" transform="translate(0.138672)"/>
</clipPath>
</defs>
</svg>
