<svg width="26" height="22" viewBox="0 0 26 22" fill="none" xmlns="http://www.w3.org/2000/svg">
<g clip-path="url(#clip0_69_736)">
<path d="M22.5793 7.4593C22.5939 7.66878 22.5939 7.87925 22.5939 8.09072C22.5939 14.5509 17.4335 21.9999 8.00013 21.9999V21.9959C5.21367 21.9999 2.48451 21.2394 0.138672 19.8048C0.54388 19.8515 0.951172 19.8743 1.35951 19.8753C3.66992 19.8773 5.91367 19.1386 7.7293 17.7785C5.5345 17.7388 3.60951 16.3747 2.93763 14.3831C3.70638 14.5241 4.49805 14.4953 5.25325 14.2997C2.8595 13.8391 1.13867 11.8346 1.13867 9.50745C1.13867 9.4866 1.13867 9.46575 1.13867 9.4459C1.85221 9.82515 2.65013 10.0346 3.4668 10.0575C1.21263 8.62286 0.516797 5.76558 1.87826 3.53177C4.48242 6.58563 8.32513 8.44217 12.4491 8.63974C12.0355 6.94205 12.6012 5.16294 13.9324 3.9686C15.998 2.11702 19.247 2.21233 21.1897 4.18106C22.3387 3.96562 23.4397 3.56354 24.447 2.99466C24.0637 4.12646 23.2626 5.08749 22.1918 5.69906C23.2095 5.5829 24.2022 5.32378 25.1387 4.92864C24.4501 5.91052 23.5835 6.76731 22.5793 7.4593Z" fill="white" fill-opacity="0.5"/>
</g>
<defs>
<clipPath id="clip0_69_736">
<rect width="25" height="22" fill="white" transform="translate(0.138672)"/>
</clipPath>
</defs>
</svg>
