<svg width="30" height="30" viewBox="0 0 30 30" fill="none" xmlns="http://www.w3.org/2000/svg">
<g clip-path="url(#clip0_46_1020)">
<path d="M21.25 0C20.9185 0 20.6005 0.131696 20.3661 0.366117C20.1317 0.600537 20 0.918479 20 1.25C20 4.93625 16.7713 6.25 13.75 6.25H5C3.67392 6.25 2.40215 6.77678 1.46447 7.71447C0.526784 8.65215 0 9.92392 0 11.25L0 13.75C0.0027302 14.4984 0.174327 15.2366 0.502003 15.9095C0.829679 16.5823 1.30499 17.1726 1.8925 17.6362L6.3575 27.6012C6.67505 28.3151 7.19272 28.9216 7.84784 29.3473C8.50296 29.7731 9.26745 29.9998 10.0488 30C10.6704 29.9996 11.2821 29.8437 11.8281 29.5466C12.3741 29.2495 12.8371 28.8205 13.1751 28.2987C13.513 27.7769 13.715 27.1789 13.7628 26.5591C13.8106 25.9393 13.7027 25.3174 13.4488 24.75L10.6988 18.75H13.75C16.7713 18.75 20 20.0637 20 23.75C20 24.0815 20.1317 24.3995 20.3661 24.6339C20.6005 24.8683 20.9185 25 21.25 25C21.5815 25 21.8995 24.8683 22.1339 24.6339C22.3683 24.3995 22.5 24.0815 22.5 23.75V1.25C22.5 0.918479 22.3683 0.600537 22.1339 0.366117C21.8995 0.131696 21.5815 0 21.25 0V0ZM11.1713 25.7738C11.254 25.9607 11.2889 26.1654 11.2726 26.3693C11.2562 26.5731 11.1893 26.7697 11.0778 26.9411C10.9664 27.1125 10.8139 27.2534 10.6342 27.351C10.4545 27.4486 10.2532 27.4998 10.0488 27.5C9.75049 27.4998 9.45872 27.413 9.20886 27.2501C8.959 27.0872 8.76181 26.8553 8.64125 26.5825L5.13125 18.75H7.94875L11.1713 25.7738ZM20 18.25C18.2141 16.874 16.003 16.1664 13.75 16.25H5C4.33696 16.25 3.70107 15.9866 3.23223 15.5178C2.76339 15.0489 2.5 14.413 2.5 13.75V11.25C2.5 10.587 2.76339 9.95107 3.23223 9.48223C3.70107 9.01339 4.33696 8.75 5 8.75H13.75C16.0022 8.83537 18.2133 8.13004 20 6.75625V18.25ZM29.875 19.315C29.8017 19.462 29.7001 19.593 29.5761 19.7007C29.4521 19.8084 29.3081 19.8906 29.1523 19.9426C28.9965 19.9946 28.832 20.0154 28.6682 20.0038C28.5043 19.9922 28.3444 19.9484 28.1975 19.875L25.6975 18.625C25.4008 18.4768 25.1751 18.2168 25.0701 17.9022C24.9651 17.5876 24.9893 17.2442 25.1375 16.9475C25.2857 16.6508 25.5457 16.4251 25.8603 16.3201C26.1749 16.2151 26.5183 16.2393 26.815 16.3875L29.315 17.6375C29.6102 17.7856 29.8348 18.0445 29.9397 18.3576C30.0446 18.6708 30.0214 19.0127 29.875 19.3088V19.315ZM25.1375 8.065C25.0641 7.9181 25.0203 7.75816 25.0087 7.59433C24.9971 7.4305 25.0179 7.26599 25.0699 7.1102C25.1219 6.95441 25.2041 6.8104 25.3118 6.6864C25.4195 6.56239 25.5505 6.46082 25.6975 6.3875L28.1975 5.1375C28.4942 4.98931 28.8376 4.96506 29.1522 5.07008C29.4668 5.1751 29.7268 5.40079 29.875 5.6975C30.0232 5.99421 30.0474 6.33764 29.9424 6.65223C29.8374 6.96682 29.6117 7.22681 29.315 7.375L26.815 8.625C26.6681 8.69845 26.5082 8.74222 26.3443 8.75383C26.1805 8.76543 26.016 8.74463 25.8602 8.69263C25.7044 8.64062 25.5604 8.55842 25.4364 8.45073C25.3124 8.34304 25.2108 8.21196 25.1375 8.065ZM25 12.5C25 12.1685 25.1317 11.8505 25.3661 11.6161C25.6005 11.3817 25.9185 11.25 26.25 11.25H28.75C29.0815 11.25 29.3995 11.3817 29.6339 11.6161C29.8683 11.8505 30 12.1685 30 12.5C30 12.8315 29.8683 13.1495 29.6339 13.3839C29.3995 13.6183 29.0815 13.75 28.75 13.75H26.25C25.9185 13.75 25.6005 13.6183 25.3661 13.3839C25.1317 13.1495 25 12.8315 25 12.5Z" fill="#81BD52"/>
</g>
<defs>
<clipPath id="clip0_46_1020">
<rect width="30" height="30" fill="white"/>
</clipPath>
</defs>
</svg>
