<svg width="30" height="30" viewBox="0 0 30 30" fill="none" xmlns="http://www.w3.org/2000/svg">
<g clip-path="url(#clip0_46_1018)">
<path d="M15 0C12.0333 0 9.13319 0.879735 6.66645 2.52796C4.19972 4.17618 2.27713 6.51886 1.14181 9.25975C0.00649929 12.0006 -0.290551 15.0166 0.288228 17.9264C0.867006 20.8361 2.29562 23.5088 4.39341 25.6066C6.49119 27.7044 9.16394 29.133 12.0737 29.7118C14.9834 30.2906 17.9994 29.9935 20.7403 28.8582C23.4812 27.7229 25.8238 25.8003 27.4721 23.3336C29.1203 20.8668 30 17.9667 30 15C29.9957 11.0231 28.414 7.21026 25.6019 4.39815C22.7897 1.58604 18.9769 0.00430135 15 0V0ZM16.25 27.4363V25C16.25 24.6685 16.1183 24.3505 15.8839 24.1161C15.6495 23.8817 15.3315 23.75 15 23.75C14.6685 23.75 14.3505 23.8817 14.1161 24.1161C13.8817 24.3505 13.75 24.6685 13.75 25V27.4363C10.8827 27.1443 8.20398 25.8719 6.16602 23.834C4.12806 21.796 2.85571 19.1173 2.56376 16.25H5.00001C5.33153 16.25 5.64947 16.1183 5.88389 15.8839C6.11831 15.6495 6.25001 15.3315 6.25001 15C6.25001 14.6685 6.11831 14.3505 5.88389 14.1161C5.64947 13.8817 5.33153 13.75 5.00001 13.75H2.56376C2.85571 10.8827 4.12806 8.20398 6.16602 6.16601C8.20398 4.12805 10.8827 2.8557 13.75 2.56375V5C13.75 5.33152 13.8817 5.64946 14.1161 5.88388C14.3505 6.1183 14.6685 6.25 15 6.25C15.3315 6.25 15.6495 6.1183 15.8839 5.88388C16.1183 5.64946 16.25 5.33152 16.25 5V2.56375C19.1173 2.8557 21.796 4.12805 23.834 6.16601C25.872 8.20398 27.1443 10.8827 27.4363 13.75H25C24.6685 13.75 24.3505 13.8817 24.1161 14.1161C23.8817 14.3505 23.75 14.6685 23.75 15C23.75 15.3315 23.8817 15.6495 24.1161 15.8839C24.3505 16.1183 24.6685 16.25 25 16.25H27.4363C27.1443 19.1173 25.872 21.796 23.834 23.834C21.796 25.8719 19.1173 27.1443 16.25 27.4363V27.4363ZM20 15C20 15.3315 19.8683 15.6495 19.6339 15.8839C19.3995 16.1183 19.0815 16.25 18.75 16.25H16.25V18.75C16.25 19.0815 16.1183 19.3995 15.8839 19.6339C15.6495 19.8683 15.3315 20 15 20C14.6685 20 14.3505 19.8683 14.1161 19.6339C13.8817 19.3995 13.75 19.0815 13.75 18.75V16.25H11.25C10.9185 16.25 10.6005 16.1183 10.3661 15.8839C10.1317 15.6495 10 15.3315 10 15C10 14.6685 10.1317 14.3505 10.3661 14.1161C10.6005 13.8817 10.9185 13.75 11.25 13.75H13.75V11.25C13.75 10.9185 13.8817 10.6005 14.1161 10.3661C14.3505 10.1317 14.6685 10 15 10C15.3315 10 15.6495 10.1317 15.8839 10.3661C16.1183 10.6005 16.25 10.9185 16.25 11.25V13.75H18.75C19.0815 13.75 19.3995 13.8817 19.6339 14.1161C19.8683 14.3505 20 14.6685 20 15Z" fill="#81BD52"/>
</g>
<defs>
<clipPath id="clip0_46_1018">
<rect width="30" height="30" fill="white"/>
</clipPath>
</defs>
</svg>
