<svg width="30" height="30" viewBox="0 0 30 30" fill="none" xmlns="http://www.w3.org/2000/svg">
<g clip-path="url(#clip0_64_554)">
<path d="M28.1064 13.7187L15.0001 21.5837L1.89387 13.7187C1.60959 13.5481 1.2692 13.4974 0.947574 13.5779C0.62595 13.6583 0.349439 13.8631 0.178872 14.1474C0.00830415 14.4317 -0.0423479 14.7721 0.0380584 15.0937C0.118465 15.4153 0.323343 15.6918 0.607622 15.8624L14.3576 24.1124C14.552 24.2292 14.7746 24.2909 15.0014 24.2909C15.2282 24.2909 15.4507 24.2292 15.6451 24.1124L29.3951 15.8624C29.6794 15.6918 29.8843 15.4153 29.9647 15.0937C30.0451 14.7721 29.9944 14.4317 29.8239 14.1474C29.6533 13.8631 29.3768 13.6583 29.0552 13.5779C28.7335 13.4974 28.3932 13.5481 28.1089 13.7187H28.1064Z" fill="#81BD52"/>
<path d="M28.1064 19.4289L15.0001 27.2926L1.89387 19.4289C1.75311 19.3444 1.59709 19.2885 1.43472 19.2643C1.27236 19.2402 1.10682 19.2482 0.947571 19.2881C0.788318 19.3279 0.638467 19.3987 0.506573 19.4964C0.374678 19.5941 0.263324 19.7169 0.178868 19.8576C0.0944114 19.9984 0.0385069 20.1544 0.0143461 20.3168C-0.00981465 20.4791 -0.00175848 20.6447 0.0380546 20.8039C0.118461 21.1255 0.323339 21.4021 0.607618 21.5726L14.3576 29.8226C14.552 29.9394 14.7746 30.0011 15.0014 30.0011C15.2282 30.0011 15.4507 29.9394 15.6451 29.8226L29.3951 21.5726C29.6794 21.4021 29.8843 21.1255 29.9647 20.8039C30.0451 20.4823 29.9944 20.1419 29.8239 19.8576C29.6533 19.5733 29.3768 19.3685 29.0552 19.2881C28.7335 19.2077 28.3931 19.2583 28.1089 19.4289H28.1064Z" fill="#81BD52"/>
<path d="M0.606343 10.4463L13.0863 17.9351C13.6642 18.2827 14.3258 18.4663 15.0001 18.4663C15.6744 18.4663 16.336 18.2827 16.9138 17.9351L29.3938 10.4463C29.5787 10.3352 29.7316 10.1781 29.8377 9.99042C29.9439 9.80271 29.9997 9.59072 29.9997 9.37507C29.9997 9.15942 29.9439 8.94743 29.8377 8.75972C29.7316 8.572 29.5787 8.41495 29.3938 8.30382L16.9138 0.81507C16.3359 0.467856 15.6743 0.284424 15.0001 0.284424C14.3258 0.284424 13.6643 0.467856 13.0863 0.81507L0.606343 8.30382C0.421527 8.41495 0.268606 8.572 0.162444 8.75972C0.0562811 8.94743 0.000488281 9.15942 0.000488281 9.37507C0.000488281 9.59072 0.0562811 9.80271 0.162444 9.99042C0.268606 10.1781 0.421527 10.3352 0.606343 10.4463Z" fill="#81BD52"/>
</g>
<defs>
<clipPath id="clip0_64_554">
<rect width="30" height="30" fill="white"/>
</clipPath>
</defs>
</svg>
