<svg width="253" height="45" viewBox="0 0 253 45" fill="none" xmlns="http://www.w3.org/2000/svg">
<path d="M8.94 33.21C7.56 33.21 6.32 32.97 5.22 32.49C4.14 31.99 3.29 31.31 2.67 30.45C2.05 29.57 1.73 28.56 1.71 27.42H4.62C4.72 28.4 5.12 29.23 5.82 29.91C6.54 30.57 7.58 30.9 8.94 30.9C10.24 30.9 11.26 30.58 12 29.94C12.76 29.28 13.14 28.44 13.14 27.42C13.14 26.62 12.92 25.97 12.48 25.47C12.04 24.97 11.49 24.59 10.83 24.33C10.17 24.07 9.28 23.79 8.16 23.49C6.78 23.13 5.67 22.77 4.83 22.41C4.01 22.05 3.3 21.49 2.7 20.73C2.12 19.95 1.83 18.91 1.83 17.61C1.83 16.47 2.12 15.46 2.7 14.58C3.28 13.7 4.09 13.02 5.13 12.54C6.19 12.06 7.4 11.82 8.76 11.82C10.72 11.82 12.32 12.31 13.56 13.29C14.82 14.27 15.53 15.57 15.69 17.19H12.69C12.59 16.39 12.17 15.69 11.43 15.09C10.69 14.47 9.71 14.16 8.49 14.16C7.35 14.16 6.42 14.46 5.7 15.06C4.98 15.64 4.62 16.46 4.62 17.52C4.62 18.28 4.83 18.9 5.25 19.38C5.69 19.86 6.22 20.23 6.84 20.49C7.48 20.73 8.37 21.01 9.51 21.33C10.89 21.71 12 22.09 12.84 22.47C13.68 22.83 14.4 23.4 15 24.18C15.6 24.94 15.9 25.98 15.9 27.3C15.9 28.32 15.63 29.28 15.09 30.18C14.55 31.08 13.75 31.81 12.69 32.37C11.63 32.93 10.38 33.21 8.94 33.21ZM18.8974 24.75C18.8974 23.05 19.2374 21.57 19.9174 20.31C20.5974 19.03 21.5374 18.04 22.7374 17.34C23.9574 16.64 25.3474 16.29 26.9074 16.29C28.9274 16.29 30.5874 16.78 31.8874 17.76C33.2074 18.74 34.0774 20.1 34.4974 21.84H31.5574C31.2774 20.84 30.7274 20.05 29.9074 19.47C29.1074 18.89 28.1074 18.6 26.9074 18.6C25.3474 18.6 24.0874 19.14 23.1274 20.22C22.1674 21.28 21.6874 22.79 21.6874 24.75C21.6874 26.73 22.1674 28.26 23.1274 29.34C24.0874 30.42 25.3474 30.96 26.9074 30.96C28.1074 30.96 29.1074 30.68 29.9074 30.12C30.7074 29.56 31.2574 28.76 31.5574 27.72H34.4974C34.0574 29.4 33.1774 30.75 31.8574 31.77C30.5374 32.77 28.8874 33.27 26.9074 33.27C25.3474 33.27 23.9574 32.92 22.7374 32.22C21.5374 31.52 20.5974 30.53 19.9174 29.25C19.2374 27.97 18.8974 26.47 18.8974 24.75ZM40.8701 19.23C41.3501 18.29 42.0301 17.56 42.9101 17.04C43.8101 16.52 44.9001 16.26 46.1801 16.26V19.08H45.4601C42.4001 19.08 40.8701 20.74 40.8701 24.06V33H38.1401V16.56H40.8701V19.23ZM56.5015 33.27C54.9615 33.27 53.5615 32.92 52.3015 32.22C51.0615 31.52 50.0815 30.53 49.3615 29.25C48.6615 27.95 48.3115 26.45 48.3115 24.75C48.3115 23.07 48.6715 21.59 49.3915 20.31C50.1315 19.01 51.1315 18.02 52.3915 17.34C53.6515 16.64 55.0615 16.29 56.6215 16.29C58.1815 16.29 59.5915 16.64 60.8515 17.34C62.1115 18.02 63.1015 19 63.8215 20.28C64.5615 21.56 64.9315 23.05 64.9315 24.75C64.9315 26.45 64.5515 27.95 63.7915 29.25C63.0515 30.53 62.0415 31.52 60.7615 32.22C59.4815 32.92 58.0615 33.27 56.5015 33.27ZM56.5015 30.87C57.4815 30.87 58.4015 30.64 59.2615 30.18C60.1215 29.72 60.8115 29.03 61.3315 28.11C61.8715 27.19 62.1415 26.07 62.1415 24.75C62.1415 23.43 61.8815 22.31 61.3615 21.39C60.8415 20.47 60.1615 19.79 59.3215 19.35C58.4815 18.89 57.5715 18.66 56.5915 18.66C55.5915 18.66 54.6715 18.89 53.8315 19.35C53.0115 19.79 52.3515 20.47 51.8515 21.39C51.3515 22.31 51.1015 23.43 51.1015 24.75C51.1015 26.09 51.3415 27.22 51.8215 28.14C52.3215 29.06 52.9815 29.75 53.8015 30.21C54.6215 30.65 55.5215 30.87 56.5015 30.87ZM75.6909 33.27C74.1509 33.27 72.7509 32.92 71.4909 32.22C70.2509 31.52 69.2709 30.53 68.5509 29.25C67.8509 27.95 67.5009 26.45 67.5009 24.75C67.5009 23.07 67.8609 21.59 68.5809 20.31C69.3209 19.01 70.3209 18.02 71.5809 17.34C72.8409 16.64 74.2509 16.29 75.8109 16.29C77.3709 16.29 78.7809 16.64 80.0409 17.34C81.3009 18.02 82.2909 19 83.0109 20.28C83.7509 21.56 84.1209 23.05 84.1209 24.75C84.1209 26.45 83.7409 27.95 82.9809 29.25C82.2409 30.53 81.2309 31.52 79.9509 32.22C78.6709 32.92 77.2509 33.27 75.6909 33.27ZM75.6909 30.87C76.6709 30.87 77.5909 30.64 78.4509 30.18C79.3109 29.72 80.0009 29.03 80.5209 28.11C81.0609 27.19 81.3309 26.07 81.3309 24.75C81.3309 23.43 81.0709 22.31 80.5509 21.39C80.0309 20.47 79.3509 19.79 78.5109 19.35C77.6709 18.89 76.7609 18.66 75.7809 18.66C74.7809 18.66 73.8609 18.89 73.0209 19.35C72.2009 19.79 71.5409 20.47 71.0409 21.39C70.5409 22.31 70.2909 23.43 70.2909 24.75C70.2909 26.09 70.5309 27.22 71.0109 28.14C71.5109 29.06 72.1709 29.75 72.9909 30.21C73.8109 30.65 74.7109 30.87 75.6909 30.87ZM94.4904 16.29C95.9104 16.29 97.1504 16.6 98.2104 17.22C99.2904 17.84 100.09 18.62 100.61 19.56V16.56H103.37V33.36C103.37 34.86 103.05 36.19 102.41 37.35C101.77 38.53 100.85 39.45 99.6504 40.11C98.4704 40.77 97.0904 41.1 95.5104 41.1C93.3504 41.1 91.5504 40.59 90.1104 39.57C88.6704 38.55 87.8204 37.16 87.5604 35.4H90.2604C90.5604 36.4 91.1804 37.2 92.1204 37.8C93.0604 38.42 94.1904 38.73 95.5104 38.73C97.0104 38.73 98.2304 38.26 99.1704 37.32C100.13 36.38 100.61 35.06 100.61 33.36V29.91C100.07 30.87 99.2704 31.67 98.2104 32.31C97.1504 32.95 95.9104 33.27 94.4904 33.27C93.0304 33.27 91.7004 32.91 90.5004 32.19C89.3204 31.47 88.3904 30.46 87.7104 29.16C87.0304 27.86 86.6904 26.38 86.6904 24.72C86.6904 23.04 87.0304 21.57 87.7104 20.31C88.3904 19.03 89.3204 18.04 90.5004 17.34C91.7004 16.64 93.0304 16.29 94.4904 16.29ZM100.61 24.75C100.61 23.51 100.36 22.43 99.8604 21.51C99.3604 20.59 98.6804 19.89 97.8204 19.41C96.9804 18.91 96.0504 18.66 95.0304 18.66C94.0104 18.66 93.0804 18.9 92.2404 19.38C91.4004 19.86 90.7304 20.56 90.2304 21.48C89.7304 22.4 89.4804 23.48 89.4804 24.72C89.4804 25.98 89.7304 27.08 90.2304 28.02C90.7304 28.94 91.4004 29.65 92.2404 30.15C93.0804 30.63 94.0104 30.87 95.0304 30.87C96.0504 30.87 96.9804 30.63 97.8204 30.15C98.6804 29.65 99.3604 28.94 99.8604 28.02C100.36 27.08 100.61 25.99 100.61 24.75ZM122.984 24.15C122.984 24.67 122.954 25.22 122.894 25.8H109.754C109.854 27.42 110.404 28.69 111.404 29.61C112.424 30.51 113.654 30.96 115.094 30.96C116.274 30.96 117.254 30.69 118.034 30.15C118.834 29.59 119.394 28.85 119.714 27.93H122.654C122.214 29.51 121.334 30.8 120.014 31.8C118.694 32.78 117.054 33.27 115.094 33.27C113.534 33.27 112.134 32.92 110.894 32.22C109.674 31.52 108.714 30.53 108.014 29.25C107.314 27.95 106.964 26.45 106.964 24.75C106.964 23.05 107.304 21.56 107.984 20.28C108.664 19 109.614 18.02 110.834 17.34C112.074 16.64 113.494 16.29 115.094 16.29C116.654 16.29 118.034 16.63 119.234 17.31C120.434 17.99 121.354 18.93 121.994 20.13C122.654 21.31 122.984 22.65 122.984 24.15ZM120.164 23.58C120.164 22.54 119.934 21.65 119.474 20.91C119.014 20.15 118.384 19.58 117.584 19.2C116.804 18.8 115.934 18.6 114.974 18.6C113.594 18.6 112.414 19.04 111.434 19.92C110.474 20.8 109.924 22.02 109.784 23.58H120.164Z" fill="#58595B"/>
<path d="M201.13 12.09V14.31H192.04V21.36H199.42V23.58H192.04V33H189.31V12.09H201.13ZM207.157 19.23C207.637 18.29 208.317 17.56 209.197 17.04C210.097 16.52 211.187 16.26 212.467 16.26V19.08H211.747C208.687 19.08 207.157 20.74 207.157 24.06V33H204.427V16.56H207.157V19.23ZM222.789 33.27C221.249 33.27 219.849 32.92 218.589 32.22C217.349 31.52 216.369 30.53 215.649 29.25C214.949 27.95 214.599 26.45 214.599 24.75C214.599 23.07 214.959 21.59 215.679 20.31C216.419 19.01 217.419 18.02 218.679 17.34C219.939 16.64 221.349 16.29 222.909 16.29C224.469 16.29 225.879 16.64 227.139 17.34C228.399 18.02 229.389 19 230.109 20.28C230.849 21.56 231.219 23.05 231.219 24.75C231.219 26.45 230.839 27.95 230.079 29.25C229.339 30.53 228.329 31.52 227.049 32.22C225.769 32.92 224.349 33.27 222.789 33.27ZM222.789 30.87C223.769 30.87 224.689 30.64 225.549 30.18C226.409 29.72 227.099 29.03 227.619 28.11C228.159 27.19 228.429 26.07 228.429 24.75C228.429 23.43 228.169 22.31 227.649 21.39C227.129 20.47 226.449 19.79 225.609 19.35C224.769 18.89 223.859 18.66 222.879 18.66C221.879 18.66 220.959 18.89 220.119 19.35C219.299 19.79 218.639 20.47 218.139 21.39C217.639 22.31 217.389 23.43 217.389 24.75C217.389 26.09 217.629 27.22 218.109 28.14C218.609 29.06 219.269 29.75 220.089 30.21C220.909 30.65 221.809 30.87 222.789 30.87ZM241.588 16.29C243.008 16.29 244.248 16.6 245.308 17.22C246.388 17.84 247.188 18.62 247.708 19.56V16.56H250.468V33.36C250.468 34.86 250.148 36.19 249.508 37.35C248.868 38.53 247.948 39.45 246.748 40.11C245.568 40.77 244.188 41.1 242.608 41.1C240.448 41.1 238.648 40.59 237.208 39.57C235.768 38.55 234.918 37.16 234.658 35.4H237.358C237.658 36.4 238.278 37.2 239.218 37.8C240.158 38.42 241.288 38.73 242.608 38.73C244.108 38.73 245.328 38.26 246.268 37.32C247.228 36.38 247.708 35.06 247.708 33.36V29.91C247.168 30.87 246.368 31.67 245.308 32.31C244.248 32.95 243.008 33.27 241.588 33.27C240.128 33.27 238.798 32.91 237.598 32.19C236.418 31.47 235.488 30.46 234.808 29.16C234.128 27.86 233.788 26.38 233.788 24.72C233.788 23.04 234.128 21.57 234.808 20.31C235.488 19.03 236.418 18.04 237.598 17.34C238.798 16.64 240.128 16.29 241.588 16.29ZM247.708 24.75C247.708 23.51 247.458 22.43 246.958 21.51C246.458 20.59 245.778 19.89 244.918 19.41C244.078 18.91 243.148 18.66 242.128 18.66C241.108 18.66 240.178 18.9 239.338 19.38C238.498 19.86 237.828 20.56 237.328 21.48C236.828 22.4 236.578 23.48 236.578 24.72C236.578 25.98 236.828 27.08 237.328 28.02C237.828 28.94 238.498 29.65 239.338 30.15C240.178 30.63 241.108 30.87 242.128 30.87C243.148 30.87 244.078 30.63 244.918 30.15C245.778 29.65 246.458 28.94 246.958 28.02C247.458 27.08 247.708 25.99 247.708 24.75Z" fill="#58595B"/>
<path d="M131.162 24.0308L154.395 43.293L137.921 37.2102L131.162 24.0308Z" fill="#3F7F1C"/>
<path d="M132.599 22.5944L143.159 26.1427L149.157 36.6184L132.599 22.5944Z" fill="#81BD52"/>
<path d="M127.36 9.92194C127.597 11.0612 128.189 12.0962 129.05 12.8788C130.402 13.9771 133.591 13.8926 133.591 13.8926L130.148 11.1047L127.36 9.92194Z" fill="#3F7F1C"/>
<path d="M132.176 9.41498L135.048 13.7236L136.654 14.1463L136.886 12.055L132.176 9.41498Z" fill="#3F7F1C"/>
<path d="M138.175 13.0475L138.005 16.9342L143.919 24.7911L143.666 20.9894L138.175 13.0475Z" fill="#3F7F1C"/>
<path d="M148.144 14.7374L155.409 39.7447V2.31836L148.144 14.7374Z" fill="#3F7F1C"/>
<path d="M152.283 2.40326L148.672 1.72717L147.214 6.4578L147.467 7.72504L152.283 2.40326Z" fill="#3F7F1C"/>
<path d="M147.848 1.53677L145.947 2.61427L146.644 5.33852L147.848 1.53677Z" fill="#3F7F1C"/>
<path d="M136.569 6.28931L135.387 8.40117V10.2596L137.329 8.57035L136.569 6.28931Z" fill="#81BD52"/>
<path d="M144.542 20.8176L144.849 24.9597L148.397 19.4687L147.508 15.8687L144.542 20.8176Z" fill="#3F7F1C"/>
<path d="M179.74 24.0308L156.507 43.293L172.982 37.2102L179.74 24.0308Z" fill="#81BD52"/>
<path d="M178.304 22.5944L167.743 26.1427L161.745 36.6184L178.304 22.5944Z" fill="#3F7F1C"/>
<path d="M183.542 9.92194C183.305 11.0612 182.713 12.0962 181.852 12.8788C180.5 13.9771 177.311 13.8926 177.311 13.8926L180.754 11.1047L183.542 9.92194Z" fill="#81BD52"/>
<path d="M178.726 9.41498L175.853 13.7236L174.249 14.1463L174.016 12.055L178.726 9.41498Z" fill="#3F7F1C"/>
<path d="M172.728 13.0475L172.897 16.9342L166.983 24.7911L167.236 20.9894L172.728 13.0475Z" fill="#3F7F1C"/>
<path d="M162.758 14.7374L155.493 39.7447V2.31836L162.758 14.7374Z" fill="#81BD52"/>
<path d="M158.619 2.40326L162.23 1.72717L163.688 6.4578L163.435 7.72504L158.619 2.40326Z" fill="#81BD52"/>
<path d="M163.054 1.53677L164.955 2.61427L164.258 5.33852L163.054 1.53677Z" fill="#81BD52"/>
<path d="M174.333 6.28931L175.516 8.40117V10.2596L173.573 8.57035L174.333 6.28931Z" fill="#3F7F1C"/>
<path d="M166.36 20.8176L166.053 24.9597L162.505 19.4687L163.394 15.8687L166.36 20.8176Z" fill="#81BD52"/>
</svg>
